# Wavefront OBJ exported by MilkShape 3D

mtllib alli_dockbase.mtl

v 1.815300 0.447300 -0.842600
v 0.130100 0.447300 -0.842600
v 0.156100 1.572900 -0.816700
v 1.789400 1.572900 -0.816700
v 0.130100 0.447300 0.842600
v 0.156100 1.572900 0.816700
v 1.815300 0.447300 0.842600
v 1.789400 1.572900 0.816700
v -0.107300 0.364300 -1.838100
v -0.107300 0.364300 -0.829300
v 0.725300 0.364300 -0.854500
v 0.725300 0.364300 -1.842900
v 1.821200 0.364300 -0.916200
v 1.873800 0.364300 -1.830800
v 0.747600 0.003100 -1.934000
v -0.107300 0.003100 -1.880800
v -0.518700 0.170000 -1.950900
v -0.518800 0.305400 -1.946700
v -0.129300 0.306000 -1.941400
v -0.129100 0.170700 -1.945600
v -0.518800 0.162300 -0.837700
v -0.129300 0.162900 -0.832400
v -0.129500 0.298300 -0.828100
v -0.519000 0.297600 -0.833500
v -0.107300 0.003100 -0.740700
v -0.039500 0.458800 -0.991800
v 0.075800 0.458800 0.008200
v 0.986800 0.458800 0.008200
v 0.997000 0.458800 -1.012200
v 0.046400 0.003200 0.008400
v -0.069600 0.003200 -1.020600
v 1.948100 0.455400 1.008300
v 1.922500 0.455400 0.008200
v 0.967600 0.458800 0.968000
v 0.997000 0.003200 -1.041600
v -0.039500 0.458800 1.008300
v 1.948100 0.455400 -0.991800
v -0.069600 0.003200 1.037500
v 1.972800 0.003200 -1.020600
v 0.966800 0.003200 0.996100
v 1.972800 0.003200 1.037500
v 2.009400 0.003200 0.008400
v -0.108900 1.257100 -0.725700
v -0.108900 1.257100 0.726200
v -0.081700 1.439600 0.726100
v -0.081700 1.439600 -0.725700
v 0.213100 1.439600 0.724900
v 0.213100 1.439600 -0.725400
v 0.213100 1.273200 0.724900
v 0.213100 1.273200 -0.725400
v -0.768500 0.204700 -0.376000
v -0.764300 0.340000 -0.375800
v -0.759000 0.340600 -0.765400
v -0.763200 0.205300 -0.765500
v 0.313100 0.332900 -0.765200
v 0.308900 0.197600 -0.765400
v 0.307800 0.332300 -0.375700
v 0.303600 0.197000 -0.375900
v -0.892000 0.204700 0.040600
v -0.887800 0.340000 0.040800
v -0.882500 0.340600 -0.348700
v -0.886700 0.205300 -0.348900
v 0.189600 0.332900 -0.348600
v 0.185400 0.197600 -0.348700
v 0.184300 0.332300 0.040900
v 0.180100 0.197000 0.040800
v -0.735400 0.204700 0.460000
v -0.730700 0.340000 0.460200
v -0.724700 0.340600 0.070700
v -0.729400 0.205300 0.070500
v 0.315000 0.332900 0.070800
v 0.310200 0.197600 0.070600
v 0.309000 0.332300 0.460300
v 0.304200 0.197000 0.460200
v -0.787500 0.204700 0.828300
v -0.783300 0.340000 0.828500
v -0.777900 0.340600 0.504200
v -0.782100 0.205300 0.504100
v 0.313100 0.332900 0.504300
v 0.308900 0.197600 0.504200
v 0.307800 0.332300 0.828600
v 0.303600 0.197000 0.828500
v 0.426400 1.617200 -0.840800
v 1.182300 1.617200 -0.840800
v 1.182300 1.617200 -1.596700
v 0.426400 1.617200 -1.596700
v 0.393300 0.341500 -0.807700
v 1.223200 0.341500 -0.807700
v 1.223200 0.341500 -1.637600
v 0.393300 0.341500 -1.637600
v 0.696000 0.574600 0.950100
v 0.707300 0.003100 0.861600
v -0.346300 0.003100 0.836300
v -0.346300 0.574600 0.924900
v -0.346400 0.574600 1.697600
v 0.696000 0.574600 1.702400
v -0.346300 0.003100 1.740200
v 0.718300 0.003100 1.702600
v 1.038200 0.574600 1.702600
v 1.583400 0.574600 1.702600
v 1.792000 0.574600 0.894600
v 1.113200 0.574600 0.944400
v 1.834300 0.003100 0.790900
v 1.113200 0.003100 0.840500
v 1.637200 0.003100 2.257100
v 1.117700 0.003100 2.257100
v 1.871800 0.574600 2.056200
v 1.901400 0.574600 1.702600
v 1.637000 0.574600 2.164800
v 1.956900 0.003100 2.148500
v 1.986500 0.003100 1.702600
v 0.696400 0.574600 2.056200
v 1.038500 0.574600 2.164800
v 0.718700 0.003100 2.148500
v -0.566900 0.574600 1.324000
v -0.670100 0.003100 1.323700
v -0.198300 0.768700 1.119300
v -0.198300 0.768700 1.494000
v 0.185800 0.768700 1.494000
v 0.185800 0.768700 1.119300
v -0.257700 0.567600 1.061300
v -0.257700 0.567600 1.552000
v 0.245200 0.567600 1.552000
v 0.245200 0.567600 1.061300
v 0.736600 0.003100 -0.766000
v 1.924300 0.003100 -1.887200
v 1.863500 0.003100 -0.812500
v -0.940100 0.170000 -1.950900
v -0.940200 0.305400 -1.946700
v -0.550700 0.306000 -1.941400
v -0.550500 0.170700 -1.945600
v -0.940200 0.162300 -0.878800
v -0.550700 0.162900 -0.873500
v -0.550900 0.298300 -0.869300
v -0.940400 0.297600 -0.874600
v -1.372700 0.170000 -1.956200
v -1.372900 0.305400 -1.951500
v -0.983400 0.306000 -1.945500
v -0.983200 0.170700 -1.950200
v -1.372900 0.162300 -0.754600
v -0.983300 0.162900 -0.748600
v -0.983500 0.298300 -0.743900
v -1.373000 0.297600 -0.749900
v -1.818700 0.170000 -1.890900
v -1.818800 0.305400 -1.886700
v -1.429300 0.306000 -1.881300
v -1.429100 0.170700 -1.885500
v -1.818800 0.162300 -0.818800
v -1.429300 0.162900 -0.813400
v -1.429500 0.298300 -0.809200
v -1.819000 0.297600 -0.814600
v -1.449500 0.003000 -0.771400
v -1.324700 0.003000 -0.769200
v -1.276700 0.534800 -0.727200
v -1.497500 0.534800 -0.731100
v -1.385200 0.003000 -0.878400
v -1.383800 0.534800 -0.920400
v -0.783600 0.003000 -0.855700
v -0.658900 0.003000 -0.853500
v -0.610800 0.534800 -0.811500
v -0.831700 0.534800 -0.815300
v -0.719400 0.003000 -0.962600
v -0.717900 0.534800 -1.004600
v -0.503400 0.003000 -1.865300
v -0.501200 0.003000 -1.990100
v -0.459200 0.534800 -2.038100
v -0.463100 0.534800 -1.817300
v -0.610400 0.003000 -1.929600
v -0.652400 0.534800 -1.931000
v -1.361100 0.003000 -1.865300
v -1.359000 0.003000 -1.990100
v -1.316900 0.534800 -2.038100
v -1.320800 0.534800 -1.817300
v -1.468100 0.003000 -1.929600
v -1.510100 0.534800 -1.931000
v -0.708600 0.003000 -0.285000
v -0.706400 0.003000 -0.409700
v -0.664400 0.534800 -0.457800
v -0.668300 0.534800 -0.236900
v -0.815600 0.003000 -0.349200
v -0.857600 0.534800 -0.350700
v -0.698600 0.003000 0.449000
v -0.823400 0.003000 0.446800
v -0.871400 0.534800 0.404800
v -0.650600 0.534800 0.408700
v -0.762900 0.003000 0.556000
v -0.764300 0.534800 0.598000
v 0.757400 0.720500 0.941500
v 0.752100 0.720500 1.211000
v 0.676900 0.548600 1.154000
v 0.680000 0.548600 0.995500
v 0.494200 0.720500 1.289300
v 0.525100 0.548600 1.200100
v 0.340000 0.720500 1.068200
v 0.434500 0.548600 1.070000
v 0.502700 0.720500 0.853200
v 0.530100 0.548600 0.943600
v 0.494200 0.994900 1.289300
v 0.340000 0.994900 1.068200
v 0.752100 0.994900 1.211000
v 0.757400 0.994900 0.941500
v 0.502700 0.994900 0.853200
v 0.525100 1.147500 1.200100
v 0.434500 1.147500 1.070000
v 0.676900 1.147500 1.154000
v 0.680000 1.147500 0.995500
v 0.530100 1.147500 0.943600
v 0.156000 0.516400 -0.893400
v -0.047600 0.516400 -1.070000
v 0.044400 0.344500 -1.091400
v 0.164200 0.344500 -0.987500
v 0.057500 0.516400 -1.318300
v 0.106200 0.344500 -1.237400
v 0.326000 0.516400 -1.295100
v 0.264200 0.344500 -1.223800
v 0.386900 0.516400 -1.032500
v 0.300000 0.344500 -1.069300
v 0.057500 0.790800 -1.318300
v 0.326000 0.790800 -1.295100
v -0.047600 0.790800 -1.070000
v 0.156000 0.790800 -0.893400
v 0.386900 0.790800 -1.032500
v 0.106200 0.943400 -1.237400
v 0.264200 0.943400 -1.223800
v 0.044400 0.943400 -1.091400
v 0.164200 0.943400 -0.987500
v 0.300000 0.943400 -1.069300
v 1.854800 1.586900 -0.879900
v 0.090700 1.586900 -0.879900
v 0.117800 1.790000 -0.852700
v 1.827700 1.790000 -0.852700
v 0.090700 1.586900 0.884300
v 0.117800 1.790000 0.857200
v 1.854800 1.586900 0.884300
v 1.827700 1.790000 0.857200
v 1.596000 1.717400 0.655100
v 1.596000 1.717400 -0.629200
v 1.596000 1.607500 0.655100
v 1.596000 1.607500 -0.629200
v 0.331600 1.607500 -0.629200
v 0.331600 1.607500 0.655100
v 0.331600 1.717400 0.655100
v 0.331600 1.717400 -0.629200
# 243 vertices

vt 0.255900 0.003500
vt 0.347300 0.003500
vt 0.347300 0.070700
vt 0.255900 0.070700
vt 0.425100 0.047000
vt 0.425100 0.069700
vt 0.404700 0.069900
vt 0.404700 0.047200
vt 0.374300 0.069900
vt 0.374300 0.047200
vt 0.348100 0.045000
vt 0.348100 0.001700
vt 0.386700 0.001700
vt 0.386700 0.045000
vt 0.778400 0.780200
vt 0.773500 0.780200
vt 0.773500 0.787000
vt 0.778400 0.787000
vt 0.778100 0.783900
vt 0.773700 0.783900
vt 0.920700 0.778900
vt 0.938600 0.778900
vt 0.938600 0.825900
vt 0.920700 0.825900
vt 0.351400 0.001400
vt 0.423700 0.001400
vt 0.423500 0.044800
vt 0.351300 0.044800
vt 0.156500 0.138100
vt 0.224400 0.138200
vt 0.224400 0.082700
vt 0.156500 0.082800
vt 0.225100 0.127300
vt 0.155700 0.127300
vt 0.168100 0.137800
vt 0.168100 0.082500
vt 0.382700 0.113100
vt 0.415900 0.113100
vt 0.415900 0.123900
vt 0.382700 0.123900
vt 0.415900 0.118000
vt 0.382700 0.118000
vt 0.406100 0.123900
vt 0.406100 0.113200
vt 0.392500 0.123900
vt 0.392500 0.113200
vt 0.227100 0.023500
vt 0.253300 0.023500
vt 0.253300 0.051000
vt 0.227100 0.051000
vt 0.257700 0.001500
vt 0.301900 0.001500
vt 0.299700 0.071600
vt 0.259900 0.071600
vt 0.400900 0.046800
vt 0.400900 0.070500
vt 0.348600 0.046800
vt 0.348600 0.070500
vt 0.389800 0.045300
vt 0.389800 0.001600
vt 0.454700 0.001300
vt 0.454700 0.044600
vt 0.426400 0.044600
vt 0.426400 0.001300
vt 0.399900 0.047100
vt 0.399900 0.070000
vt 0.353000 0.045300
vt 0.388100 0.001600
vt 0.388100 0.045300
vt 0.424800 0.058600
vt 0.419800 0.045300
vt 0.473500 0.002500
vt 0.472700 0.030700
vt 0.457700 0.030700
vt 0.425000 0.001600
vt 0.425000 0.045300
vt 0.417100 0.058100
vt 0.227500 0.009200
vt 0.253300 0.009200
vt 0.864200 0.567300
vt 0.864200 0.580700
vt 0.811500 0.580700
vt 0.811500 0.567300
vt 0.979700 0.446600
vt 0.980000 0.463600
vt 0.964600 0.455400
vt 0.312300 0.601100
vt 0.270600 0.601100
vt 0.270600 0.585800
vt 0.312200 0.585800
vt 0.226300 0.601100
vt 0.226600 0.585800
vt 0.186200 0.601100
vt 0.186300 0.585800
vt 0.248800 0.601100
vt 0.249100 0.585800
vt 0.226300 0.619100
vt 0.186200 0.619100
vt 0.270600 0.619100
vt 0.312300 0.619100
vt 0.248800 0.619100
vt 0.226200 0.640000
vt 0.186300 0.640000
vt 0.271000 0.640000
vt 0.312200 0.640000
vt 0.249100 0.640000
vt 0.253100 0.591400
vt 0.204400 0.610900
vt 0.227500 0.630700
vt 0.274900 0.630900
vt 0.298000 0.610600
vt 0.351100 0.037700
vt 0.421200 0.037700
vt 0.421200 0.044200
vt 0.355800 0.037700
vt 0.349600 0.045200
vt 0.400000 0.045200
vt 0.393100 0.037700
vt 0.717400 0.150500
vt 0.770100 0.150500
vt 0.770100 0.202400
vt 0.717400 0.202400
vt 0.336400 0.091900
vt 0.268500 0.091900
vt 0.268500 0.085900
vt 0.336400 0.085900
# 126 texture coordinates

vn 0.000000 0.023000 -0.999700
vn -0.999700 0.023000 0.000000
vn 0.000000 0.023000 0.999700
vn 0.999700 0.023000 0.000000
vn 0.000000 1.000000 0.000000
vn 0.013700 0.037600 -0.999200
vn -0.696800 0.021500 -0.716900
vn -0.575800 0.586200 -0.569900
vn 0.581300 0.589200 -0.561200
vn 0.706500 0.023000 -0.707400
vn -0.717400 -0.022500 0.696300
vn 0.707500 -0.021100 0.706400
vn 0.571600 0.566900 0.593300
vn -0.580600 0.566700 0.584600
vn -1.000000 -0.000000 0.000000
vn 0.001800 1.000000 0.000000
vn -0.992500 0.122400 -0.000000
vn -0.992200 0.122300 0.023000
vn 0.003600 1.000000 -0.000000
vn 0.001000 0.122700 -0.992400
vn -0.992200 0.122300 -0.023000
vn 0.021500 0.123100 -0.992200
vn -0.000300 0.117500 0.993100
vn -0.040600 0.118100 0.992200
vn 0.973300 0.229600 0.000000
vn -0.989100 0.147500 0.000000
vn 0.003900 0.000100 1.000000
vn 0.000900 0.000000 -1.000000
vn -0.716900 0.021400 0.696800
vn -0.569900 0.586200 0.575800
vn -0.561200 0.589200 -0.581300
vn -0.707400 0.023000 -0.706500
vn 0.593300 0.566900 -0.571600
vn 0.706400 -0.021100 -0.707500
vn 0.584600 0.566700 0.580600
vn 0.696300 -0.022500 0.717400
vn 0.000000 0.025900 0.999700
vn 0.999500 0.032100 -0.000000
vn 0.000000 0.032100 -0.999500
vn -0.999700 0.025900 0.000000
vn 0.024300 0.177900 -0.983700
vn 0.013700 0.037600 0.999200
vn -0.069800 0.174800 -0.982100
vn -0.000000 0.817200 0.576400
vn 0.986900 0.139700 -0.080100
vn 0.977600 0.134800 -0.161900
vn -0.999300 -0.038700 0.000600
vn -0.819800 0.094900 0.564700
vn -0.846300 0.116800 -0.519700
vn -0.959000 0.283300 0.000000
vn 0.000000 0.276900 0.960900
vn 0.959000 0.283300 -0.000000
vn 0.029300 0.238400 0.970700
vn 0.024300 0.177900 0.983700
vn 0.977600 0.134800 0.161900
vn 0.960900 0.128700 0.245200
vn -0.874600 -0.000000 0.484800
vn 0.857200 -0.000000 0.515100
vn 0.713200 0.554700 0.428500
vn -0.727700 0.554700 0.403400
vn 0.017500 0.000000 -0.999800
vn 0.014500 0.554700 -0.831900
vn 0.484800 -0.000000 0.874600
vn 0.515100 0.000000 -0.857200
vn 0.428500 0.554700 -0.713200
vn 0.403400 0.554700 0.727700
vn -0.999800 0.000000 -0.017500
vn -0.831900 0.554700 -0.014500
vn 0.874600 0.000000 -0.484800
vn -0.857200 0.000000 -0.515100
vn -0.713200 0.554700 -0.428500
vn 0.727700 0.554700 -0.403400
vn -0.017500 -0.000000 0.999800
vn -0.014500 0.554700 0.831900
vn 0.911500 -0.125900 -0.391600
vn 0.781600 -0.197900 0.591600
vn 0.725100 -0.415900 0.548900
vn 0.937700 -0.347000 0.018400
vn -0.321100 -0.197900 0.926100
vn -0.297900 -0.415900 0.859200
vn -0.980000 -0.197900 -0.019200
vn -0.909200 -0.415900 -0.017800
vn -0.473500 -0.125900 -0.871800
vn -0.747800 -0.347000 -0.566000
vn -0.319700 0.217500 0.922200
vn -0.975900 0.217500 -0.019100
vn 0.778300 0.217500 0.589000
vn 0.800700 0.217500 -0.558200
vn -0.283400 0.217500 -0.934000
vn -0.209700 0.768100 0.605000
vn -0.640200 0.768100 -0.012600
vn 0.510600 0.768100 0.386500
vn 0.525300 0.768100 -0.366200
vn -0.185900 0.768100 -0.612700
vn -0.282900 -0.125900 0.950900
vn -0.954900 -0.197900 0.221600
vn -0.885900 -0.415900 0.205500
vn -0.614500 -0.347000 0.708500
vn -0.505800 -0.197900 -0.839600
vn -0.469200 -0.415900 -0.779000
vn 0.642200 -0.197900 -0.740500
vn 0.595900 -0.415900 -0.687000
vn 0.972800 -0.125900 0.194500
vn 0.913600 -0.347000 -0.212000
vn -0.503600 0.217500 -0.836100
vn 0.639500 0.217500 -0.737400
vn -0.950800 0.217500 0.220600
vn -0.084000 0.217500 0.972400
vn 0.898900 0.217500 0.380400
vn -0.330400 0.768100 -0.548500
vn 0.419600 0.768100 -0.483700
vn -0.623800 0.768100 0.144700
vn -0.055100 0.768100 0.638000
vn 0.589700 0.768100 0.249500
vn 0.000000 0.132600 -0.991200
vn -0.991200 0.132600 0.000000
vn 0.000000 0.132500 0.991200
vn 0.991200 0.132500 0.000000
vn -0.298900 0.954300 0.000000
vn 0.321500 0.946900 0.000000
vn 0.000000 0.941100 -0.338100
vn 0.000000 0.951100 0.308900
vn 0.000000 -0.000000 1.000000
vn 1.000000 0.000000 -0.000000
# 124 normals

g dock_1
usemtl 01___Default
s 1
f 1/1/1 2/2/1 3/3/1
f 1/1/1 3/3/1 4/4/1
f 2/1/2 5/2/2 6/3/2
f 2/1/2 6/3/2 3/4/2
f 7/2/3 8/3/3 6/4/3
f 7/2/3 6/4/3 5/1/3
f 1/2/4 4/3/4 8/4/4
f 1/2/4 8/4/4 7/1/4
f 9/5/5 10/6/5 11/7/5
f 9/5/5 11/7/5 12/8/5
f 11/7/5 13/9/5 14/10/5
f 11/7/5 14/10/5 12/8/5
f 12/11/5 15/12/6 16/13/6
f 12/11/5 16/13/6 9/14/5
f 17/15/7 18/16/8 19/17/9
f 17/15/7 19/17/9 20/18/10
f 21/15/11 22/19/12 23/20/13
f 21/15/11 23/20/13 24/16/14
f 20/18/10 19/17/9 23/16/13
f 20/18/10 23/16/13 22/15/12
f 19/21/9 18/22/8 24/23/14
f 19/21/9 24/23/14 23/24/13
f 17/18/7 21/15/11 24/16/14
f 17/18/7 24/16/14 18/17/8
f 16/25/6 25/26/15 10/27/5
f 16/25/6 10/27/5 9/28/5
f 26/29/5 27/30/5 28/31/16
f 26/29/5 28/31/16 29/32/16
f 30/33/17 27/30/5 26/29/5
f 30/33/17 26/29/5 31/34/18
f 32/29/19 33/30/19 28/31/16
f 32/29/19 28/31/16 34/32/16
f 31/35/18 26/29/5 29/32/16
f 31/35/18 29/32/16 35/36/20
f 36/29/5 34/32/16 28/31/16
f 36/29/5 28/31/16 27/30/5
f 33/30/19 37/29/19 29/32/16
f 33/30/19 29/32/16 28/31/16
f 38/34/21 36/29/5 27/30/5
f 38/34/21 27/30/5 30/33/17
f 39/35/22 35/36/20 29/32/16
f 39/35/22 29/32/16 37/29/19
f 38/35/21 40/36/23 34/32/16
f 38/35/21 34/32/16 36/29/5
f 41/35/24 32/29/19 34/32/16
f 41/35/24 34/32/16 40/36/23
f 42/33/25 39/34/22 37/29/19
f 42/33/25 37/29/19 33/30/19
f 41/34/24 42/33/25 33/30/19
f 41/34/24 33/30/19 32/29/19
f 43/37/26 44/38/26 45/39/26
f 43/37/26 45/39/26 46/40/26
f 46/40/5 45/39/5 47/41/5
f 46/40/5 47/41/5 48/42/5
f 47/43/27 45/39/27 44/38/27
f 47/43/27 44/38/27 49/44/27
f 46/40/28 48/45/28 50/46/28
f 46/40/28 50/46/28 43/37/28
f 51/15/29 52/16/30 53/17/31
f 51/15/29 53/17/31 54/18/32
f 54/18/32 53/17/31 55/16/33
f 54/18/32 55/16/33 56/15/34
f 53/24/31 52/23/30 57/22/35
f 53/24/31 57/22/35 55/21/33
f 51/18/29 58/15/36 57/16/35
f 51/18/29 57/16/35 52/17/30
f 59/15/29 60/16/30 61/17/31
f 59/15/29 61/17/31 62/18/32
f 62/18/32 61/17/31 63/16/33
f 62/18/32 63/16/33 64/15/34
f 61/21/31 60/22/30 65/23/35
f 61/21/31 65/23/35 63/24/33
f 59/18/29 66/15/36 65/16/35
f 59/18/29 65/16/35 60/17/30
f 67/15/29 68/16/30 69/17/31
f 67/15/29 69/17/31 70/18/32
f 70/18/32 69/17/31 71/16/33
f 70/18/32 71/16/33 72/15/34
f 69/24/31 68/23/30 73/22/35
f 69/24/31 73/22/35 71/21/33
f 67/18/29 74/15/36 73/16/35
f 67/18/29 73/16/35 68/17/30
f 75/15/29 76/16/30 77/17/31
f 75/15/29 77/17/31 78/18/32
f 78/18/32 77/17/31 79/16/33
f 78/18/32 79/16/33 80/15/34
f 77/24/31 76/23/30 81/22/35
f 77/24/31 81/22/35 79/21/33
f 75/18/29 82/15/36 81/16/35
f 75/18/29 81/16/35 76/17/30
f 83/47/5 84/48/5 85/49/5
f 83/47/5 85/49/5 86/50/5
f 87/51/37 88/52/37 84/53/37
f 87/51/37 84/53/37 83/54/37
f 88/51/38 89/52/38 85/53/38
f 88/51/38 85/53/38 84/54/38
f 89/51/39 90/52/39 86/53/39
f 89/51/39 86/53/39 85/54/39
f 90/51/40 87/52/40 83/53/40
f 90/51/40 83/53/40 86/54/40
f 91/11/41 92/12/41 93/13/41
f 91/11/41 93/13/41 94/14/41
f 95/55/5 96/5/5 91/6/41
f 95/55/5 91/6/41 94/56/41
f 96/11/5 95/14/5 97/13/42
f 96/11/5 97/13/42 98/12/42
f 99/57/5 100/10/5 101/9/5
f 99/57/5 101/9/5 102/58/5
f 101/59/5 103/60/43 104/12/43
f 101/59/5 104/12/43 102/11/5
f 105/61/44 100/62/5 99/63/5
f 105/61/44 99/63/5 106/64/44
f 107/10/5 108/65/5 100/66/5
f 107/10/5 100/66/5 109/9/5
f 110/12/45 111/13/46 108/14/5
f 110/12/45 108/14/5 107/67/5
f 105/25/44 110/68/45 107/69/5
f 105/25/44 107/69/5 109/28/5
f 108/65/5 101/70/5 100/66/5
f 111/13/46 103/26/43 101/71/5
f 111/13/46 101/71/5 108/14/5
f 105/72/44 109/73/5 100/74/5
f 112/10/5 113/9/5 99/66/5
f 112/10/5 99/66/5 96/65/5
f 114/12/47 112/67/5 96/14/5
f 114/12/47 96/14/5 98/13/42
f 92/75/41 91/76/41 102/59/5
f 92/75/41 102/59/5 104/60/43
f 106/25/44 113/28/5 112/69/5
f 106/25/44 112/69/5 114/68/47
f 96/65/5 99/66/5 102/6/5
f 96/65/5 102/6/5 91/5/41
f 106/72/44 99/74/5 113/73/5
f 95/28/5 115/14/48 116/13/48
f 95/28/5 116/13/48 97/25/42
f 116/13/49 115/14/49 94/27/41
f 116/13/49 94/27/41 93/26/41
f 115/77/5 95/5/5 94/6/41
f 117/47/5 118/48/5 119/49/5
f 117/47/5 119/49/5 120/50/5
f 121/78/50 122/79/50 118/48/5
f 121/78/50 118/48/5 117/47/5
f 122/78/50 123/79/51 119/48/5
f 122/78/50 119/48/5 118/47/5
f 123/78/51 124/79/52 120/48/5
f 123/78/51 120/48/5 119/47/5
f 124/78/52 121/79/50 117/48/5
f 124/78/52 117/48/5 120/47/5
f 11/11/5 10/14/5 25/13/53
f 11/11/5 25/13/53 125/12/54
f 126/13/55 14/14/5 13/71/5
f 126/13/55 13/71/5 127/26/56
f 128/15/7 129/16/8 130/17/9
f 128/15/7 130/17/9 131/18/10
f 132/15/11 133/19/12 134/20/13
f 132/15/11 134/20/13 135/16/14
f 131/18/10 130/17/9 134/16/13
f 131/18/10 134/16/13 133/15/12
f 130/21/9 129/22/8 135/23/14
f 130/21/9 135/23/14 134/24/13
f 128/18/7 132/15/11 135/16/14
f 128/18/7 135/16/14 129/17/8
f 136/15/7 137/16/8 138/17/9
f 136/15/7 138/17/9 139/18/10
f 140/15/11 141/19/12 142/20/13
f 140/15/11 142/20/13 143/16/14
f 139/18/10 138/17/9 142/16/13
f 139/18/10 142/16/13 141/15/12
f 138/24/9 137/23/8 143/22/14
f 138/24/9 143/22/14 142/21/13
f 136/18/7 140/15/11 143/16/14
f 136/18/7 143/16/14 137/17/8
f 144/15/7 145/16/8 146/17/9
f 144/15/7 146/17/9 147/18/10
f 148/15/11 149/19/12 150/20/13
f 148/15/11 150/20/13 151/16/14
f 147/18/10 146/17/9 150/16/13
f 147/18/10 150/16/13 149/15/12
f 146/21/9 145/22/8 151/23/14
f 146/21/9 151/23/14 150/24/13
f 144/18/7 148/15/11 151/16/14
f 144/18/7 151/16/14 145/17/8
f 152/80/57 153/81/58 154/82/59
f 152/80/57 154/82/59 155/83/60
f 153/80/58 156/81/61 157/82/62
f 153/80/58 157/82/62 154/83/59
f 156/80/61 152/81/57 155/82/60
f 156/80/61 155/82/60 157/83/62
f 155/84/60 154/85/59 157/86/62
f 158/80/57 159/81/58 160/82/59
f 158/80/57 160/82/59 161/83/60
f 159/80/58 162/81/61 163/82/62
f 159/80/58 163/82/62 160/83/59
f 162/80/61 158/81/57 161/82/60
f 162/80/61 161/82/60 163/83/62
f 161/84/60 160/85/59 163/86/62
f 164/80/63 165/81/64 166/82/65
f 164/80/63 166/82/65 167/83/66
f 165/80/64 168/81/67 169/82/68
f 165/80/64 169/82/68 166/83/65
f 168/80/67 164/81/63 167/82/66
f 168/80/67 167/82/66 169/83/68
f 167/84/66 166/85/65 169/86/68
f 170/80/63 171/81/64 172/82/65
f 170/80/63 172/82/65 173/83/66
f 171/80/64 174/81/67 175/82/68
f 171/80/64 175/82/68 172/83/65
f 174/80/67 170/81/63 173/82/66
f 174/80/67 173/82/66 175/83/68
f 173/84/66 172/85/65 175/86/68
f 176/80/63 177/81/64 178/82/65
f 176/80/63 178/82/65 179/83/66
f 177/80/64 180/81/67 181/82/68
f 177/80/64 181/82/68 178/83/65
f 180/80/67 176/81/63 179/82/66
f 180/80/67 179/82/66 181/83/68
f 179/84/66 178/85/65 181/86/68
f 182/80/69 183/81/70 184/82/71
f 182/80/69 184/82/71 185/83/72
f 183/80/70 186/81/73 187/82/74
f 183/80/70 187/82/74 184/83/71
f 186/80/73 182/81/69 185/82/72
f 186/80/73 185/82/72 187/83/74
f 185/84/72 184/85/71 187/86/74
f 188/87/75 189/88/76 190/89/77
f 190/89/77 191/90/78 188/87/75
f 189/88/76 192/91/79 193/92/80
f 193/92/80 190/89/77 189/88/76
f 192/91/79 194/93/81 195/94/82
f 195/94/82 193/92/80 192/91/79
f 194/93/81 196/95/83 197/96/84
f 197/96/84 195/94/82 194/93/81
f 198/97/85 199/98/86 194/93/81
f 194/93/81 192/91/79 198/97/85
f 192/91/79 189/88/76 200/99/87
f 200/99/87 198/97/85 192/91/79
f 189/88/76 188/87/75 201/100/88
f 201/100/88 200/99/87 189/88/76
f 188/87/75 196/95/83 202/101/89
f 202/101/89 201/100/88 188/87/75
f 196/95/83 194/93/81 199/98/86
f 199/98/86 202/101/89 196/95/83
f 203/102/90 204/103/91 199/98/86
f 199/98/86 198/97/85 203/102/90
f 198/97/85 200/99/87 205/104/92
f 205/104/92 203/102/90 198/97/85
f 200/99/87 201/100/88 206/105/93
f 206/105/93 205/104/92 200/99/87
f 201/100/88 202/101/89 207/106/94
f 207/106/94 206/105/93 201/100/88
f 202/101/89 199/98/86 204/103/91
f 204/103/91 207/106/94 202/101/89
f 207/107/94 204/108/91 203/109/90
f 207/107/94 203/109/90 205/110/92
f 207/107/94 205/110/92 206/111/93
f 208/87/95 209/88/96 210/89/97
f 210/89/97 211/90/98 208/87/95
f 209/88/96 212/91/99 213/92/100
f 213/92/100 210/89/97 209/88/96
f 212/91/99 214/93/101 215/94/102
f 215/94/102 213/92/100 212/91/99
f 214/93/101 216/95/103 217/96/104
f 217/96/104 215/94/102 214/93/101
f 218/97/105 219/98/106 214/93/101
f 214/93/101 212/91/99 218/97/105
f 212/91/99 209/88/96 220/99/107
f 220/99/107 218/97/105 212/91/99
f 209/88/96 208/87/95 221/100/108
f 221/100/108 220/99/107 209/88/96
f 208/87/95 216/95/103 222/101/109
f 222/101/109 221/100/108 208/87/95
f 216/95/103 214/93/101 219/98/106
f 219/98/106 222/101/109 216/95/103
f 223/102/110 224/103/111 219/98/106
f 219/98/106 218/97/105 223/102/110
f 218/97/105 220/99/107 225/104/112
f 225/104/112 223/102/110 218/97/105
f 220/99/107 221/100/108 226/105/113
f 226/105/113 225/104/112 220/99/107
f 221/100/108 222/101/109 227/106/114
f 227/106/114 226/105/113 221/100/108
f 222/101/109 219/98/106 224/103/111
f 224/103/111 227/106/114 222/101/109
f 227/107/114 224/108/111 223/109/110
f 227/107/114 223/109/110 225/110/112
f 227/107/114 225/110/112 226/111/113
f 14/14/5 126/13/55 15/12/6
f 14/14/5 15/12/6 12/11/5
f 228/112/115 229/113/115 230/114/115
f 228/112/115 230/114/115 231/28/115
f 229/112/116 232/113/116 233/114/116
f 229/112/116 233/114/116 230/28/116
f 234/113/117 235/114/117 233/28/117
f 234/113/117 233/28/117 232/112/117
f 228/113/118 231/114/118 235/28/118
f 228/113/118 235/28/118 234/112/118
f 236/115/119 235/116/119 231/117/119
f 236/115/119 231/117/119 237/118/119
f 238/119/5 239/120/5 240/121/5
f 238/119/5 240/121/5 241/122/5
f 230/116/120 233/117/120 242/118/120
f 230/116/120 242/118/120 243/115/120
f 233/116/121 235/117/121 236/118/121
f 233/116/121 236/118/121 242/115/121
f 237/115/122 231/116/122 230/117/122
f 237/115/122 230/117/122 243/118/122
f 236/123/15 237/124/15 239/125/15
f 236/123/15 239/125/15 238/126/15
f 237/123/123 243/124/123 240/125/123
f 237/123/123 240/125/123 239/126/123
f 243/123/124 242/124/124 241/125/124
f 243/123/124 241/125/124 240/126/124
f 242/123/28 236/124/28 238/125/28
f 242/123/28 238/125/28 241/126/28
# 314 triangles in group

# 314 triangles total

