# Wavefront OBJ exported by MilkShape 3D

mtllib arrow.mtl

v -0.147300 0.000000 0.268300
v 0.147300 0.000000 0.268300
v 0.121400 0.474400 0.221200
v -0.121400 0.474400 0.221200
v -0.121400 0.474300 0.362100
v 0.121400 0.474300 0.362100
v 0.121400 0.985300 0.000000
v -0.121400 0.985300 0.000000
v 0.147300 0.000000 -0.000000
v 0.147300 0.000000 -0.268300
v 0.121400 0.474400 -0.221200
v 0.121400 0.474300 -0.362100
v -0.147300 0.000000 -0.268300
v -0.121400 0.474400 -0.221200
v -0.121400 0.474300 -0.362100
v -0.147300 0.000000 -0.000000
# 16 vertices

vt 0.875300 0.054500
vt 0.875300 0.171800
vt 0.151400 0.171800
vt 0.151400 0.054500
vt 0.884700 0.828100
vt 0.884700 0.943900
vt 0.486100 0.943900
vt 0.486100 0.828100
vt 0.140300 0.445200
vt 0.140300 0.636600
vt 0.895400 0.636600
vt 0.503900 0.445200
vt 0.140300 0.447600
vt 0.503900 0.447600
vt 0.503800 0.359800
vt 0.503800 0.362300
vt 0.087400 0.943900
vt 0.087400 0.828100
# 18 texture coordinates

vn 0.000000 0.098800 0.995100
vn 0.000000 0.578200 0.815900
vn 0.999200 0.027500 0.028700
vn 0.999200 0.027500 -0.028700
vn 1.000000 0.000000 0.000000
vn 0.000000 0.098800 -0.995100
vn 0.000000 0.578200 -0.815900
vn -0.999200 0.027500 -0.028700
vn -0.999200 0.027500 0.028700
vn -1.000000 0.000000 -0.000000
# 10 normals

g arrow
usemtl Material__0
s 1
f 1/1/1 2/2/1 3/3/1
f 1/1/1 3/3/1 4/4/1
f 5/5/2 6/6/2 7/7/2
f 5/5/2 7/7/2 8/8/2
f 2/9/3 9/10/3 7/11/3
f 2/9/3 7/11/3 3/12/3
f 9/10/4 10/13/4 11/14/4
f 9/10/4 11/14/4 7/11/4
f 3/12/5 7/11/5 6/15/5
f 7/11/5 11/14/5 12/16/5
f 10/1/6 13/2/6 14/3/6
f 10/1/6 14/3/6 11/4/6
f 12/17/7 15/18/7 8/8/7
f 12/17/7 8/8/7 7/7/7
f 13/13/8 16/10/8 8/11/8
f 13/13/8 8/11/8 14/14/8
f 16/10/9 1/9/9 4/12/9
f 16/10/9 4/12/9 8/11/9
f 14/14/10 8/11/10 15/16/10
f 8/11/10 4/12/10 5/15/10
# 20 triangles in group

# 20 triangles total

