# Wavefront OBJ exported by MilkShape 3D

mtllib boundary.mtl

v -0.500000 0.000000 0.500000
v -0.500000 0.000000 -0.500000
v -0.500000 -0.162900 -0.499800
v -0.500000 -0.162900 0.500200
v 0.500000 0.000000 -0.500000
v 0.500000 -0.162900 -0.499800
v 0.500000 0.000000 0.500000
v 0.500000 -0.162900 0.500200
# 8 vertices

vt 0.224400 0.730200
vt 0.231300 0.730200
vt 0.231300 0.732200
vt 0.224400 0.732200
vt 0.142000 0.730300
vt 0.231600 0.809000
vt 0.142000 0.809000
# 7 texture coordinates

vn -0.577400 0.577700 0.576900
vn -0.577300 0.577000 -0.577800
vn -0.707400 -0.001100 -0.706800
vn -0.706800 0.001100 0.707400
vn 0.577300 0.577000 -0.577800
vn 0.707400 -0.001100 -0.706800
vn 0.577400 0.577700 0.576900
vn 0.706800 0.001100 0.707400
# 8 normals

g boundary
usemtl Material03
s 1
f 1/1/1 2/2/2 3/3/3
f 3/3/3 4/4/4 1/1/1
f 2/1/2 5/2/5 6/3/6
f 6/3/6 3/4/3 2/1/2
f 5/1/5 7/2/7 8/3/8
f 8/3/8 6/4/6 5/1/5
f 7/1/7 1/2/1 4/3/4
f 4/3/4 8/4/8 7/1/7
f 1/5/1 7/2/7 5/6/5
f 5/6/5 2/7/2 1/5/1
# 10 triangles in group

# 10 triangles total

