# Wavefront OBJ exported by MilkShape 3D

mtllib brick13.mtl

v -0.840000 -0.000000 0.840000
v -0.000000 0.000000 1.187900
v -0.000000 0.473700 1.022700
v -0.723200 0.473700 0.723200
v 0.840000 0.000000 0.840000
v 0.723200 0.473700 0.723200
v -0.000000 0.714600 0.729800
v -0.515900 0.714600 0.515900
v 0.515900 0.714600 0.515900
v -0.840000 -0.000000 -0.840000
v -1.187900 -0.000000 -0.000000
v -1.022700 0.473700 -0.000000
v -0.723200 0.473700 -0.723200
v -0.729600 0.714600 -0.000000
v -0.515900 0.714600 -0.515900
v 0.840000 0.000000 -0.840000
v 0.000000 -0.000000 -1.187900
v 0.000000 0.473700 -1.022700
v 0.723200 0.473700 -0.723200
v -0.000000 0.714600 -0.729600
v 0.515900 0.714600 -0.515900
v 1.187900 0.000000 0.000000
v 1.022700 0.473700 0.000000
v 0.729600 0.714600 0.000000
v -0.000000 1.316700 -0.542600
v 0.207300 1.316700 -0.526400
v -0.197000 1.950400 -0.475600
v 0.062000 2.100400 -0.716600
v 0.526400 1.316700 -0.207300
v 0.462900 2.100400 -0.550600
v 0.542600 1.316700 0.000000
v 0.475600 1.950400 -0.197000
v 0.526400 1.316700 0.207300
v 0.716600 2.100400 0.062000
v 0.207300 1.316700 0.526400
v 0.550600 2.100400 0.462900
v -0.000000 1.316700 0.542600
v 0.197000 1.950400 0.475600
v -0.207300 1.316700 0.526400
v -0.062000 2.100400 0.716600
v -0.526400 1.316700 0.207300
v -0.462900 2.100400 0.550600
v -0.542600 1.316700 -0.000000
v -0.475600 1.950400 0.197000
v -0.526400 1.316700 -0.207300
v -0.716600 2.100400 -0.062000
v -0.207300 1.316700 -0.526400
v -0.550600 2.100400 -0.462900
v -0.584500 0.705400 -0.354000
v -0.654200 0.705300 -0.194200
v -0.717400 1.001700 0.000300
v -0.644900 1.036100 -0.107100
v -0.594400 1.255100 0.247500
v -0.559900 1.282600 0.179800
v -0.437500 1.456400 0.499900
v -0.459600 1.361000 0.588700
v -0.500800 1.396500 0.422500
v -0.648800 1.352600 0.509000
v -0.625400 1.303900 0.717200
v -0.636300 1.401200 0.103300
v -0.624100 1.254000 0.197000
v -0.527600 1.379400 0.276400
v -0.525700 1.571800 0.180200
v -0.333600 1.509100 0.453900
v -0.500700 1.457500 0.459700
v -0.434300 1.452000 0.623700
v -0.228500 1.511200 0.644200
v -0.679400 1.026300 -0.271900
v -0.680700 0.975700 -0.104500
v -0.572600 1.115000 -0.120300
v -0.553100 1.197100 -0.318200
v -0.156500 0.705400 0.675100
v -0.060900 0.830100 0.685300
v 0.097000 1.036100 0.646500
v 0.221500 1.001700 0.682300
v 0.418700 1.255100 0.489100
v 0.343600 1.282600 0.477200
v 0.610500 1.456400 0.262000
v 0.701700 1.361000 0.255700
v 0.556300 1.396500 0.346100
v 0.684200 1.352600 0.460300
v 0.875100 1.304000 0.373800
v 0.294400 1.401200 0.573400
v 0.379800 1.254000 0.533000
v 0.425600 1.379400 0.416700
v 0.333600 1.571900 0.444600
v 0.534700 1.509100 0.177400
v 0.591700 1.457500 0.334500
v 0.727300 1.452000 0.220800
v 0.683200 1.511200 0.018700
v -0.049200 1.026300 0.730100
v 0.110500 0.975700 0.679800
v 0.062100 1.115000 0.581800
v -0.132100 1.197100 0.624300
v 0.658600 0.705400 -0.202000
v 0.587900 0.714600 -0.365100
v 0.592700 0.830100 -0.289900
v 0.511400 1.036100 -0.407200
v 0.480100 1.001700 -0.533000
v 0.214200 1.255100 -0.607200
v 0.241400 1.282600 -0.536200
v -0.078300 1.456400 -0.659700
v -0.129400 1.361000 -0.735500
v 0.021600 1.396500 -0.654800
v 0.056500 1.352600 -0.822700
v -0.113800 1.304000 -0.944800
v 0.349400 1.401200 -0.541700
v 0.271700 1.254000 -0.595400
v 0.148100 1.379400 -0.576900
v 0.218200 1.571900 -0.511200
v -0.113700 1.509100 -0.551700
v -0.006200 1.457500 -0.679700
v -0.172400 1.452000 -0.740200
v -0.325400 1.511200 -0.601100
v 0.656900 1.026300 -0.322500
v 0.533500 0.975700 -0.435600
v 0.472800 1.115000 -0.344700
v 0.606700 1.197100 -0.197700
v -0.175500 3.755500 -1.158200
v -0.114800 3.620400 -1.380300
v 0.175500 3.755500 -1.158200
v 1.158200 3.755500 -0.175500
v 0.114800 3.620400 -1.380300
v 1.380300 3.620400 -0.114800
v 1.158200 3.755500 0.175500
v 0.175500 3.755500 1.158200
v 1.380300 3.620400 0.114800
v 0.114800 3.620400 1.380300
v -0.175500 3.755500 1.158200
v -1.158200 3.755500 0.175500
v -0.114800 3.620400 1.380300
v -1.380300 3.620400 0.114800
v -1.158200 3.755500 -0.175500
v -1.380300 3.620400 -0.114800
v -0.999600 3.829000 -0.885400
v -0.547200 3.656200 -1.165000
v -0.279600 3.223300 -0.999600
v -0.452400 2.943600 -0.547200
v -0.885400 3.109000 -0.279600
v -1.165000 3.561400 -0.452400
v -0.000000 2.770800 -0.267600
v -0.000000 2.770800 0.267600
v -0.452400 2.943600 0.547200
v -0.885400 3.109000 0.279600
v -0.279600 3.223300 0.999600
v -0.547200 3.656200 1.165000
v -0.999600 3.829000 0.885400
v -1.165000 3.561400 0.452400
v -0.267600 4.108600 1.337800
v 0.279600 3.223300 0.999600
v 0.547200 3.656200 1.165000
v 0.267600 4.108600 1.337800
v 0.452400 2.943600 -0.547200
v 0.885400 3.109000 -0.279600
v 0.885400 3.109000 0.279600
v 0.452400 2.943600 0.547200
v 1.165000 3.561400 0.452400
v 0.999600 3.829000 0.885400
v 0.279600 3.223300 -0.999600
v 0.547200 3.656200 -1.165000
v 0.999600 3.829000 -0.885400
v 1.165000 3.561400 -0.452400
v -0.267600 4.108600 -1.337800
v 0.267600 4.108600 -1.337800
v -1.337800 3.841100 -0.000000
v 1.337800 3.841100 0.000000
v -0.999600 4.388300 0.885400
v -1.165000 4.655800 0.452400
v -1.337800 4.376200 -0.000000
v -0.547200 4.561100 1.165000
v -0.279600 4.994000 0.999600
v -0.452400 5.273600 0.547200
v -0.885400 5.108300 0.279600
v -0.000000 5.446500 0.267600
v -0.000000 5.446500 -0.267600
v -0.452400 5.273600 -0.547200
v -0.885400 5.108300 -0.279600
v -0.279600 4.994000 -0.999600
v -0.547200 4.561100 -1.165000
v -0.999600 4.388300 -0.885400
v -1.165000 4.655800 -0.452400
v 0.547200 4.561100 1.165000
v 0.279600 4.994000 0.999600
v 0.999600 4.388300 0.885400
v 1.165000 4.655800 0.452400
v 0.885400 5.108300 0.279600
v 0.452400 5.273600 0.547200
v 1.337800 4.376200 0.000000
v 0.999600 4.388300 -0.885400
v 1.165000 4.655800 -0.452400
v 0.885400 5.108300 -0.279600
v 0.452400 5.273600 -0.547200
v 0.547200 4.561100 -1.165000
v 0.279600 4.994000 -0.999600
# 194 vertices

vt 0.156200 0.279000
vt 0.234100 0.279000
vt 0.234100 0.324400
vt 0.156200 0.324400
vt 0.309000 0.279000
vt 0.309000 0.324400
vt 0.226100 0.351200
vt 0.164100 0.351200
vt 0.301400 0.351200
vt 0.241700 0.351200
vt 0.002900 0.279000
vt 0.081100 0.279000
vt 0.081100 0.324400
vt 0.002900 0.324400
vt 0.071900 0.351200
vt 0.012100 0.351200
vt 0.146100 0.351200
vt 0.091300 0.351200
vt 0.042900 0.084700
vt 0.082800 0.084700
vt 0.077200 0.118400
vt 0.063300 0.118400
vt 0.086300 0.166300
vt 0.072500 0.167200
vt 0.019700 0.084700
vt 0.034700 0.118400
vt 0.045000 0.166300
vt 0.030200 0.118400
vt 0.031700 0.166300
vt 0.316500 0.386100
vt 0.316500 0.360100
vt 0.290900 0.360100
vt 0.290900 0.386100
vt 0.258600 0.360100
vt 0.258600 0.386100
vt 0.216300 0.373700
vt 0.182500 0.385800
vt 0.166500 0.373500
vt 0.182500 0.361300
vt 0.202300 0.373700
vt 0.306800 0.386100
vt 0.084800 0.269400
vt 0.078400 0.257400
vt 0.127800 0.241600
vt 0.102900 0.114300
vt 0.155500 0.114500
vt 0.067400 0.257400
vt 0.061900 0.269400
vt 0.051400 0.371600
vt 0.117500 0.371600
vt 0.149800 0.427900
vt 0.117200 0.484600
vt 0.050900 0.484600
vt 0.018700 0.427900
vt 0.193000 0.462700
vt 0.234300 0.462600
vt 0.247000 0.423200
vt 0.213500 0.399000
vt 0.180100 0.423400
# 59 texture coordinates

vn -0.667700 0.329200 0.667700
vn -0.000000 0.329200 0.944300
vn -0.000000 0.481800 0.876300
vn -0.619600 0.481800 0.619600
vn 0.667700 0.329200 0.667700
vn 0.619600 0.481800 0.619600
vn -0.254400 0.747100 0.614100
vn 0.254400 0.747100 0.614100
vn -0.667700 0.329200 -0.667700
vn -0.944300 0.329200 -0.000000
vn -0.876300 0.481800 -0.000000
vn -0.619600 0.481800 -0.619600
vn -0.614000 0.747200 -0.254300
vn -0.614000 0.747200 0.254300
vn 0.667700 0.329200 -0.667700
vn 0.000000 0.329200 -0.944300
vn 0.000000 0.481800 -0.876300
vn 0.619600 0.481800 -0.619600
vn 0.254300 0.747200 -0.614000
vn -0.254300 0.747200 -0.614000
vn 0.944300 0.329200 0.000000
vn 0.876300 0.481800 0.000000
vn 0.614000 0.747200 -0.254300
vn 0.789600 0.610000 -0.067300
vn 0.614000 0.747200 0.254300
vn 0.367800 0.275900 -0.888000
vn 0.077800 0.022500 -0.996700
vn -0.382600 -0.171300 -0.907900
vn 0.815700 0.252600 -0.520500
vn 0.547100 -0.203500 -0.811900
vn 0.952300 0.295800 -0.074400
vn 0.996300 0.080300 -0.029900
vn 0.888000 0.275900 0.367800
vn 0.996700 0.022500 0.077800
vn 0.907900 -0.171300 -0.382600
vn 0.520600 0.252700 0.815600
vn 0.811900 -0.203500 0.547100
vn 0.074400 0.296100 0.952300
vn 0.029900 0.080300 0.996300
vn -0.368100 0.276100 0.887900
vn -0.077800 0.022500 0.996700
vn 0.382600 -0.171300 0.907900
vn -0.815700 0.252600 0.520500
vn -0.547100 -0.203500 0.811900
vn -0.952300 0.295800 0.074400
vn -0.996300 0.080300 0.029900
vn -0.888000 0.275900 -0.367800
vn -0.996700 0.022500 -0.077800
vn -0.907900 -0.171300 0.382600
vn -0.520500 0.252600 -0.815700
vn -0.811900 -0.203500 -0.547100
vn -0.074400 0.295800 -0.952300
vn -0.029900 0.080300 -0.996300
vn -0.881100 0.143500 -0.450600
vn -0.763700 0.592200 -0.257100
vn -0.725600 0.681900 -0.092700
vn -0.143800 0.959900 0.240700
vn -0.798300 0.275400 0.535700
vn -0.287000 0.946400 0.148300
vn -0.767100 0.615800 0.180100
vn -0.334200 0.180500 0.925000
vn -0.009100 0.592200 0.805700
vn 0.135500 0.681900 0.718800
vn 0.273300 0.959900 0.062600
vn 0.755700 0.275400 0.594200
vn 0.229500 0.946400 0.227300
vn 0.407800 0.615800 0.674200
vn -0.169300 0.294800 0.940400
vn 0.901600 0.208900 -0.378800
vn 0.702300 0.592200 -0.395000
vn 0.554700 0.681900 -0.476800
vn -0.082400 0.959900 -0.268000
vn 0.136700 0.275400 -0.951600
vn 0.082100 0.946400 -0.312500
vn 0.380000 0.615800 -0.690300
vn 0.935000 0.182700 -0.304000
vn -0.790400 -0.261200 -0.554100
vn 0.684500 -0.250700 -0.684500
vn 0.233800 -0.395800 -0.888000
vn 0.000000 0.854400 -0.519600
vn 0.984500 0.126100 -0.122300
vn 0.554100 -0.261200 -0.790400
vn 0.684500 -0.250700 0.684500
vn 0.888000 -0.395800 0.233800
vn 0.519600 0.854400 0.000000
vn 0.122300 0.126100 0.984500
vn 0.790400 -0.261200 0.554100
vn -0.684500 -0.250700 0.684500
vn -0.233800 -0.395800 0.888000
vn -0.000000 0.854400 0.519600
vn -0.984500 0.126100 0.122300
vn -0.554100 -0.261200 0.790400
vn -0.684500 -0.250700 -0.684500
vn -0.888000 -0.395800 -0.233800
vn -0.519600 0.854400 -0.000000
vn -0.122300 0.126100 -0.984500
vn -0.577400 -0.577400 -0.577400
vn -0.356800 -0.934200 -0.000000
vn -0.577400 -0.577400 0.577400
vn -0.000000 -0.356800 0.934200
vn 0.356800 -0.934200 0.000000
vn 0.577400 -0.577400 0.577400
vn 0.577400 -0.577400 -0.577400
vn 0.000000 -0.356800 -0.934200
vn -0.850700 -0.525700 -0.000000
vn -0.000000 -0.850700 0.525700
vn 0.850700 -0.525700 0.000000
vn 0.000000 -0.850700 -0.525700
vn -0.934200 -0.000000 0.356800
vn -0.577400 0.577400 0.577400
vn -0.356800 0.934200 -0.000000
vn -0.577400 0.577400 -0.577400
vn -0.934200 -0.000000 -0.356800
vn -0.000000 0.356800 0.934200
vn 0.577400 0.577400 0.577400
vn 0.934200 0.000000 0.356800
vn 0.934200 0.000000 -0.356800
vn 0.356800 0.934200 0.000000
vn 0.577400 0.577400 -0.577400
vn 0.000000 0.356800 -0.934200
vn -0.850700 0.525700 -0.000000
vn -0.525700 -0.000000 0.850700
vn 0.525700 0.000000 0.850700
vn 0.850700 0.525700 0.000000
vn 0.525700 0.000000 -0.850700
vn 0.000000 0.850700 -0.525700
vn -0.525700 -0.000000 -0.850700
vn -0.000000 0.850700 0.525700
# 128 normals

g polySurface71
usemtl lambert6
s 1
f 1/1/1 2/2/2 3/3/3
f 1/1/1 3/3/3 4/4/4
f 2/2/2 5/5/5 6/6/6
f 2/2/2 6/6/6 3/3/3
f 4/4/4 3/3/3 7/7/7
f 4/4/4 7/7/7 8/8/7
f 3/3/3 6/6/6 9/9/8
f 3/3/3 9/9/8 7/10/8
f 10/11/9 11/12/10 12/13/11
f 10/11/9 12/13/11 13/14/12
f 11/12/10 1/1/1 4/4/4
f 11/12/10 4/4/4 12/13/11
f 13/14/12 12/13/11 14/15/13
f 13/14/12 14/15/13 15/16/13
f 12/13/11 4/4/4 8/17/14
f 12/13/11 8/17/14 14/18/14
f 16/1/15 17/2/16 18/3/17
f 16/1/15 18/3/17 19/4/18
f 17/2/16 10/5/9 13/6/12
f 17/2/16 13/6/12 18/3/17
f 19/4/18 18/3/17 20/7/19
f 19/4/18 20/7/19 21/8/19
f 18/3/17 13/6/12 15/9/20
f 18/3/17 15/9/20 20/10/20
f 22/12/21 16/1/15 19/4/18
f 22/12/21 19/4/18 23/13/22
f 23/13/22 19/4/18 21/17/23
f 23/13/22 21/17/23 24/18/24
f 5/11/5 22/12/21 23/13/22
f 5/11/5 23/13/22 6/14/6
f 6/14/6 23/13/22 24/15/24
f 6/14/6 24/15/24 9/16/25
f 21/19/26 20/20/26 25/21/26
f 21/19/27 25/21/27 26/22/27
f 25/21/28 27/23/28 28/24/28
f 25/21/28 28/24/28 26/22/28
f 24/25/29 21/19/29 26/22/29
f 24/25/29 26/22/29 29/26/29
f 29/26/30 26/22/30 28/24/30
f 29/26/30 28/24/30 30/27/30
f 31/28/31 24/25/31 29/26/31
f 32/29/32 31/28/32 29/26/32
f 32/29/32 29/26/32 30/27/32
f 9/19/33 24/20/33 31/21/33
f 9/19/34 31/21/34 33/22/34
f 31/21/35 32/23/35 34/24/35
f 31/21/35 34/24/35 33/22/35
f 7/25/36 9/19/36 33/22/36
f 7/25/36 33/22/36 35/26/36
f 35/26/37 33/22/37 34/24/37
f 35/26/37 34/24/37 36/27/37
f 37/28/38 7/25/38 35/26/38
f 38/29/39 37/28/39 35/26/39
f 38/29/39 35/26/39 36/27/39
f 8/19/40 7/20/40 37/21/40
f 8/19/41 37/21/41 39/22/41
f 37/21/42 38/23/42 40/24/42
f 37/21/42 40/24/42 39/22/42
f 14/25/43 8/19/43 39/22/43
f 14/25/43 39/22/43 41/26/43
f 41/26/44 39/22/44 40/24/44
f 41/26/44 40/24/44 42/27/44
f 43/28/45 14/25/45 41/26/45
f 44/29/46 43/28/46 41/26/46
f 44/29/46 41/26/46 42/27/46
f 15/19/47 14/20/47 43/21/47
f 15/19/48 43/21/48 45/22/48
f 43/21/49 44/23/49 46/24/49
f 43/21/49 46/24/49 45/22/49
f 20/25/50 15/19/50 45/22/50
f 20/25/50 45/22/50 47/26/50
f 47/26/51 45/22/51 46/24/51
f 47/26/51 46/24/51 48/27/51
f 25/28/52 20/25/52 47/26/52
f 27/29/53 25/28/53 47/26/53
f 27/29/53 47/26/53 48/27/53
f 49/30/54 50/31/54 51/32/54
f 49/30/54 51/32/54 52/33/54
f 52/33/55 51/32/55 53/34/55
f 52/33/55 53/34/55 54/35/55
f 54/35/56 53/34/56 55/36/56
f 56/37/57 57/38/57 58/39/57
f 58/39/57 59/40/57 56/37/57
f 60/37/58 61/38/58 62/39/58
f 62/39/58 63/40/58 60/37/58
f 64/37/59 65/38/59 66/39/59
f 66/39/59 67/40/59 64/37/59
f 68/37/60 69/38/60 70/39/60
f 70/39/60 71/40/60 68/37/60
f 72/30/61 7/31/61 73/41/61
f 74/33/62 75/32/62 76/34/62
f 74/33/62 76/34/62 77/35/62
f 77/35/63 76/34/63 78/36/63
f 79/37/64 80/38/64 81/39/64
f 81/39/64 82/40/64 79/37/64
f 83/37/65 84/38/65 85/39/65
f 85/39/65 86/40/65 83/37/65
f 87/37/66 88/38/66 89/39/66
f 89/39/66 90/40/66 87/37/66
f 91/37/67 92/38/67 93/39/67
f 93/39/67 94/40/67 91/37/67
f 73/41/68 7/31/68 75/32/68
f 73/41/68 75/32/68 74/33/68
f 95/30/69 96/31/69 97/41/69
f 98/33/70 99/32/70 100/34/70
f 98/33/70 100/34/70 101/35/70
f 101/35/71 100/34/71 102/36/71
f 103/37/72 104/38/72 105/39/72
f 105/39/72 106/40/72 103/37/72
f 107/37/73 108/38/73 109/39/73
f 109/39/73 110/40/73 107/37/73
f 111/37/74 112/38/74 113/39/74
f 113/39/74 114/40/74 111/37/74
f 115/37/75 116/38/75 117/39/75
f 117/39/75 118/40/75 115/37/75
f 97/41/76 96/31/76 99/32/76
f 97/41/76 99/32/76 98/33/76
f 27/23/77 119/42/77 120/43/77
f 27/23/77 120/43/77 28/24/77
f 32/44/78 121/45/78 122/46/78
f 30/27/79 28/24/79 120/43/79
f 30/27/79 120/43/79 123/47/79
f 119/42/80 121/48/80 123/47/80
f 119/42/80 123/47/80 120/43/80
f 121/48/81 32/29/81 30/27/81
f 121/48/81 30/27/81 123/47/81
f 32/23/82 122/42/82 124/43/82
f 32/23/82 124/43/82 34/24/82
f 38/44/83 125/45/83 126/46/83
f 36/27/84 34/24/84 124/43/84
f 36/27/84 124/43/84 127/47/84
f 122/42/85 125/48/85 127/47/85
f 122/42/85 127/47/85 124/43/85
f 125/48/86 38/29/86 36/27/86
f 125/48/86 36/27/86 127/47/86
f 38/23/87 126/42/87 128/43/87
f 38/23/87 128/43/87 40/24/87
f 44/44/88 129/45/88 130/46/88
f 42/27/89 40/24/89 128/43/89
f 42/27/89 128/43/89 131/47/89
f 126/42/90 129/48/90 131/47/90
f 126/42/90 131/47/90 128/43/90
f 129/48/91 44/29/91 42/27/91
f 129/48/91 42/27/91 131/47/91
f 44/23/92 130/42/92 132/43/92
f 44/23/92 132/43/92 46/24/92
f 27/44/93 133/45/93 119/46/93
f 48/27/94 46/24/94 132/43/94
f 48/27/94 132/43/94 134/47/94
f 130/42/95 133/48/95 134/47/95
f 130/42/95 134/47/95 132/43/95
f 133/48/96 27/29/96 48/27/96
f 133/48/96 48/27/96 134/47/96
f 135/49/97 136/50/97 137/51/97
f 135/49/97 137/51/97 138/52/97
f 135/49/97 138/52/97 139/53/97
f 135/49/97 139/53/97 140/54/97
f 138/49/98 141/50/98 142/51/98
f 138/49/98 142/51/98 143/52/98
f 138/49/98 143/52/98 144/53/98
f 138/49/98 144/53/98 139/54/98
f 143/49/99 145/50/99 146/51/99
f 143/49/99 146/51/99 147/52/99
f 143/49/99 147/52/99 148/53/99
f 143/49/99 148/53/99 144/54/99
f 149/49/100 146/50/100 145/51/100
f 149/49/100 145/51/100 150/52/100
f 149/49/100 150/52/100 151/53/100
f 149/49/100 151/53/100 152/54/100
f 141/49/101 153/50/101 154/51/101
f 141/49/101 154/51/101 155/52/101
f 141/49/101 155/52/101 156/53/101
f 141/49/101 156/53/101 142/54/101
f 155/49/102 157/50/102 158/51/102
f 155/49/102 158/51/102 151/52/102
f 155/49/102 151/52/102 150/53/102
f 155/49/102 150/53/102 156/54/102
f 153/49/103 159/50/103 160/51/103
f 153/49/103 160/51/103 161/52/103
f 153/49/103 161/52/103 162/53/103
f 153/49/103 162/53/103 154/54/103
f 159/49/104 137/50/104 136/51/104
f 159/49/104 136/51/104 163/52/104
f 159/49/104 163/52/104 164/53/104
f 159/49/104 164/53/104 160/54/104
f 140/55/105 139/56/105 144/57/105
f 140/55/105 144/57/105 148/58/105
f 140/55/105 148/58/105 165/59/105
f 143/55/106 142/56/106 156/57/106
f 143/55/106 156/57/106 150/58/106
f 143/55/106 150/58/106 145/59/106
f 155/55/107 154/56/107 162/57/107
f 155/55/107 162/57/107 166/58/107
f 155/55/107 166/58/107 157/59/107
f 137/55/108 159/56/108 153/57/108
f 137/55/108 153/57/108 141/58/108
f 137/55/108 141/58/108 138/59/108
f 165/49/109 148/50/109 147/51/109
f 165/49/109 147/51/109 167/52/109
f 165/49/109 167/52/109 168/53/109
f 165/49/109 168/53/109 169/54/109
f 167/49/110 170/50/110 171/51/110
f 167/49/110 171/51/110 172/52/110
f 167/49/110 172/52/110 173/53/110
f 167/49/110 173/53/110 168/54/110
f 172/49/111 174/50/111 175/51/111
f 172/49/111 175/51/111 176/52/111
f 172/49/111 176/52/111 177/53/111
f 172/49/111 177/53/111 173/54/111
f 176/49/112 178/50/112 179/51/112
f 176/49/112 179/51/112 180/52/112
f 176/49/112 180/52/112 181/53/112
f 176/49/112 181/53/112 177/54/112
f 180/49/113 135/50/113 140/51/113
f 180/49/113 140/51/113 165/52/113
f 180/49/113 165/52/113 169/53/113
f 180/49/113 169/53/113 181/54/113
f 170/49/114 149/50/114 152/51/114
f 170/49/114 152/51/114 182/52/114
f 170/49/114 182/52/114 183/53/114
f 170/49/114 183/53/114 171/54/114
f 182/49/115 184/50/115 185/51/115
f 182/49/115 185/51/115 186/52/115
f 182/49/115 186/52/115 187/53/115
f 182/49/115 187/53/115 183/54/115
f 184/49/116 158/50/116 157/51/116
f 184/49/116 157/51/116 166/52/116
f 184/49/116 166/52/116 188/53/116
f 184/49/116 188/53/116 185/54/116
f 161/49/117 189/50/117 190/51/117
f 161/49/117 190/51/117 188/52/117
f 161/49/117 188/52/117 166/53/117
f 161/49/117 166/53/117 162/54/117
f 186/49/118 191/50/118 192/51/118
f 186/49/118 192/51/118 175/52/118
f 186/49/118 175/52/118 174/53/118
f 186/49/118 174/53/118 187/54/118
f 191/49/119 190/50/119 189/51/119
f 191/49/119 189/51/119 193/52/119
f 191/49/119 193/52/119 194/53/119
f 191/49/119 194/53/119 192/54/119
f 163/49/120 179/50/120 178/51/120
f 163/49/120 178/51/120 194/52/120
f 163/49/120 194/52/120 193/53/120
f 163/49/120 193/53/120 164/54/120
f 168/55/121 173/56/121 177/57/121
f 168/55/121 177/57/121 181/58/121
f 168/55/121 181/58/121 169/59/121
f 147/55/122 146/56/122 149/57/122
f 147/55/122 149/57/122 170/58/122
f 147/55/122 170/58/122 167/59/122
f 151/55/123 158/56/123 184/57/123
f 151/55/123 184/57/123 182/58/123
f 151/55/123 182/58/123 152/59/123
f 188/55/124 190/56/124 191/57/124
f 188/55/124 191/57/124 186/58/124
f 188/55/124 186/58/124 185/59/124
f 161/55/125 160/56/125 164/57/125
f 161/55/125 164/57/125 193/58/125
f 161/55/125 193/58/125 189/59/125
f 194/55/126 178/56/126 176/57/126
f 194/55/126 176/57/126 175/58/126
f 194/55/126 175/58/126 192/59/126
f 163/55/127 136/56/127 135/57/127
f 163/55/127 135/57/127 180/58/127
f 163/55/127 180/58/127 179/59/127
f 172/55/128 171/56/128 183/57/128
f 172/55/128 183/57/128 187/58/128
f 172/55/128 187/58/128 174/59/128
# 269 triangles in group

# 269 triangles total

