# Wavefront OBJ exported by MilkShape 3D

mtllib brick2.mtl

v 0.402000 1.448300 0.190300
v 0.421500 2.174300 0.318500
v 0.701400 2.174300 0.428000
v 0.802700 1.448300 0.347000
v 0.351400 0.618600 -0.142900
v 1.065900 0.618600 0.136500
v 0.409800 0.022200 0.241600
v 0.762200 0.022200 0.379400
v 0.066100 1.448300 0.459000
v 0.186800 2.174300 0.506200
v -0.247900 0.618600 0.336200
v 0.114300 0.022200 0.477800
v 0.130700 1.448300 0.884200
v 0.231900 2.174300 0.803300
v -0.132600 0.618600 1.094700
v 0.171200 0.022200 0.851900
v 0.531300 1.448300 1.040900
v 0.511800 2.174300 0.912700
v 0.581900 0.618600 1.374200
v 0.523500 0.022200 0.989600
v 0.867300 1.448300 0.772300
v 0.746600 2.174300 0.725100
v 1.181200 0.618600 0.895100
v 0.819000 0.022200 0.753400
v 0.115200 0.028700 -0.848100
v -0.173200 0.028700 -0.698900
v -0.370900 0.361200 -0.825500
v 0.126100 0.361200 -1.082600
v -0.387300 0.771900 -0.836100
v 0.127000 0.771900 -1.102100
v -0.090900 0.987100 -0.646200
v 0.110700 0.987100 -0.750400
v -0.140300 1.613000 -0.677800
v 0.113400 1.613000 -0.809000
v -0.396700 0.361200 -0.266700
v -0.188300 0.028700 -0.374500
v -0.414100 0.771900 -0.257700
v -0.101400 0.987100 -0.419400
v -0.153500 1.613000 -0.392500
v 0.074300 0.361200 0.035200
v 0.085200 0.028700 -0.199300
v 0.073400 0.771900 0.054700
v 0.089700 0.987100 -0.297000
v 0.087000 1.613000 -0.238400
v 0.571300 0.361200 -0.221900
v 0.373700 0.028700 -0.348500
v 0.587800 0.771900 -0.211300
v 0.291300 0.987100 -0.401300
v 0.340700 1.613000 -0.369600
v 0.388700 0.028700 -0.672900
v 0.597100 0.361200 -0.780700
v 0.614500 0.771900 -0.789700
v 0.301800 0.987100 -0.628000
v 0.353900 1.613000 -0.654900
# 54 vertices

vt 0.411400 0.444600
vt 0.411400 0.456700
vt 0.394100 0.456800
vt 0.394100 0.444600
vt 0.411500 0.429300
vt 0.394000 0.429300
vt 0.411400 0.418300
vt 0.394100 0.418300
vt 0.332600 0.391300
vt 0.346000 0.391300
vt 0.325800 0.403100
vt 0.346000 0.415000
vt 0.352700 0.403100
vt 0.332600 0.415000
vt 0.377400 0.418300
vt 0.387000 0.418300
vt 0.390500 0.426500
vt 0.374000 0.426500
vt 0.390800 0.437000
vt 0.373700 0.437000
vt 0.385600 0.442800
vt 0.378900 0.442800
vt 0.386500 0.456700
vt 0.378000 0.456700
vt 0.363100 0.389900
vt 0.376600 0.389900
vt 0.356400 0.402000
vt 0.363100 0.414100
vt 0.376600 0.414100
vt 0.383300 0.402000
# 30 texture coordinates

vn -0.143900 0.286900 -0.947100
vn -0.147900 0.175800 -0.973300
vn 0.768900 0.175800 -0.614700
vn 0.748200 0.286900 -0.598200
vn -0.149700 -0.084300 -0.985100
vn 0.778300 -0.084300 -0.622200
vn -0.125800 -0.546300 -0.828100
vn 0.654200 -0.546300 -0.523000
vn -0.892200 0.286900 -0.348900
vn -0.916800 0.175800 -0.358600
vn -0.928000 -0.084300 -0.362900
vn -0.780100 -0.546300 -0.305100
vn -0.748200 0.286900 0.598200
vn -0.768900 0.175800 0.614700
vn -0.778300 -0.084300 0.622200
vn -0.654200 -0.546300 0.523000
vn 0.143900 0.286900 0.947100
vn 0.147900 0.175800 0.973300
vn 0.149700 -0.084300 0.985100
vn 0.125800 -0.546300 0.828100
vn 0.892200 0.286900 0.348900
vn 0.916800 0.175800 0.358500
vn 0.928000 -0.084300 0.362900
vn 0.780100 -0.546300 0.305100
vn 0.000000 1.000000 0.000000
vn 0.037800 -0.576700 -0.816100
vn -0.687900 -0.576700 -0.440800
vn -0.803100 -0.300600 -0.514500
vn 0.044100 -0.300500 -0.952700
vn -0.767300 0.411700 -0.491700
vn 0.042100 0.411700 -0.910400
vn -0.712400 0.533100 -0.456400
vn 0.039100 0.533100 -0.845100
vn -0.838300 -0.093300 -0.537100
vn 0.046000 -0.093300 -0.994600
vn -0.847100 -0.300500 0.438200
vn -0.725600 -0.576700 0.375300
vn -0.809500 0.411700 0.418700
vn -0.751500 0.533100 0.388700
vn -0.884300 -0.093300 0.457400
vn -0.044100 -0.300500 0.952700
vn -0.037800 -0.576700 0.816100
vn -0.042100 0.411700 0.910400
vn -0.039100 0.533100 0.845100
vn -0.046000 -0.093300 0.994600
vn 0.803100 -0.300500 0.514600
vn 0.687900 -0.576700 0.440800
vn 0.767300 0.411700 0.491700
vn 0.712400 0.533100 0.456400
vn 0.838300 -0.093300 0.537100
vn 0.725600 -0.576700 -0.375300
vn 0.847100 -0.300500 -0.438200
vn 0.809500 0.411700 -0.418700
vn 0.751500 0.533100 -0.388700
vn 0.884300 -0.093300 -0.457400
# 55 normals

g brick2
usemtl Material06
s 1
f 1/1/1 2/2/2 3/3/3
f 3/3/3 4/4/4 1/1/1
f 5/5/5 1/1/1 4/4/4
f 4/4/4 6/6/6 5/5/5
f 7/7/7 5/5/5 6/6/6
f 6/6/6 8/8/8 7/7/7
f 2/3/2 1/4/1 9/1/9
f 2/3/2 9/1/9 10/2/10
f 1/4/1 5/6/5 11/5/11
f 1/4/1 11/5/11 9/1/9
f 5/6/5 7/8/7 12/7/12
f 5/6/5 12/7/12 11/5/11
f 10/3/10 9/4/9 13/1/13
f 10/3/10 13/1/13 14/2/14
f 9/4/9 11/6/11 15/5/15
f 9/4/9 15/5/15 13/1/13
f 11/6/11 12/8/12 16/7/16
f 11/6/11 16/7/16 15/5/15
f 14/3/14 13/4/13 17/1/17
f 14/3/14 17/1/17 18/2/18
f 13/4/13 15/6/15 19/5/19
f 13/4/13 19/5/19 17/1/17
f 15/6/15 16/8/16 20/7/20
f 15/6/15 20/7/20 19/5/19
f 18/2/18 17/1/17 21/4/21
f 18/2/18 21/4/21 22/3/22
f 17/1/17 19/5/19 23/6/23
f 17/1/17 23/6/23 21/4/21
f 19/5/19 20/7/20 24/8/24
f 19/5/19 24/8/24 23/6/23
f 18/9/25 22/10/25 14/11/25
f 2/12/25 22/10/25 3/13/25
f 14/11/25 22/10/25 10/14/25
f 10/14/25 22/10/25 2/12/25
f 22/2/22 21/1/21 4/4/4
f 22/2/22 4/4/4 3/3/3
f 21/1/21 23/5/23 6/6/6
f 21/1/21 6/6/6 4/4/4
f 23/5/23 24/7/24 8/8/8
f 23/5/23 8/8/8 6/6/6
f 25/15/26 26/16/27 27/17/28
f 27/17/28 28/18/29 25/15/26
f 28/18/29 27/17/28 29/19/30
f 29/19/30 30/20/31 28/18/29
f 30/20/31 29/19/30 31/21/32
f 31/21/32 32/22/33 30/20/31
f 32/22/33 31/21/32 33/23/34
f 33/23/34 34/24/35 32/22/33
f 26/16/27 35/18/36 27/17/28
f 26/16/27 36/15/37 35/18/36
f 27/17/28 37/20/38 29/19/30
f 27/17/28 35/18/36 37/20/38
f 29/19/30 38/22/39 31/21/32
f 29/19/30 37/20/38 38/22/39
f 31/21/32 39/24/40 33/23/34
f 31/21/32 38/22/39 39/24/40
f 36/15/37 40/17/41 35/18/36
f 36/15/37 41/16/42 40/17/41
f 35/18/36 42/19/43 37/20/38
f 35/18/36 40/17/41 42/19/43
f 37/20/38 43/21/44 38/22/39
f 37/20/38 42/19/43 43/21/44
f 38/22/39 44/23/45 39/24/40
f 38/22/39 43/21/44 44/23/45
f 41/15/42 45/17/46 40/18/41
f 41/15/42 46/16/47 45/17/46
f 40/18/41 47/19/48 42/20/43
f 40/18/41 45/17/46 47/19/48
f 42/20/43 48/21/49 43/22/44
f 42/20/43 47/19/48 48/21/49
f 43/22/44 49/23/50 44/24/45
f 43/22/44 48/21/49 49/23/50
f 50/15/51 28/17/29 51/18/52
f 50/15/51 25/16/26 28/17/29
f 51/18/52 30/19/31 52/20/53
f 51/18/52 28/17/29 30/19/31
f 52/20/53 32/21/33 53/22/54
f 52/20/53 30/19/31 32/21/33
f 53/22/54 34/23/35 54/24/55
f 53/22/54 32/21/33 34/23/35
f 49/25/25 54/26/25 44/27/25
f 44/27/25 54/26/25 39/28/25
f 39/28/25 54/26/25 33/29/25
f 33/29/25 54/26/25 34/30/25
f 46/15/47 51/17/52 45/18/46
f 46/15/47 50/16/51 51/17/52
f 45/18/46 52/19/53 47/20/48
f 45/18/46 51/17/52 52/19/53
f 47/20/48 53/21/54 48/22/49
f 47/20/48 52/19/53 53/21/54
f 48/22/49 54/23/55 49/24/50
f 48/22/49 53/21/54 54/23/55
# 92 triangles in group

# 92 triangles total

