# Wavefront OBJ exported by MilkShape 3D

mtllib brick7.mtl

v 0.000000 2.299000 1.431400
v 0.871800 2.330500 1.071700
v 0.921000 2.405600 1.127600
v 0.000000 2.372400 1.507700
v 0.000000 1.483700 1.360100
v 0.871800 1.515200 1.000300
v 0.871800 2.460600 1.083100
v 0.000000 2.429100 1.442800
v -0.871800 2.330500 1.071700
v -0.921000 2.405600 1.127600
v -0.871800 1.515200 1.000300
v -0.871800 2.460600 1.083100
v -1.232900 2.406400 0.203200
v -1.302500 2.485900 0.210100
v -1.232900 1.591100 0.131900
v -1.232900 2.536600 0.214600
v -0.871800 2.482400 -0.665300
v -0.921000 2.566200 -0.707300
v -0.871800 1.667100 -0.736600
v -0.871800 2.612600 -0.653900
v 0.000000 2.513900 -1.025100
v 0.000000 2.599400 -1.087400
v 0.000000 1.698600 -1.096400
v 0.000000 2.644000 -1.013700
v 1.232900 2.406400 0.203200
v 1.302500 2.485900 0.210100
v 1.232900 1.591100 0.131900
v 1.232900 2.536600 0.214600
v 0.871800 2.482400 -0.665300
v 0.921000 2.566200 -0.707300
v 0.871800 1.667100 -0.736600
v 0.871800 2.612600 -0.653900
v 0.000000 3.246800 1.514300
v 0.871800 3.278300 1.154600
v 0.921000 3.353400 1.210500
v 0.000000 3.320200 1.590600
v 0.871800 3.406300 1.165800
v 0.000000 3.374800 1.525500
v -0.871800 3.278300 1.154600
v -0.921000 3.353400 1.210500
v -0.871800 3.406300 1.165800
v -1.232900 3.354200 0.286100
v -1.302500 3.433700 0.293100
v -1.232900 3.482300 0.297300
v -0.871800 3.430200 -0.582400
v -0.921000 3.514000 -0.624400
v -0.871800 3.558200 -0.571200
v 0.000000 3.461700 -0.942100
v 0.000000 3.547200 -1.004500
v 0.000000 3.589700 -0.930900
v 1.232900 3.354200 0.286100
v 1.302500 3.433700 0.293100
v 1.232900 3.482300 0.297300
v 0.871800 3.430200 -0.582400
v 0.921000 3.514000 -0.624400
v 0.871800 3.558200 -0.571200
v 0.000000 4.190400 1.596900
v 0.871800 4.221800 1.237200
v 0.921000 4.297000 1.293100
v 0.000000 4.263800 1.673100
v 0.871800 4.352000 1.248500
v 0.000000 4.320500 1.608300
v -0.871800 4.221800 1.237200
v -0.921000 4.297000 1.293100
v -0.871800 4.352000 1.248500
v -1.232900 4.297800 0.368700
v -1.302500 4.377300 0.375600
v -1.232900 4.427900 0.380000
v -0.871800 4.373800 -0.499800
v -0.921000 4.457600 -0.541900
v -0.871800 4.503900 -0.488500
v 0.000000 4.405300 -0.859600
v 0.000000 4.490800 -0.921900
v 0.000000 4.535400 -0.848200
v 1.232900 4.297800 0.368700
v 1.302500 4.377300 0.375600
v 1.232900 4.427900 0.380000
v 0.871800 4.373800 -0.499800
v 0.921000 4.457600 -0.541900
v 0.871800 4.503900 -0.488400
v 0.000000 5.138100 1.679800
v 0.871800 5.169600 1.320100
v 0.921000 5.244800 1.376000
v 0.000000 5.211600 1.756100
v 0.871800 5.298900 1.331400
v 0.000000 5.267400 1.691100
v -0.871800 5.169600 1.320100
v -0.921000 5.244800 1.376000
v -0.871800 5.298900 1.331400
v -1.232900 5.245600 0.451600
v -1.302500 5.325100 0.458500
v -1.232900 5.374900 0.462900
v -0.871800 5.321600 -0.416900
v -0.921000 5.405400 -0.459000
v -0.871800 5.450900 -0.405600
v 0.000000 5.353100 -0.776700
v 0.000000 5.438600 -0.839000
v 0.000000 5.482300 -0.765300
v 1.232900 5.245600 0.451600
v 1.302500 5.325100 0.458500
v 1.232900 5.374900 0.462900
v 0.871800 5.321600 -0.416900
v 0.921000 5.405400 -0.459000
v 0.871800 5.450900 -0.405600
v 0.000000 1.362900 1.409400
v 0.914000 1.395900 1.032300
v 0.921000 1.461700 1.045000
v 0.000000 1.428500 1.425100
v 0.000000 -0.093000 1.282000
v 0.914000 -0.060000 0.904900
v -0.914000 1.395900 1.032300
v -0.921000 1.461700 1.045000
v -0.914000 -0.060000 0.904900
v -1.292600 1.475600 0.121700
v -1.302500 1.542000 0.127600
v -1.292600 0.019700 -0.005600
v -0.914000 1.555200 -0.788800
v -0.921000 1.622300 -0.789900
v -0.914000 0.099300 -0.916100
v 0.000000 1.588200 -1.165900
v 0.000000 1.655500 -1.170000
v 0.000000 0.132300 -1.293300
v 1.292600 1.475600 0.121700
v 1.302500 1.542000 0.127600
v 1.292600 0.019700 -0.005600
v 0.914000 1.555200 -0.788800
v 0.921000 1.622300 -0.789900
v 0.914000 0.099300 -0.916100
v 0.000000 6.366200 1.385900
v 0.589100 6.387500 1.142800
v 0.652400 6.439000 1.210900
v 0.000000 6.415500 1.480100
v -0.000000 5.291300 1.291900
v 0.589100 5.312600 1.048800
v 0.651200 6.493400 1.214400
v -0.000000 6.469900 1.483100
v -0.589100 6.387500 1.142800
v -0.652400 6.439000 1.210900
v -0.589100 5.312600 1.048800
v -0.651200 6.493400 1.214400
v -0.833100 6.438800 0.556000
v -0.922700 6.495900 0.561000
v -0.833100 5.363900 0.461900
v -0.920900 6.550200 0.565700
v -0.589100 6.490200 -0.030900
v -0.652400 6.552700 -0.089000
v -0.589100 5.415300 -0.124900
v -0.651200 6.606900 -0.083000
v 0.000000 6.511400 -0.274000
v 0.000000 6.576300 -0.358200
v 0.000000 5.436600 -0.368000
v 0.000000 6.630400 -0.351700
v 0.833100 6.438800 0.556000
v 0.922700 6.495900 0.561000
v 0.833100 5.363900 0.461900
v 0.920900 6.550200 0.565700
v 0.589100 6.490200 -0.030900
v 0.652400 6.552700 -0.089000
v 0.589100 5.415300 -0.124900
v 0.651200 6.606900 -0.083000
v 0.000000 -0.112400 1.330500
v 0.949400 -0.078100 0.938800
v -0.949400 -0.078100 0.938800
v -1.342600 0.004600 -0.006900
v -0.949400 0.087400 -0.952700
v 0.000000 0.121700 -1.344400
v 1.342600 0.004600 -0.006900
v 0.949400 0.087400 -0.952700
v 0.000000 -0.223200 1.320800
v 0.949400 -0.188900 0.929100
v -0.949400 -0.188900 0.929100
v -1.342600 -0.106200 -0.016600
v -0.949400 -0.023500 -0.962400
v 0.000000 0.010800 -1.354100
v 1.342600 -0.106200 -0.016600
v 0.949400 -0.023500 -0.962400
v 1.675800 -0.001000 1.550800
v 1.868300 -0.001000 1.075300
v 1.571900 0.282900 0.962100
v 1.466700 0.445800 1.291600
v 1.689300 -0.001000 0.683900
v 1.069000 -0.001000 0.766800
v 1.276100 0.386900 0.899800
v 1.224800 -0.001000 1.787300
v 0.968100 -0.001000 1.670400
v 0.792000 -0.001000 1.320400
v 1.052600 0.553300 1.361200
v 1.107000 0.552400 1.541900
v 1.341100 0.551600 1.542400
v 1.093200 0.451800 1.228200
v -1.262100 0.000200 -0.630700
v -1.541300 0.000200 -0.767000
v -1.497900 0.316600 -0.638800
v -1.347200 0.316600 -0.560300
v -1.813800 0.000200 -0.502000
v -1.648700 0.247900 -0.492200
v -1.483900 0.000200 -0.131400
v -1.176400 0.000200 -0.332200
v -1.296000 0.269900 -0.398200
v -1.465900 0.247900 -0.292000
v -0.471400 0.001000 -1.779100
v -0.830500 0.001000 -1.961900
v -0.878900 0.289200 -1.781300
v -0.652000 0.289200 -1.730700
v -1.305500 0.000400 -1.769000
v -1.222300 0.152600 -1.685800
v -1.388400 0.000400 -1.459700
v -1.274800 0.152600 -1.490100
v -1.081500 0.001000 -1.088200
v -1.033100 0.237800 -1.268800
v -0.520800 0.001000 -1.292600
v -0.653100 0.289200 -1.424800
v -0.413300 0.001000 -1.511500
v -0.569700 0.289200 -1.553400
# 214 vertices

vt 0.691300 0.546300
vt 0.691300 0.435900
vt 0.701900 0.435900
vt 0.701900 0.546400
vt 0.560300 0.546300
vt 0.560300 0.435900
vt 0.709900 0.435900
vt 0.709900 0.546300
vt 0.723000 0.480400
vt 0.717100 0.465700
vt 0.723000 0.451100
vt 0.737200 0.445000
vt 0.751400 0.451100
vt 0.757300 0.465700
vt 0.751400 0.480400
vt 0.737200 0.486500
vt 0.547300 0.717200
vt 0.645000 0.717200
vt 0.645000 0.721200
vt 0.547200 0.721200
vt 0.547300 0.552200
vt 0.645000 0.552200
vt 0.535600 0.716000
vt 0.535600 0.671500
vt 0.538800 0.671500
vt 0.538800 0.716000
vt 0.458200 0.716000
vt 0.458200 0.671500
vt 0.541200 0.671500
vt 0.541200 0.716000
vt 0.535600 0.626900
vt 0.538800 0.626900
vt 0.458200 0.626900
vt 0.541200 0.626900
vt 0.720000 0.482400
vt 0.712800 0.465000
vt 0.720000 0.447500
vt 0.737400 0.440300
vt 0.754800 0.447500
vt 0.762100 0.465000
vt 0.754800 0.482400
vt 0.737400 0.489600
vt 0.518200 0.618200
vt 0.518200 0.540600
vt 0.523800 0.540600
vt 0.523800 0.618200
vt 0.503900 0.618200
vt 0.503900 0.540600
vt 0.564100 0.777400
vt 0.527800 0.775000
vt 0.533500 0.759100
vt 0.551900 0.763800
vt 0.511400 0.754800
vt 0.538100 0.725300
vt 0.531300 0.739300
vt 0.591700 0.762000
vt 0.594000 0.745500
vt 0.575200 0.725600
vt 0.566200 0.741200
vt 0.571100 0.748000
vt 0.570000 0.757000
vt 0.550500 0.736200
vt 0.544400 0.777300
vt 0.512000 0.765300
vt 0.530500 0.756500
vt 0.548700 0.762600
vt 0.513300 0.725700
vt 0.536800 0.737100
vt 0.589900 0.728700
vt 0.592100 0.769000
vt 0.570600 0.762300
vt 0.570900 0.742000
vt 0.594100 0.754000
vt 0.582100 0.773800
vt 0.575700 0.754200
vt 0.531400 0.776100
vt 0.543900 0.764700
vt 0.512200 0.751600
vt 0.527300 0.751000
vt 0.531400 0.735200
vt 0.573800 0.725200
vt 0.563400 0.738100
vt 0.592400 0.726600
vt 0.576000 0.742500
# 84 texture coordinates

vn -0.000000 -0.461700 0.887100
vn 0.653300 -0.438100 0.617500
vn 0.703900 0.033600 0.709500
vn 0.000000 0.008200 1.000000
vn -0.000000 0.435000 0.900400
vn 0.607500 0.457000 0.649800
vn 0.610700 0.449000 0.652300
vn 0.000000 0.427000 0.904300
vn -0.653300 -0.438100 0.617500
vn -0.703900 0.033600 0.709500
vn -0.607500 0.457000 0.649800
vn -0.610700 0.449000 0.652300
vn -0.923900 -0.381100 -0.033300
vn -0.995400 0.094900 0.008300
vn -0.859100 0.509900 0.044600
vn -0.863600 0.502300 0.043900
vn -0.653300 -0.324200 -0.684200
vn -0.703900 0.156300 -0.692900
vn -0.607500 0.562900 -0.560500
vn -0.610700 0.555500 -0.564400
vn -0.000000 -0.300600 -0.953700
vn 0.000000 0.181700 -0.983400
vn 0.000000 0.584800 -0.811200
vn 0.000000 0.577500 -0.816400
vn 0.923900 -0.381100 -0.033300
vn 0.995400 0.094900 0.008300
vn 0.859100 0.509900 0.044600
vn 0.863600 0.502200 0.043900
vn 0.653300 -0.324200 -0.684200
vn 0.703900 0.156300 -0.692900
vn 0.607500 0.562900 -0.560500
vn 0.610700 0.555500 -0.564400
vn 0.703300 0.042100 0.709700
vn 0.000000 0.016700 0.999900
vn 0.606100 0.460200 0.648700
vn 0.000000 0.438300 0.898800
vn -0.703300 0.042100 0.709700
vn -0.606100 0.460200 0.648700
vn -0.994600 0.103400 0.009000
vn -0.857200 0.513000 0.044900
vn -0.703300 0.164700 -0.691600
vn -0.606100 0.565800 -0.558900
vn 0.000000 0.190000 -0.981800
vn 0.000000 0.587700 -0.809100
vn 0.994600 0.103400 0.009000
vn 0.857200 0.513000 0.044900
vn 0.703300 0.164700 -0.691600
vn 0.606100 0.565900 -0.558900
vn 0.703700 0.037000 0.709600
vn -0.000000 0.011600 0.999900
vn 0.412700 0.773000 0.481900
vn 0.000000 0.758100 0.652200
vn -0.703700 0.037000 0.709600
vn -0.412700 0.773000 0.481900
vn -0.995100 0.098300 0.008600
vn -0.583600 0.808900 0.070800
vn -0.703700 0.159600 -0.692400
vn -0.412700 0.844900 -0.340400
vn 0.000000 0.185100 -0.982700
vn 0.000000 0.859800 -0.510600
vn 0.995100 0.098300 0.008600
vn 0.583600 0.808900 0.070800
vn 0.703700 0.159600 -0.692400
vn 0.412700 0.844900 -0.340400
vn 0.000000 0.996200 0.087200
vn 0.000000 -0.161700 0.986800
vn 0.705100 -0.136200 0.695900
vn 0.661700 0.293600 0.689900
vn 0.000000 0.269700 0.962900
vn -0.000000 0.610800 0.791800
vn 0.520100 0.629600 0.577200
vn -0.705100 -0.136200 0.695900
vn -0.661700 0.293600 0.689900
vn -0.520100 0.629600 0.577200
vn -0.997200 -0.074800 -0.006500
vn -0.935800 0.351300 0.030700
vn -0.735500 0.674900 0.059000
vn -0.705100 -0.013300 -0.709000
vn -0.661700 0.408900 -0.628400
vn -0.520100 0.720200 -0.459100
vn -0.000000 0.012100 -0.999900
vn 0.000000 0.432800 -0.901500
vn 0.000000 0.739000 -0.673700
vn 0.997200 -0.074800 -0.006500
vn 0.935800 0.351300 0.030700
vn 0.735500 0.674900 0.059000
vn 0.705100 -0.013300 -0.709000
vn 0.661700 0.408900 -0.628400
vn 0.520100 0.720200 -0.459100
vn 0.000000 -0.609000 0.793100
vn 0.596200 -0.587500 0.547100
vn 0.640900 -0.476700 0.601600
vn 0.000000 -0.499900 0.866100
vn -0.000000 -0.087200 0.996200
vn 0.707100 -0.061600 0.704400
vn 0.706700 -0.029500 0.706900
vn -0.000000 -0.055000 0.998500
vn -0.596200 -0.587500 0.547100
vn -0.640900 -0.476700 0.601600
vn -0.707100 -0.061600 0.704400
vn -0.706700 -0.029500 0.706900
vn -0.843200 -0.535500 -0.046900
vn -0.906400 -0.420900 -0.036800
vn -1.000000 0.000000 -0.000000
vn -0.999500 0.032100 0.002800
vn -0.596200 -0.483600 -0.640800
vn -0.640900 -0.365000 -0.675300
vn -0.707100 0.061600 -0.704400
vn -0.706700 0.093700 -0.701200
vn 0.000000 -0.462000 -0.886900
vn -0.000000 -0.341900 -0.939700
vn 0.000000 0.087200 -0.996200
vn 0.000000 0.119200 -0.992900
vn 0.843200 -0.535500 -0.046900
vn 0.906400 -0.420900 -0.036800
vn 1.000000 0.000000 -0.000000
vn 0.999500 0.032100 0.002800
vn 0.596200 -0.483600 -0.640800
vn 0.640900 -0.365000 -0.675300
vn 0.707100 0.061600 -0.704400
vn 0.706700 0.093700 -0.701200
vn 0.000000 0.459600 0.888100
vn 0.597300 0.481200 0.641700
vn -0.597300 0.481200 0.641700
vn -0.844700 0.533300 0.046700
vn -0.597300 0.585300 -0.548300
vn 0.000000 0.606900 -0.794800
vn 0.844700 0.533300 0.046700
vn 0.597300 0.585300 -0.548300
vn 0.750200 -0.433800 0.498900
vn 0.950900 -0.307600 0.033000
vn 0.595500 0.753400 -0.278800
vn 0.591400 0.802300 -0.081400
vn 0.507500 -0.327800 -0.796900
vn -0.566300 -0.406600 -0.716900
vn -0.173800 0.782300 -0.598200
vn -0.018300 -0.457800 0.888800
vn -0.591700 -0.481400 0.646600
vn -0.898400 -0.437200 -0.041800
vn -0.498100 0.847700 -0.182600
vn -0.355500 0.768000 0.532700
vn 0.307600 0.857000 0.413600
vn -0.444900 0.712000 -0.543300
vn 0.726900 0.325200 -0.604900
vn -0.180100 0.419400 -0.889700
vn -0.154400 0.822900 -0.546900
vn 0.451100 0.849600 -0.273400
vn -0.831000 0.555200 -0.033400
vn -0.678500 0.733800 0.035700
vn -0.115500 0.529400 0.840400
vn 0.833500 0.437200 0.337800
vn 0.582400 0.757600 0.294600
vn -0.125600 0.771700 0.623500
vn 0.665900 0.553200 -0.500500
vn 0.039400 0.552700 -0.832500
vn -0.125200 0.837400 -0.532000
vn 0.365700 0.771200 -0.521100
vn -0.589100 0.611100 -0.528700
vn -0.533300 0.749700 -0.391800
vn -0.780500 0.602500 0.167100
vn -0.628300 0.773100 0.086800
vn -0.214000 0.611200 0.761900
vn -0.215100 0.827900 0.518000
vn 0.564400 0.543900 0.621000
vn 0.317500 0.842500 0.435300
vn 0.839500 0.534300 0.098900
vn 0.610800 0.791600 0.020300
# 167 normals

g brick7
usemtl 14___Defaultxx
s 1
f 1/1/1 2/2/2 3/3/3
f 1/1/1 3/3/3 4/4/4
f 5/5/5 6/6/6 2/2/2
f 5/5/5 2/2/2 1/1/1
f 7/7/7 8/8/8 4/4/4
f 7/7/7 4/4/4 3/3/3
f 9/1/9 1/2/1 4/3/4
f 9/1/9 4/3/4 10/4/10
f 11/5/11 5/6/5 1/2/1
f 11/5/11 1/2/1 9/1/9
f 8/7/8 12/8/12 10/4/10
f 8/7/8 10/4/10 4/3/4
f 13/1/13 9/2/9 10/3/10
f 13/1/13 10/3/10 14/4/14
f 15/5/15 11/6/11 9/2/9
f 15/5/15 9/2/9 13/1/13
f 12/7/12 16/8/16 14/4/14
f 12/7/12 14/4/14 10/3/10
f 17/1/17 13/2/13 14/3/14
f 17/1/17 14/3/14 18/4/18
f 19/5/19 15/6/15 13/2/13
f 19/5/19 13/2/13 17/1/17
f 16/7/16 20/8/20 18/4/18
f 16/7/16 18/4/18 14/3/14
f 21/1/21 17/2/17 18/3/18
f 21/1/21 18/3/18 22/4/22
f 23/5/23 19/6/19 17/2/17
f 23/5/23 17/2/17 21/1/21
f 20/7/20 24/8/24 22/4/22
f 20/7/20 22/4/22 18/3/18
f 2/1/2 25/2/25 26/3/26
f 2/1/2 26/3/26 3/4/3
f 6/5/6 27/6/27 25/2/25
f 6/5/6 25/2/25 2/1/2
f 28/7/28 7/8/7 3/4/3
f 28/7/28 3/4/3 26/3/26
f 25/1/25 29/2/29 30/3/30
f 25/1/25 30/3/30 26/4/26
f 27/5/27 31/6/31 29/2/29
f 27/5/27 29/2/29 25/1/25
f 32/7/32 28/8/28 26/4/26
f 32/7/32 26/4/26 30/3/30
f 29/1/29 21/2/21 22/3/22
f 29/1/29 22/3/22 30/4/30
f 31/5/31 23/6/23 21/2/21
f 31/5/31 21/2/21 29/1/29
f 24/7/24 32/8/32 30/4/30
f 24/7/24 30/4/30 22/3/22
f 33/1/1 34/2/2 35/3/33
f 33/1/1 35/3/33 36/4/34
f 8/5/8 7/6/7 34/2/2
f 8/5/8 34/2/2 33/1/1
f 37/7/35 38/8/36 36/4/34
f 37/7/35 36/4/34 35/3/33
f 39/1/9 33/2/1 36/3/34
f 39/1/9 36/3/34 40/4/37
f 12/5/12 8/6/8 33/2/1
f 12/5/12 33/2/1 39/1/9
f 38/7/36 41/8/38 40/4/37
f 38/7/36 40/4/37 36/3/34
f 42/1/13 39/2/9 40/3/37
f 42/1/13 40/3/37 43/4/39
f 16/5/16 12/6/12 39/2/9
f 16/5/16 39/2/9 42/1/13
f 41/7/38 44/8/40 43/4/39
f 41/7/38 43/4/39 40/3/37
f 45/1/17 42/2/13 43/3/39
f 45/1/17 43/3/39 46/4/41
f 20/5/20 16/6/16 42/2/13
f 20/5/20 42/2/13 45/1/17
f 44/7/40 47/8/42 46/4/41
f 44/7/40 46/4/41 43/3/39
f 48/1/21 45/2/17 46/3/41
f 48/1/21 46/3/41 49/4/43
f 24/5/24 20/6/20 45/2/17
f 24/5/24 45/2/17 48/1/21
f 47/7/42 50/8/44 49/4/43
f 47/7/42 49/4/43 46/3/41
f 34/1/2 51/2/25 52/3/45
f 34/1/2 52/3/45 35/4/33
f 7/5/7 28/6/28 51/2/25
f 7/5/7 51/2/25 34/1/2
f 53/7/46 37/8/35 35/4/33
f 53/7/46 35/4/33 52/3/45
f 51/1/25 54/2/29 55/3/47
f 51/1/25 55/3/47 52/4/45
f 28/5/28 32/6/32 54/2/29
f 28/5/28 54/2/29 51/1/25
f 56/7/48 53/8/46 52/4/45
f 56/7/48 52/4/45 55/3/47
f 54/1/29 48/2/21 49/3/43
f 54/1/29 49/3/43 55/4/47
f 32/5/32 24/6/24 48/2/21
f 32/5/32 48/2/21 54/1/29
f 50/7/44 56/8/48 55/4/47
f 50/7/44 55/4/47 49/3/43
f 57/1/1 58/2/2 59/3/3
f 57/1/1 59/3/3 60/4/4
f 38/5/36 37/6/35 58/2/2
f 38/5/36 58/2/2 57/1/1
f 61/7/7 62/8/8 60/4/4
f 61/7/7 60/4/4 59/3/3
f 63/1/9 57/2/1 60/3/4
f 63/1/9 60/3/4 64/4/10
f 41/5/38 38/6/36 57/2/1
f 41/5/38 57/2/1 63/1/9
f 62/7/8 65/8/12 64/4/10
f 62/7/8 64/4/10 60/3/4
f 66/1/13 63/2/9 64/3/10
f 66/1/13 64/3/10 67/4/14
f 44/5/40 41/6/38 63/2/9
f 44/5/40 63/2/9 66/1/13
f 65/7/12 68/8/16 67/4/14
f 65/7/12 67/4/14 64/3/10
f 69/1/17 66/2/13 67/3/14
f 69/1/17 67/3/14 70/4/18
f 47/5/42 44/6/40 66/2/13
f 47/5/42 66/2/13 69/1/17
f 68/7/16 71/8/20 70/4/18
f 68/7/16 70/4/18 67/3/14
f 72/1/21 69/2/17 70/3/18
f 72/1/21 70/3/18 73/4/22
f 50/5/44 47/6/42 69/2/17
f 50/5/44 69/2/17 72/1/21
f 71/7/20 74/8/24 73/4/22
f 71/7/20 73/4/22 70/3/18
f 58/1/2 75/2/25 76/3/26
f 58/1/2 76/3/26 59/4/3
f 37/5/35 53/6/46 75/2/25
f 37/5/35 75/2/25 58/1/2
f 77/7/28 61/8/7 59/4/3
f 77/7/28 59/4/3 76/3/26
f 75/1/25 78/2/29 79/3/30
f 75/1/25 79/3/30 76/4/26
f 53/5/46 56/6/48 78/2/29
f 53/5/46 78/2/29 75/1/25
f 80/7/32 77/8/28 76/4/26
f 80/7/32 76/4/26 79/3/30
f 78/1/29 72/2/21 73/3/22
f 78/1/29 73/3/22 79/4/30
f 56/5/48 50/6/44 72/2/21
f 56/5/48 72/2/21 78/1/29
f 74/7/24 80/8/32 79/4/30
f 74/7/24 79/4/30 73/3/22
f 81/1/1 82/2/2 83/3/49
f 81/1/1 83/3/49 84/4/50
f 62/5/8 61/6/7 82/2/2
f 62/5/8 82/2/2 81/1/1
f 85/7/51 86/8/52 84/4/50
f 85/7/51 84/4/50 83/3/49
f 87/1/9 81/2/1 84/3/50
f 87/1/9 84/3/50 88/4/53
f 65/5/12 62/6/8 81/2/1
f 65/5/12 81/2/1 87/1/9
f 86/7/52 89/8/54 88/4/53
f 86/7/52 88/4/53 84/3/50
f 90/1/13 87/2/9 88/3/53
f 90/1/13 88/3/53 91/4/55
f 68/5/16 65/6/12 87/2/9
f 68/5/16 87/2/9 90/1/13
f 89/7/54 92/8/56 91/4/55
f 89/7/54 91/4/55 88/3/53
f 93/1/17 90/2/13 91/3/55
f 93/1/17 91/3/55 94/4/57
f 71/5/20 68/6/16 90/2/13
f 71/5/20 90/2/13 93/1/17
f 92/7/56 95/8/58 94/4/57
f 92/7/56 94/4/57 91/3/55
f 96/1/21 93/2/17 94/3/57
f 96/1/21 94/3/57 97/4/59
f 74/5/24 71/6/20 93/2/17
f 74/5/24 93/2/17 96/1/21
f 95/7/58 98/8/60 97/4/59
f 95/7/58 97/4/59 94/3/57
f 82/1/2 99/2/25 100/3/61
f 82/1/2 100/3/61 83/4/49
f 61/5/7 77/6/28 99/2/25
f 61/5/7 99/2/25 82/1/2
f 101/7/62 85/8/51 83/4/49
f 101/7/62 83/4/49 100/3/61
f 99/1/25 102/2/29 103/3/63
f 99/1/25 103/3/63 100/4/61
f 77/5/28 80/6/32 102/2/29
f 77/5/28 102/2/29 99/1/25
f 104/7/64 101/8/62 100/4/61
f 104/7/64 100/4/61 103/3/63
f 102/1/29 96/2/21 97/3/59
f 102/1/29 97/3/59 103/4/63
f 80/5/32 74/6/24 96/2/21
f 80/5/32 96/2/21 102/1/29
f 98/7/60 104/8/64 103/4/63
f 98/7/60 103/4/63 97/3/59
f 92/9/65 89/10/65 86/11/65
f 92/9/65 86/11/65 85/12/65
f 92/9/65 85/12/65 101/13/65
f 92/9/65 101/13/65 104/14/65
f 92/9/65 104/14/65 98/15/65
f 92/9/65 98/15/65 95/16/65
f 105/17/66 106/18/67 107/19/68
f 105/17/66 107/19/68 108/20/69
f 109/21/70 110/22/71 106/18/67
f 109/21/70 106/18/67 105/17/66
f 6/19/6 5/20/5 108/20/69
f 6/19/6 108/20/69 107/19/68
f 111/17/72 105/18/66 108/19/69
f 111/17/72 108/19/69 112/20/73
f 113/21/74 109/22/70 105/18/66
f 113/21/74 105/18/66 111/17/72
f 5/19/5 11/20/11 112/20/73
f 5/19/5 112/20/73 108/19/69
f 114/17/75 111/18/72 112/19/73
f 114/17/75 112/19/73 115/20/76
f 116/21/77 113/22/74 111/18/72
f 116/21/77 111/18/72 114/17/75
f 11/19/11 15/20/15 115/20/76
f 11/19/11 115/20/76 112/19/73
f 117/17/78 114/18/75 115/19/76
f 117/17/78 115/19/76 118/20/79
f 119/21/80 116/22/77 114/18/75
f 119/21/80 114/18/75 117/17/78
f 15/19/15 19/20/19 118/20/79
f 15/19/15 118/20/79 115/19/76
f 120/17/81 117/18/78 118/19/79
f 120/17/81 118/19/79 121/20/82
f 122/21/83 119/22/80 117/18/78
f 122/21/83 117/18/78 120/17/81
f 19/19/19 23/20/23 121/20/82
f 19/19/19 121/20/82 118/19/79
f 106/17/67 123/18/84 124/19/85
f 106/17/67 124/19/85 107/20/68
f 110/21/71 125/22/86 123/18/84
f 110/21/71 123/18/84 106/17/67
f 27/19/27 6/20/6 107/20/68
f 27/19/27 107/20/68 124/19/85
f 123/17/84 126/18/87 127/19/88
f 123/17/84 127/19/88 124/20/85
f 125/21/86 128/22/89 126/18/87
f 125/21/86 126/18/87 123/17/84
f 31/19/31 27/20/27 124/20/85
f 31/19/31 124/20/85 127/19/88
f 126/17/87 120/18/81 121/19/82
f 126/17/87 121/19/82 127/20/88
f 128/21/89 122/22/83 120/18/81
f 128/21/89 120/18/81 126/17/87
f 23/19/23 31/20/31 127/20/88
f 23/19/23 127/20/88 121/19/82
f 129/23/90 130/24/91 131/25/92
f 129/23/90 131/25/92 132/26/93
f 133/27/94 134/28/95 130/24/91
f 133/27/94 130/24/91 129/23/90
f 135/29/96 136/30/97 132/26/93
f 135/29/96 132/26/93 131/25/92
f 137/24/98 129/31/90 132/32/93
f 137/24/98 132/32/93 138/25/99
f 139/28/100 133/33/94 129/31/90
f 139/28/100 129/31/90 137/24/98
f 136/34/97 140/29/101 138/25/99
f 136/34/97 138/25/99 132/32/93
f 141/23/102 137/24/98 138/25/99
f 141/23/102 138/25/99 142/26/103
f 143/27/104 139/28/100 137/24/98
f 143/27/104 137/24/98 141/23/102
f 140/29/101 144/30/105 142/26/103
f 140/29/101 142/26/103 138/25/99
f 145/24/106 141/31/102 142/32/103
f 145/24/106 142/32/103 146/25/107
f 147/28/108 143/33/104 141/31/102
f 147/28/108 141/31/102 145/24/106
f 144/34/105 148/29/109 146/25/107
f 144/34/105 146/25/107 142/32/103
f 149/23/110 145/24/106 146/25/107
f 149/23/110 146/25/107 150/26/111
f 151/27/112 147/28/108 145/24/106
f 151/27/112 145/24/106 149/23/110
f 148/29/109 152/30/113 150/26/111
f 148/29/109 150/26/111 146/25/107
f 130/24/91 153/31/114 154/32/115
f 130/24/91 154/32/115 131/25/92
f 134/28/95 155/33/116 153/31/114
f 134/28/95 153/31/114 130/24/91
f 156/34/117 135/29/96 131/25/92
f 156/34/117 131/25/92 154/32/115
f 153/23/114 157/24/118 158/25/119
f 153/23/114 158/25/119 154/26/115
f 155/27/116 159/28/120 157/24/118
f 155/27/116 157/24/118 153/23/114
f 160/29/121 156/30/117 154/26/115
f 160/29/121 154/26/115 158/25/119
f 157/24/118 149/31/110 150/32/111
f 157/24/118 150/32/111 158/25/119
f 159/28/120 151/33/112 149/31/110
f 159/28/120 149/31/110 157/24/118
f 152/34/113 160/29/121 158/25/119
f 152/34/113 158/25/119 150/32/111
f 144/35/65 140/36/65 136/37/65
f 144/35/65 136/37/65 135/38/65
f 144/35/65 135/38/65 156/39/65
f 144/35/65 156/39/65 160/40/65
f 144/35/65 160/40/65 152/41/65
f 144/35/65 152/41/65 148/42/65
f 161/43/122 162/44/123 110/45/71
f 161/43/122 110/45/71 109/46/70
f 163/43/124 161/44/122 109/45/70
f 163/43/124 109/45/70 113/46/74
f 164/43/125 163/44/124 113/45/74
f 164/43/125 113/45/74 116/46/77
f 165/43/126 164/44/125 116/45/77
f 165/43/126 116/45/77 119/46/80
f 166/43/127 165/44/126 119/45/80
f 166/43/127 119/45/80 122/46/83
f 162/43/123 167/44/128 125/45/86
f 162/43/123 125/45/86 110/46/71
f 167/43/128 168/44/129 128/45/89
f 167/43/128 128/45/89 125/46/86
f 168/43/129 166/44/127 122/45/83
f 168/43/129 122/45/83 128/46/89
f 169/47/94 170/48/95 162/44/123
f 169/47/94 162/44/123 161/43/122
f 171/47/100 169/48/94 161/44/122
f 171/47/100 161/44/122 163/43/124
f 172/47/104 171/48/100 163/44/124
f 172/47/104 163/44/124 164/43/125
f 173/47/108 172/48/104 164/44/125
f 173/47/108 164/44/125 165/43/126
f 174/47/112 173/48/108 165/44/126
f 174/47/112 165/44/126 166/43/127
f 170/47/95 175/48/116 167/44/128
f 170/47/95 167/44/128 162/43/123
f 175/47/116 176/48/120 168/44/129
f 175/47/116 168/44/129 167/43/128
f 176/47/120 174/48/112 166/44/127
f 176/47/120 166/44/127 168/43/129
f 177/49/130 178/50/131 179/51/132
f 177/49/130 179/51/132 180/52/133
f 178/50/131 181/53/134 179/51/132
f 181/53/134 182/54/135 183/55/136
f 181/53/134 183/55/136 179/51/132
f 177/49/130 184/56/137 185/57/138
f 177/49/130 185/57/138 186/58/139
f 177/49/130 186/58/139 182/54/135
f 177/49/130 182/54/135 181/53/134
f 177/49/130 181/53/134 178/50/131
f 180/52/133 187/59/140 188/60/141
f 180/52/133 188/60/141 189/61/142
f 183/55/136 190/62/143 180/52/133
f 183/55/136 180/52/133 179/51/132
f 189/61/142 188/60/141 185/57/138
f 189/61/142 185/57/138 184/56/137
f 183/55/136 186/58/139 190/62/143
f 183/55/136 182/54/135 186/58/139
f 186/58/139 187/59/140 190/62/143
f 184/56/137 177/49/130 189/61/142
f 177/49/130 180/52/133 189/61/142
f 187/59/140 186/58/139 185/57/138
f 187/59/140 185/57/138 188/60/141
f 180/52/133 190/62/143 187/59/140
f 191/63/144 192/64/145 193/65/146
f 191/63/144 193/65/146 194/66/147
f 192/64/145 195/67/148 196/68/149
f 192/64/145 196/68/149 193/65/146
f 197/69/150 198/70/151 199/71/152
f 197/69/150 199/71/152 200/72/153
f 198/70/151 191/63/144 194/66/147
f 198/70/151 194/66/147 199/71/152
f 199/71/152 194/66/147 193/65/146
f 199/71/152 193/65/146 196/68/149
f 199/71/152 196/68/149 200/72/153
f 197/69/150 200/72/153 196/68/149
f 197/69/150 196/68/149 195/67/148
f 201/73/154 202/74/155 203/71/156
f 201/73/154 203/71/156 204/75/157
f 202/74/155 205/76/158 206/77/159
f 202/74/155 206/77/159 203/71/156
f 205/76/158 207/78/160 208/79/161
f 205/76/158 208/79/161 206/77/159
f 207/78/160 209/67/162 210/80/163
f 207/78/160 210/80/163 208/79/161
f 209/67/162 211/81/164 212/82/165
f 209/67/162 212/82/165 210/80/163
f 213/83/166 214/84/167 212/82/165
f 213/83/166 212/82/165 211/81/164
f 203/71/156 212/82/165 214/84/167
f 203/71/156 214/84/167 204/75/157
f 213/83/166 201/73/154 204/75/157
f 213/83/166 204/75/157 214/84/167
f 206/77/159 208/79/161 210/80/163
f 206/77/159 210/80/163 203/71/156
f 203/71/156 210/80/163 212/82/165
# 388 triangles in group

# 388 triangles total

