# Wavefront OBJ exported by MilkShape 3D

mtllib brick1_top.mtl

v 0.156300 0.511500 0.709900
v 0.073900 0.934200 0.329500
v 0.075100 0.928100 1.106000
v 0.018500 2.506700 0.315900
v 0.020200 2.501400 1.120000
v 0.116100 0.511500 0.726000
v 0.043800 0.934200 1.106400
v 0.042500 0.928100 0.329900
v -0.010100 2.506700 1.120000
v -0.011900 2.501400 0.315900
v 0.702000 0.511500 -0.090000
v 0.314700 0.934200 -0.007500
v 1.105100 0.928100 -0.008800
v 0.300900 2.506700 0.047800
v 1.119400 2.501400 0.046100
v 0.718300 0.511500 -0.049800
v 1.105500 0.934200 0.022600
v 0.315200 0.928100 0.023800
v 1.119400 2.506700 0.076500
v 0.300900 2.501400 0.078200
v -0.110300 0.511500 -0.680800
v -0.027800 0.934200 -0.293600
v -0.029100 0.928100 -1.083900
v 0.027600 2.506700 -0.279700
v 0.025800 2.501400 -1.098200
v -0.070100 0.511500 -0.697100
v 0.002300 0.934200 -1.084400
v 0.003500 0.928100 -0.294000
v 0.056200 2.506700 -1.098200
v 0.057900 2.501400 -0.279700
v -0.731800 0.511500 -0.133100
v -1.112300 0.934200 -0.050600
v -0.335800 0.928100 -0.051900
v -1.125900 2.506700 0.004700
v -0.321700 2.501400 0.003000
v -0.715800 0.511500 -0.092900
v -0.335300 0.934200 -0.020600
v -1.111800 0.928100 -0.019300
v -0.321700 2.506700 0.033400
v -1.125900 2.501400 0.035100
v 1.166400 2.465600 0.111600
v 1.166400 2.607100 0.002000
v -1.166400 2.607100 0.002000
v -1.166400 2.465600 0.111600
v 1.166400 2.465600 -0.107500
v -1.166400 2.465600 -0.107500
v 0.114100 2.465600 -1.120200
v 0.016200 2.607100 -1.120200
v 0.016200 2.607100 1.177800
v 0.114100 2.465600 1.177800
v -0.081600 2.465600 -1.120200
v -0.081600 2.465600 1.177800
# 52 vertices

vt 0.852300 0.692200
vt 0.869000 0.704300
vt 0.834700 0.706200
vt 0.868800 0.778200
vt 0.836600 0.777500
vt 0.785200 0.745300
vt 0.785200 0.760900
vt 0.669500 0.760900
vt 0.669500 0.745300
vt 0.731200 0.752100
vt 0.731200 0.761300
vt 0.703700 0.761300
vt 0.703700 0.752100
vt 0.146600 0.839600
vt 0.161700 0.847200
vt 0.146600 0.854700
vt 0.146600 0.847200
vt 0.161700 0.839600
vt 0.161700 0.854700
# 19 texture coordinates

vn 0.981500 0.191400 -0.000100
vn 0.996000 0.089500 -0.000900
vn 0.999400 0.035000 -0.001700
vn -0.985200 -0.171200 0.002900
vn -0.996600 -0.081800 0.002200
vn -0.999400 -0.034500 0.002200
vn -0.000100 0.191400 -0.981500
vn -0.000900 0.089100 -0.996000
vn -0.001700 0.035000 -0.999400
vn 0.002900 -0.171200 0.985200
vn 0.002200 -0.081500 0.996700
vn 0.002200 -0.034500 0.999400
vn -0.981500 0.191400 0.000100
vn -0.996000 0.089100 0.000900
vn -0.999400 0.035000 0.001700
vn 0.985200 -0.171200 -0.002900
vn 0.996700 -0.081500 -0.002200
vn 0.999400 -0.034500 -0.002200
vn 0.550400 -0.367600 0.749600
vn 0.565200 0.824900 0.000000
vn -0.565200 0.824900 -0.000000
vn -0.550400 -0.367600 0.749600
vn 0.550400 -0.367600 -0.749600
vn -0.550400 -0.367600 -0.749600
vn 0.738500 -0.387100 -0.552000
vn 0.000000 0.828000 -0.560700
vn 0.000000 0.828000 0.560700
vn 0.738500 -0.387100 0.552000
vn -0.738500 -0.387100 -0.552000
vn -0.738500 -0.387100 0.552000
# 30 normals

g brick1_top
usemtl Material05
s 1
f 1/1/1 2/2/2 3/3/2
f 4/4/3 5/5/3 3/3/2
f 3/3/2 2/2/2 4/4/3
f 6/1/4 7/2/5 8/3/5
f 9/4/6 10/5/6 8/3/5
f 8/3/5 7/2/5 9/4/6
f 11/1/7 12/2/8 13/3/8
f 14/4/9 15/5/9 13/3/8
f 13/3/8 12/2/8 14/4/9
f 16/1/10 17/2/11 18/3/11
f 19/4/12 20/5/12 18/3/11
f 18/3/11 17/2/11 19/4/12
f 21/1/13 22/2/14 23/3/14
f 24/4/15 25/5/15 23/3/14
f 23/3/14 22/2/14 24/4/15
f 26/1/16 27/2/17 28/3/17
f 29/4/18 30/5/18 28/3/17
f 28/3/17 27/2/17 29/4/18
f 31/1/7 32/2/8 33/3/8
f 34/4/9 35/5/9 33/3/8
f 33/3/8 32/2/8 34/4/9
f 36/1/10 37/2/11 38/3/11
f 39/4/12 40/5/12 38/3/11
f 38/3/11 37/2/11 39/4/12
f 41/6/19 42/7/20 43/8/21
f 43/8/21 44/9/22 41/6/19
f 45/9/23 46/6/24 43/7/21
f 43/7/21 42/8/20 45/9/23
f 41/10/19 44/11/22 46/12/24
f 46/12/24 45/13/23 41/10/19
f 44/14/22 43/15/21 46/16/24
f 42/17/20 41/18/19 45/19/23
f 47/6/25 48/7/26 49/8/27
f 49/8/27 50/9/28 47/6/25
f 51/9/29 52/6/30 49/7/27
f 49/7/27 48/8/26 51/9/29
f 47/10/25 50/11/28 52/12/30
f 52/12/30 51/13/29 47/10/25
f 50/14/28 49/15/27 52/16/30
f 48/17/26 47/18/25 51/19/29
# 40 triangles in group

# 40 triangles total

