# Wavefront OBJ exported by MilkShape 3D

mtllib brick9.mtl

v -0.948000 1.637400 0.933300
v 0.000000 1.637300 -0.000000
v -0.948000 1.637400 0.000000
v 0.000000 0.000000 0.967400
v 0.000000 1.637400 0.933300
v -0.982700 0.000000 0.967400
v 0.982700 0.000000 -0.000000
v 0.948000 1.637400 0.000000
v 0.948000 1.637400 0.933300
v 0.982700 0.000000 0.967400
v 0.000000 0.000000 -0.967400
v 0.000000 1.637400 -0.933300
v 0.948000 1.637400 -0.933300
v 0.982700 0.000000 -0.967400
v -0.982700 0.000000 -0.000000
v -0.948000 1.637400 -0.933300
v -0.982700 0.000000 -0.967400
# 17 vertices

vt 0.834500 0.821800
vt 0.818900 0.846000
vt 0.834500 0.846000
vt 0.779000 0.806300
vt 0.779000 0.846900
vt 0.759900 0.846900
vt 0.759900 0.806300
vt 0.818900 0.821800
vt 0.818800 0.779900
vt 0.834500 0.779900
vt 0.834500 0.870200
vt 0.818900 0.870200
# 12 texture coordinates

vn -0.571700 0.588400 0.571800
vn -0.000000 1.000000 0.000000
vn -0.699500 0.714600 0.000000
vn 0.000000 0.020800 0.999800
vn 0.000000 0.714500 0.699700
vn -0.706900 0.029700 0.706700
vn 0.999800 0.021200 0.000000
vn 0.699500 0.714600 0.000000
vn 0.571700 0.588400 0.571800
vn 0.706900 0.029700 0.706700
vn 0.000000 0.020800 -0.999800
vn 0.000000 0.714500 -0.699700
vn 0.571700 0.588400 -0.571800
vn 0.706900 0.029700 -0.706700
vn -0.999800 0.021200 0.000000
vn -0.571700 0.588400 -0.571800
vn -0.706900 0.029700 -0.706700
# 17 normals

g brick9
usemtl Material09
s 1
f 1/1/1 2/2/2 3/3/3
f 4/4/4 5/5/5 1/6/1
f 4/4/4 1/6/1 6/7/6
f 7/4/7 8/5/8 9/6/9
f 7/4/7 9/6/9 10/7/10
f 11/4/11 12/5/12 13/6/13
f 11/4/11 13/6/13 14/7/14
f 15/4/15 3/5/3 16/6/16
f 15/4/15 16/6/16 17/7/17
f 5/8/5 9/1/9 2/2/2
f 4/9/4 10/10/10 9/1/9
f 4/9/4 9/1/9 5/8/5
f 11/9/11 17/10/17 16/1/16
f 11/9/11 16/1/16 12/8/12
f 2/2/2 16/11/16 3/3/3
f 7/9/7 14/10/14 13/1/13
f 7/9/7 13/1/13 8/8/8
f 15/9/15 6/10/6 1/1/1
f 15/9/15 1/1/1 3/8/3
f 8/3/8 13/11/13 2/2/2
f 9/1/9 8/3/8 2/2/2
f 2/2/2 12/12/12 16/11/16
f 1/1/1 5/8/5 2/2/2
f 13/11/13 12/12/12 2/2/2
# 24 triangles in group

# 24 triangles total

