# Wavefront OBJ exported by MilkShape 3D

mtllib gold.mtl

v -0.144800 1.091200 -0.000000
v -0.144800 0.965100 0.346400
v 0.144800 0.965100 0.346400
v 0.144800 1.091200 -0.000000
v -0.144800 0.645900 0.530700
v 0.144800 0.645900 0.530700
v -0.144800 0.283000 0.466600
v 0.144800 0.283000 0.466600
v -0.144800 0.046000 0.184300
v 0.144800 0.046000 0.184300
v -0.144800 0.046000 -0.184300
v 0.144800 0.046000 -0.184300
v -0.144800 0.283000 -0.466600
v 0.144800 0.283000 -0.466600
v -0.144800 0.645900 -0.530700
v 0.144800 0.645900 -0.530700
v -0.144800 0.965100 -0.346400
v 0.144800 0.965100 -0.346400
# 18 vertices

vt 0.740700 0.716600
vt 0.746600 0.716600
vt 0.746600 0.740500
vt 0.740700 0.740500
vt 0.761500 0.716600
vt 0.761500 0.740500
vt 0.778400 0.716600
vt 0.778400 0.740500
vt 0.789400 0.716600
vt 0.789400 0.740500
vt 0.622000 0.739100
vt 0.666400 0.706500
vt 0.650500 0.731400
vt 0.594200 0.726000
vt 0.662200 0.676100
vt 0.580200 0.698300
vt 0.639900 0.654400
vt 0.586400 0.668800
vt 0.610000 0.651500
# 19 texture coordinates

vn 0.000000 1.000000 -0.000000
vn 0.000000 0.766000 0.642800
vn 0.000000 0.173600 0.984800
vn 0.000000 -0.500000 0.866000
vn 0.000000 -0.939700 0.342000
vn 0.000000 -0.939700 -0.342000
vn 0.000000 -0.500000 -0.866000
vn 0.000000 0.173600 -0.984800
vn 0.000000 0.766000 -0.642800
vn -1.000000 0.000000 -0.000000
vn 1.000000 0.000000 -0.000000
# 11 normals

g gold
usemtl Material14
s 1
f 1/1/1 2/2/2 3/3/2
f 3/3/2 4/4/1 1/1/1
f 2/2/2 5/5/3 6/6/3
f 6/6/3 3/3/2 2/2/2
f 5/5/3 7/7/4 8/8/4
f 8/8/4 6/6/3 5/5/3
f 7/7/4 9/9/5 10/10/5
f 10/10/5 8/8/4 7/7/4
f 9/9/5 11/9/6 12/10/6
f 12/10/6 10/10/5 9/9/5
f 11/9/6 13/7/7 14/8/7
f 14/8/7 12/10/6 11/9/6
f 13/7/7 15/5/8 16/6/8
f 16/6/8 14/8/7 13/7/7
f 15/5/8 17/2/9 18/3/9
f 18/3/9 16/6/8 15/5/8
f 17/2/9 1/1/1 4/4/1
f 4/4/1 18/3/9 17/2/9
f 17/11/10 2/12/10 1/13/10
f 4/13/11 3/12/11 18/11/11
f 15/14/10 5/15/10 2/12/10
f 2/12/10 17/11/10 15/14/10
f 13/16/10 7/17/10 5/15/10
f 5/15/10 15/14/10 13/16/10
f 11/18/10 9/19/10 7/17/10
f 7/17/10 13/16/10 11/18/10
f 6/15/11 16/14/11 18/11/11
f 18/11/11 3/12/11 6/15/11
f 8/17/11 14/16/11 16/14/11
f 16/14/11 6/15/11 8/17/11
f 10/19/11 12/18/11 14/16/11
f 14/16/11 8/17/11 10/19/11
# 32 triangles in group

# 32 triangles total

