# Wavefront OBJ exported by MilkShape 3D

mtllib house_2.mtl

v 0.282400 1.612800 0.068300
v 0.282700 1.732800 0.637700
v 0.336300 1.678600 0.696400
v 0.878400 1.105800 0.706500
v 0.877800 1.105800 -0.796000
v 0.787500 1.017500 0.696000
v 0.786900 1.017500 -0.785400
v 0.320200 1.697900 -0.810700
v 0.282200 1.738200 -0.775100
v -0.323200 1.122600 0.707200
v 0.226600 1.676200 0.696400
v -0.323800 1.122600 -0.795300
v 0.244800 1.699400 -0.810700
v -0.241100 1.029800 -0.784600
v -0.240500 1.029800 0.696700
v 0.282300 1.595700 -0.807500
v 0.282100 1.708800 -0.811700
v 0.739700 1.061800 0.603100
v 0.774800 1.060400 -0.713400
v -0.199000 1.062200 -0.718800
v -0.199300 1.062200 0.600700
v 0.282600 1.595900 0.696000
v 0.282700 1.686000 0.696600
v 0.570800 0.466200 -1.010700
v 0.580800 0.484800 -0.621100
v 0.653000 0.372400 -0.621100
v 0.652800 0.353800 -1.010700
v 0.553300 1.831800 -0.938000
v 0.553500 1.831800 -0.657400
v 0.567100 1.158300 -0.639300
v 0.562000 1.149000 -0.974300
v 0.383200 1.149000 -0.974200
v 0.369100 1.831800 -0.937900
v 0.291400 0.353800 -1.010500
v 0.701500 -0.002900 -1.024600
v 0.315100 -0.002900 -1.024300
v 0.397300 0.466200 -1.010500
v 0.315400 -0.002900 -0.676400
v 0.291600 0.372400 -0.621100
v 0.397400 0.484800 -0.621100
v 0.383400 1.158300 -0.639200
v 0.582900 1.875100 -0.633500
v 0.339800 1.875100 -0.633300
v 0.369300 1.831800 -0.657300
v 0.582700 1.875100 -0.962000
v 0.339600 1.875100 -0.961800
v 0.553500 2.021900 -0.657400
v 0.369300 2.021900 -0.657300
v 0.339800 1.983600 -0.633300
v 0.582900 1.983700 -0.633500
v 0.553300 2.021900 -0.938000
v 0.582700 1.983600 -0.962000
v 0.369100 2.021900 -0.937900
v 0.339600 1.983600 -0.961800
v 0.282600 1.599000 0.583900
v -0.171700 0.638000 0.610200
v 0.718200 0.637800 0.614600
v 0.764300 0.636400 -0.698400
v -0.160500 0.637900 -0.711100
v 0.282100 1.599000 -0.729400
v -0.172700 0.571700 -0.215000
v -0.199400 1.059300 -0.029400
v -0.172100 0.572000 0.108800
v 0.701700 -0.002900 -0.676400
v -0.284400 1.607200 -0.236800
v -0.261100 1.663200 -0.237100
v -0.263600 1.454600 -0.403500
v -0.280200 1.467900 -0.359200
v 0.333600 1.632100 -0.244900
v 0.331100 1.454600 -0.411300
v -0.276600 1.467900 -0.114500
v -0.258700 1.454300 -0.070700
v -0.208600 1.516700 -0.124200
v -0.211900 1.516700 -0.351500
v -0.185900 1.198500 -0.370100
v -0.182200 1.198500 -0.117800
v -0.210200 1.663200 -0.237800
v 0.397000 1.515200 -0.129600
v 0.331900 1.511500 -0.358600
v 0.336000 1.454300 -0.078500
v -0.428100 0.204300 -0.520500
v -0.394900 0.023100 -0.561300
v -0.269900 0.075200 -0.511300
v -0.289500 0.181700 -0.487300
v -0.606500 0.204500 -0.666700
v -0.573300 0.023400 -0.707500
v -0.666400 0.182200 -0.796100
v -0.646900 0.075700 -0.820100
v -0.453800 0.017400 -0.853300
v -0.275400 0.017200 -0.707100
v -0.576600 0.072200 -0.905900
v -0.329100 0.310200 -0.641200
v -0.231200 0.244100 -0.558300
v -0.507500 0.310500 -0.787300
v -0.608200 0.244600 -0.867100
v -0.234800 0.194600 -0.756500
v -0.175800 0.176100 -0.626100
v -0.413200 0.194800 -0.902700
v -0.552700 0.176600 -0.934900
v -0.199700 0.071700 -0.597100
v -0.150900 0.150900 -0.785900
v -0.325700 0.150900 -0.836700
v -0.275300 0.027100 -0.875700
v -0.172500 0.027100 -0.845900
v -0.331400 0.150900 -1.018600
v -0.278600 0.027100 -0.982800
v -0.160100 0.150900 -1.080300
v -0.177900 0.027100 -1.019000
v -0.048500 0.150900 -0.936400
v -0.112300 0.027100 -0.934400
v -0.331400 0.373500 -1.018600
v -0.160100 0.373500 -1.080300
v -0.325700 0.373500 -0.836700
v -0.150900 0.373500 -0.785900
v -0.048500 0.373500 -0.936400
v -0.278600 0.497400 -0.982800
v -0.177900 0.497400 -1.019000
v -0.275300 0.497400 -0.875700
v -0.172500 0.497400 -0.845900
v -0.112300 0.497400 -0.934400
v 0.739700 1.061800 -0.789500
v -0.199300 1.062200 -0.792000
v 0.038100 1.467900 -0.359200
v 0.033900 1.607200 -0.236800
v 0.041700 1.467900 -0.114500
v -0.201500 -0.002900 0.607500
v 0.746100 -0.002900 0.613900
v 0.779500 -0.002900 -0.726000
v -0.203500 -0.002900 -0.723400
v -0.202700 -0.002900 -0.235500
v -0.202800 -0.002900 0.094600
v -0.107600 0.904100 0.704700
v -0.626800 1.013500 0.705000
v -0.680300 0.964100 0.753900
v -0.689500 0.441800 1.248100
v 0.703800 0.441800 1.247600
v -0.679900 0.361200 1.165200
v 0.694000 0.361200 1.164700
v 0.717200 0.981700 0.739200
v 0.713400 1.005000 0.704500
v -0.690100 0.457100 0.152500
v -0.680300 0.961900 0.653800
v 0.703100 0.457100 0.151900
v 0.717100 0.983000 0.670400
v 0.693400 0.372500 0.227400
v -0.680600 0.372500 0.227900
v 0.714200 0.888500 0.704600
v -0.679900 0.888700 0.704900
v -0.680500 0.970800 0.705000
v -0.593000 0.402000 0.265500
v -0.595200 0.401700 1.121700
v -0.577700 0.891500 0.704900
v -0.591300 0.008200 0.266100
v -0.597100 0.008200 1.121800
v 0.659900 0.008200 1.152000
v 0.652500 0.400400 1.153600
v 0.657500 0.402000 0.265700
v 0.657500 0.008200 0.264300
v 0.667200 0.891500 0.704400
v 0.148700 0.008200 0.265100
v 0.149000 0.399200 0.264800
v -0.091200 0.399700 0.266100
v -0.092100 0.008200 0.264900
v -0.151100 1.041200 0.902500
v 0.104700 1.041200 0.902300
v 0.121200 0.584200 0.889800
v -0.184300 0.577900 0.894500
v -0.184100 0.577900 1.057500
v -0.151000 1.041200 1.070400
v 0.126500 1.070600 0.875400
v 0.126600 1.070600 1.097000
v 0.104800 1.041200 1.070200
v -0.173000 1.070600 0.875600
v -0.172800 1.070600 1.097300
v 0.104700 1.170200 0.902300
v 0.104800 1.170200 1.070200
v 0.126600 1.144300 1.097000
v 0.126500 1.144300 0.875400
v -0.151100 1.170200 0.902500
v -0.173000 1.144300 0.875600
v -0.151000 1.170200 1.070400
v -0.172800 1.144300 1.097300
v 0.121300 0.584200 1.057400
# 183 vertices

vt 0.947300 0.733300
vt 0.996300 0.736500
vt 0.996200 0.728200
vt 0.994900 0.655500
vt 0.874700 0.655500
vt 0.985100 0.647600
vt 0.893800 0.647500
vt 0.894200 0.650100
vt 0.985900 0.650100
vt 0.876300 0.730100
vt 0.876400 0.736500
vt 0.997100 0.656500
vt 0.996500 0.726100
vt 0.991900 0.736700
vt 0.879500 0.656700
vt 0.880200 0.736500
vt 0.872400 0.734300
vt 0.879500 0.653000
vt 0.992000 0.648900
vt 0.983400 0.657400
vt 0.882400 0.657400
vt 0.882400 0.648900
vt 0.992000 0.655300
vt 0.317500 0.868100
vt 0.317500 0.870300
vt 0.325900 0.871100
vt 0.325900 0.867800
vt 0.308800 0.872400
vt 0.308800 0.867800
vt 0.303100 0.867800
vt 0.303100 0.872400
vt 0.979800 0.657400
vt 0.992000 0.653200
vt 0.919100 0.776000
vt 0.920300 0.740900
vt 0.909900 0.741000
vt 0.908600 0.776000
vt 0.999400 0.775500
vt 0.998900 0.740500
vt 0.921000 0.775500
vt 0.920700 0.771600
vt 0.920700 0.743600
vt 0.905900 0.742100
vt 0.906900 0.774600
vt 0.872700 0.776300
vt 0.872200 0.740800
vt 0.914900 0.747300
vt 0.914100 0.768300
vt 0.875800 0.776500
vt 0.875200 0.741200
vt 0.976400 0.740900
vt 0.976400 0.776000
vt 0.965800 0.783900
vt 0.941100 0.783900
vt 0.941100 0.779200
vt 0.965800 0.779200
vt 0.965800 0.797100
vt 0.941100 0.797100
vt 0.941100 0.794300
vt 0.965800 0.794300
vt 0.304200 0.945800
vt 0.422800 0.945800
vt 0.363300 0.992300
vt 0.484100 0.200200
vt 0.364600 0.200200
vt 0.364600 0.129400
vt 0.484100 0.129400
vt 0.481200 0.127400
vt 0.365000 0.127100
vt 0.481200 0.200200
vt 0.483100 0.129400
vt 0.364300 0.991300
vt 0.995300 0.732900
vt 0.995200 0.736300
vt 0.989300 0.736900
vt 0.872900 0.736200
vt 0.414400 0.921500
vt 0.420200 0.921700
vt 0.417300 0.892700
vt 0.443200 0.127700
vt 0.424500 0.200000
vt 0.402900 0.127700
vt 0.365900 0.199900
vt 0.755000 0.804900
vt 0.755000 0.789400
vt 0.778200 0.788800
vt 0.778200 0.804400
vt 0.998800 0.742900
vt 0.919800 0.774900
vt 0.875000 0.735700
vt 0.875300 0.653200
vt 0.997500 0.654000
vt 0.880500 0.653700
vt 0.375900 0.939800
vt 0.341800 0.939800
vt 0.341800 0.880200
vt 0.375900 0.880200
vt 0.359900 0.958500
vt 0.313800 0.837700
vt 0.313900 0.868200
vt 0.344400 0.837700
vt 0.947600 0.647600
vt 0.186800 0.601400
vt 0.249100 0.601400
vt 0.249400 0.586600
vt 0.186800 0.586600
vt 0.186800 0.618900
vt 0.249100 0.618900
vt 0.186800 0.639200
vt 0.249400 0.639200
vt 0.312200 0.618900
vt 0.312200 0.601400
vt 0.312200 0.639200
vt 0.226700 0.601400
vt 0.227000 0.586600
vt 0.226700 0.618900
vt 0.226600 0.639200
vt 0.270800 0.601400
vt 0.270700 0.586600
vt 0.270800 0.618900
vt 0.271100 0.639200
vt 0.312200 0.586600
vt 0.227900 0.630200
vt 0.275000 0.630400
vt 0.253300 0.592000
vt 0.204900 0.611000
vt 0.298000 0.610600
vt 0.303100 0.866200
vt 0.364800 0.866300
vt 0.364800 0.872400
vt 0.365400 0.856600
vt 0.364800 0.806600
vt 0.367700 0.806100
vt 0.367900 0.857200
vt 0.359900 0.806000
vt 0.360900 0.856800
vt 0.363400 0.857000
vt 0.363400 0.806500
vt 0.976300 0.768300
vt 0.976300 0.747300
vt 0.976100 0.742900
vt 0.976100 0.774900
vt 0.423800 0.947400
vt 0.304200 0.947400
vt 0.304300 0.876700
vt 0.423800 0.876700
vt 0.420800 0.874700
vt 0.304700 0.874400
vt 0.420800 0.948000
vt 0.303400 0.798800
vt 0.347400 0.798800
vt 0.347400 0.871400
vt 0.350600 0.797900
vt 0.384100 0.797900
vt 0.384100 0.872700
vt 0.350600 0.872700
vt 0.304200 0.939200
vt 0.422800 0.939200
vt 0.363300 0.998200
vt 0.305100 0.950200
vt 0.420800 0.950200
vt 0.364300 0.996900
# 162 texture coordinates

vn 0.013400 0.999600 -0.024000
vn 0.032800 0.997000 0.069700
vn 0.476900 0.577300 0.662800
vn 0.803700 -0.003900 0.595100
vn 0.809900 -0.013300 -0.586500
vn -0.162300 -0.861900 0.480500
vn 0.254300 -0.668100 -0.699300
vn 0.502700 0.530800 -0.682300
vn 0.029500 0.992600 -0.118000
vn -0.800200 0.032400 0.598900
vn -0.434900 0.561600 0.703900
vn -0.807900 0.023100 -0.588900
vn -0.456600 0.527300 -0.716600
vn -0.316100 -0.727800 -0.608600
vn 0.097300 -0.866700 0.489200
vn -0.004800 -0.417400 -0.908700
vn 0.007300 0.470500 -0.882400
vn -0.043900 -0.603100 0.796500
vn -0.364100 -0.268200 -0.891900
vn -0.005700 -0.669200 -0.743100
vn 0.013400 -0.667600 0.744400
vn -0.005000 -0.400100 0.916400
vn -0.009200 0.464400 0.885600
vn 0.570600 0.211800 -0.793400
vn 0.862000 0.268800 0.429700
vn 0.930300 0.365800 -0.027100
vn 0.698800 0.288400 -0.654600
vn 0.634400 -0.393100 -0.665600
vn 0.630300 -0.400600 0.665100
vn 0.711800 0.031700 0.701700
vn 0.700300 0.048400 -0.712200
vn -0.708000 0.022900 -0.705800
vn -0.635400 -0.405800 -0.656900
vn -0.734000 0.264900 -0.625300
vn 0.720800 0.124900 -0.681800
vn -0.683700 -0.016100 -0.729600
vn -0.538700 0.235500 -0.809000
vn -0.998000 -0.063300 0.000600
vn -0.929100 0.369400 -0.017900
vn -0.822400 0.322500 0.468700
vn -0.706600 0.004300 0.707600
vn 0.678500 -0.307900 0.666900
vn -0.677600 -0.307800 0.667900
vn -0.629300 -0.413500 0.658000
vn 0.677600 -0.307900 -0.667900
vn -0.678500 -0.307900 -0.666900
vn 0.347000 0.851800 0.392400
vn -0.346600 0.851800 0.392900
vn -0.672200 0.330600 0.662500
vn 0.673100 0.330700 0.661600
vn 0.346600 0.851800 -0.392900
vn 0.672200 0.330600 -0.662500
vn -0.347100 0.851800 -0.392400
vn -0.673100 0.330600 -0.661600
vn -0.002600 0.033600 0.999400
vn -0.691200 -0.000900 0.722700
vn 0.679500 0.008800 0.733600
vn 0.725600 0.006500 -0.688100
vn -0.680700 -0.011400 -0.732500
vn 0.005500 -0.024700 -0.999700
vn -1.000000 -0.002700 -0.007600
vn -0.998500 -0.055100 0.000300
vn -1.000000 0.000100 -0.000000
vn 0.991200 0.132300 -0.003800
vn -0.993700 -0.110400 0.018800
vn -0.441000 0.897400 0.013000
vn -0.294000 0.598100 -0.745600
vn -0.993300 -0.091800 0.070500
vn 0.032900 0.999400 0.011700
vn 0.016400 0.668000 -0.744000
vn -0.994400 -0.095100 -0.045600
vn -0.253900 0.612900 0.748300
vn -0.852100 -0.034300 0.522200
vn -0.870800 -0.016900 -0.491300
vn -0.814100 -0.032800 -0.579800
vn -0.792500 -0.053500 0.607500
vn -0.999900 0.000000 0.014700
vn 0.009100 0.021000 0.999700
vn -0.012500 0.057300 -0.998300
vn 0.009600 0.683400 0.729900
vn -0.413500 0.330600 0.848400
vn -0.368600 -0.647800 0.666700
vn -0.264600 -0.257700 0.929300
vn -0.175800 0.300900 0.937300
vn -0.749900 0.331100 0.572700
vn -0.548100 -0.770900 0.324600
vn -0.975800 0.217900 -0.020600
vn -0.843300 -0.505100 -0.183400
vn 0.178700 -0.807200 -0.562600
vn 0.554200 -0.694000 -0.459700
vn -0.366500 -0.528900 -0.765400
vn 0.188600 0.975400 0.114500
vn 0.372600 0.888200 0.268900
vn -0.147900 0.975800 -0.161100
vn -0.580800 0.640800 -0.502100
vn 0.762500 0.271800 -0.587100
vn 0.895400 0.247400 -0.370200
vn 0.426000 0.272300 -0.862800
vn -0.204300 0.179300 -0.962400
vn 0.847600 -0.313300 -0.428300
vn 0.145600 -0.138100 0.979700
vn -0.771300 -0.217500 0.598200
vn -0.702600 -0.457700 0.544900
vn -0.257600 -0.384500 0.886500
vn -0.807300 -0.217500 -0.548700
vn -0.735300 -0.457700 -0.499800
vn 0.272300 -0.217500 -0.937300
vn 0.248100 -0.457800 -0.853800
vn 0.964500 -0.138100 -0.225200
vn 0.729400 -0.384500 -0.565800
vn -0.807300 0.217500 -0.548700
vn 0.272300 0.217500 -0.937300
vn -0.771300 0.217500 0.598200
vn 0.330600 0.217500 0.918400
vn 0.975600 0.217500 -0.030600
vn -0.529600 0.768100 -0.359900
vn 0.178700 0.768100 -0.614900
vn -0.506000 0.768100 0.392400
vn 0.216900 0.768100 0.602500
vn 0.640000 0.768100 -0.020100
vn -0.759500 -0.650400 0.005000
vn 0.740000 -0.672600 0.001600
vn -0.000000 -0.660300 0.751000
vn -0.000000 -1.000000 -0.007300
vn -0.000000 -0.659800 -0.751500
vn -0.718800 0.031100 0.694500
vn 0.703000 0.025600 0.710700
vn 0.713400 0.040600 -0.699600
vn -0.717500 0.061400 -0.693800
vn -0.998400 0.057000 -0.003100
vn -0.998700 0.051500 -0.000900
vn 0.028400 0.999500 0.012800
vn -0.069700 0.997000 0.032800
vn -0.662800 0.577300 0.476900
vn -0.595100 -0.003900 0.803700
vn 0.586500 -0.013700 0.809800
vn -0.548800 -0.834700 -0.045600
vn 0.539400 -0.841000 -0.042300
vn 0.675800 0.581600 0.452700
vn 0.516100 0.853500 -0.072000
vn -0.598900 0.032400 -0.800200
vn -0.703900 0.561600 -0.434900
vn 0.589700 0.026300 -0.807200
vn 0.268000 0.767300 -0.582500
vn 0.537100 -0.843500 -0.000400
vn -0.546700 -0.837300 0.004100
vn 0.910100 -0.414300 -0.006600
vn -0.916000 -0.401200 -0.005700
vn -0.885600 0.464400 -0.009200
vn -0.838100 0.007700 -0.545400
vn -0.845600 0.011500 0.533600
vn -0.999400 0.033600 -0.002600
vn -0.706000 -0.002300 -0.708200
vn -0.719300 0.003100 0.694700
vn 0.702600 0.006700 0.711600
vn 0.826900 0.001200 0.562400
vn 0.839700 -0.003500 -0.543100
vn 0.704800 0.002600 -0.709400
vn 0.999700 -0.024700 0.005500
vn -0.000500 0.001400 -1.000000
vn -0.001800 -0.000800 -1.000000
vn -0.636900 -0.484200 -0.599900
vn 0.636000 -0.493300 -0.593400
vn 0.699800 0.040800 -0.713200
vn -0.727300 0.063800 -0.683400
vn -0.732300 0.033500 0.680200
vn -0.624700 -0.500100 0.599700
vn 0.653900 -0.360500 -0.665100
vn 0.654900 -0.360500 0.664200
vn 0.625200 -0.509400 0.591300
vn -0.654900 -0.360500 -0.664200
vn -0.653900 -0.360500 0.665100
vn 0.339100 0.895300 -0.288800
vn 0.339500 0.895300 0.288500
vn 0.649100 0.381500 0.658100
vn 0.648200 0.381600 -0.659000
vn -0.339500 0.895300 -0.288400
vn -0.649100 0.381500 -0.658100
vn -0.339100 0.895300 0.288900
vn -0.648200 0.381500 0.659000
vn 0.717200 0.006500 0.696900
# 181 normals

g house3
usemtl 08___Default
s 1
f 1/1/1 2/2/2 3/3/3
f 4/4/4 5/5/5 1/1/1
f 1/1/1 3/3/3 4/4/4
f 6/6/6 7/7/7 5/8/5
f 5/8/5 4/9/4 6/6/6
f 5/5/5 8/10/8 1/1/1
f 9/11/9 1/1/1 8/10/8
f 10/12/10 11/13/11 2/14/2
f 2/14/2 1/1/1 10/12/10
f 12/15/12 10/12/10 1/1/1
f 1/1/1 9/16/9 12/15/12
f 9/16/9 13/17/13 12/18/12
f 10/9/10 12/8/12 14/7/14
f 14/7/14 15/6/15 10/9/10
f 16/19/16 8/20/8 5/21/5
f 5/21/5 7/22/7 16/19/16
f 12/21/12 13/20/13 16/19/16
f 16/19/16 14/22/14 12/21/12
f 16/19/16 17/23/17 8/20/8
f 18/24/18 19/25/19 7/26/7
f 7/26/7 6/27/6 18/24/18
f 20/28/20 21/29/21 15/30/15
f 15/30/15 14/31/14 20/28/20
f 4/21/4 3/32/3 22/19/22
f 22/19/22 6/22/6 4/21/4
f 3/32/3 23/33/23 22/19/22
f 22/19/22 23/33/23 11/32/11
f 10/21/10 15/22/15 22/19/22
f 22/19/22 11/32/11 10/21/10
f 24/34/24 25/35/25 26/36/26
f 26/36/26 27/37/27 24/34/24
f 28/38/28 29/39/29 30/35/30
f 28/38/28 30/35/30 31/40/31
f 28/38/28 31/41/31 32/42/32
f 28/38/28 32/42/32 33/39/33
f 34/43/34 27/44/27 35/45/35
f 35/45/35 36/46/36 34/43/34
f 37/47/37 24/48/24 27/44/27
f 27/44/27 34/43/34 37/47/37
f 36/49/36 38/50/38 39/36/39
f 39/36/39 34/37/34 36/49/36
f 34/37/34 39/36/39 40/35/40
f 40/35/40 37/34/37 34/37/34
f 40/51/40 41/35/41 32/40/32
f 40/51/40 32/40/32 37/52/37
f 42/53/42 43/54/43 44/55/44
f 44/55/44 29/56/29 42/53/42
f 29/56/29 28/55/28 45/54/45
f 45/54/45 42/53/42 29/56/29
f 46/54/46 45/53/45 28/56/28
f 28/56/28 33/55/33 46/54/46
f 43/53/43 46/54/46 33/55/33
f 33/55/33 44/56/44 43/53/43
f 47/57/47 48/58/48 49/59/49
f 49/59/49 50/60/50 47/57/47
f 51/58/51 47/57/47 50/60/50
f 50/60/50 52/59/52 51/58/51
f 53/58/53 51/57/51 52/60/52
f 52/60/52 54/59/54 53/58/53
f 54/59/54 49/60/49 48/57/48
f 48/57/48 53/58/53 54/59/54
f 21/61/21 18/62/18 55/63/55
f 18/64/18 21/65/21 56/66/56
f 18/64/18 56/66/56 57/67/57
f 57/68/57 58/69/58 19/65/19
f 57/68/57 19/65/19 18/70/18
f 58/66/58 59/71/59 20/64/20
f 58/66/58 20/64/20 19/65/19
f 19/61/19 20/62/20 60/72/60
f 11/13/11 23/2/23 2/14/2
f 23/73/23 3/74/3 2/75/2
f 13/17/13 9/16/9 17/76/17
f 17/77/17 9/78/9 8/79/8
f 20/64/20 59/68/59 61/80/61
f 20/64/20 61/80/61 62/81/62
f 63/82/63 56/69/56 21/83/21
f 63/82/63 21/83/21 62/81/62
f 51/84/51 53/85/53 48/86/48
f 48/86/48 47/87/47 51/84/51
f 29/38/29 44/88/44 41/42/41
f 29/38/29 41/42/41 30/89/30
f 27/37/27 26/36/26 64/50/64
f 64/50/64 35/49/35 27/37/27
f 50/60/50 49/59/49 43/54/43
f 43/54/43 42/53/42 50/60/50
f 52/59/52 50/60/50 42/53/42
f 42/53/42 45/54/45 52/59/52
f 54/59/54 52/60/52 45/53/45
f 45/53/45 46/54/46 54/59/54
f 49/60/49 54/59/54 46/54/46
f 46/54/46 43/53/43 49/60/49
f 62/81/62 61/80/61 63/82/63
f 13/20/13 17/23/17 16/19/16
f 65/90/65 66/16/66 67/18/67
f 67/18/67 68/91/68 65/90/65
f 66/16/66 69/2/69 70/92/70
f 70/92/70 67/18/67 66/16/66
f 71/91/71 72/93/72 66/16/66
f 66/16/66 65/90/65 71/91/71
f 73/94/73 74/95/74 75/96/75
f 75/96/75 76/97/76 73/94/73
f 74/95/74 73/94/73 77/98/77
f 73/99/73 76/100/76 78/101/78
f 75/100/75 74/99/74 79/101/79
f 69/1/69 66/16/66 72/22/72
f 72/22/72 80/102/80 69/1/69
f 81/103/81 82/104/82 83/105/83
f 83/105/83 84/106/84 81/103/81
f 85/107/85 86/108/86 82/104/82
f 82/104/82 81/103/81 85/107/85
f 87/109/87 88/110/88 86/108/86
f 86/108/86 85/107/85 87/109/87
f 86/108/86 89/111/89 90/112/90
f 90/112/90 82/104/82 86/108/86
f 88/110/88 91/113/91 89/111/89
f 89/111/89 86/108/86 88/110/88
f 92/114/92 81/103/81 84/106/84
f 84/106/84 93/115/93 92/114/92
f 94/116/94 85/107/85 81/103/81
f 81/103/81 92/114/92 94/116/94
f 95/117/95 87/109/87 85/107/85
f 85/107/85 94/116/94 95/117/95
f 96/118/96 92/114/92 93/115/93
f 93/115/93 97/119/97 96/118/96
f 98/120/98 94/116/94 92/114/92
f 92/114/92 96/118/96 98/120/98
f 99/121/99 95/117/95 94/116/94
f 94/116/94 98/120/98 99/121/99
f 90/112/90 96/118/96 97/119/97
f 97/119/97 100/122/100 90/112/90
f 89/111/89 98/120/98 96/118/96
f 96/118/96 90/112/90 89/111/89
f 91/113/91 99/121/99 98/120/98
f 98/120/98 89/111/89 91/113/91
f 101/112/101 102/118/102 103/119/103
f 103/119/103 104/122/104 101/112/101
f 102/118/102 105/114/105 106/115/106
f 106/115/106 103/119/103 102/118/102
f 105/114/105 107/103/107 108/106/108
f 108/106/108 106/115/106 105/114/105
f 107/103/107 109/104/109 110/105/110
f 110/105/110 108/106/108 107/103/107
f 111/116/111 112/107/112 107/103/107
f 107/103/107 105/114/105 111/116/111
f 105/114/105 102/118/102 113/120/113
f 113/120/113 111/116/111 105/114/105
f 102/118/102 101/112/101 114/111/114
f 114/111/114 113/120/113 102/118/102
f 101/112/101 109/104/109 115/108/115
f 115/108/115 114/111/114 101/112/101
f 109/104/109 107/103/107 112/107/112
f 112/107/112 115/108/115 109/104/109
f 116/117/116 117/109/117 112/107/112
f 112/107/112 111/116/111 116/117/116
f 111/116/111 113/120/113 118/121/118
f 118/121/118 116/117/116 111/116/111
f 113/120/113 114/111/114 119/113/119
f 119/113/119 118/121/118 113/120/113
f 114/111/114 115/108/115 120/110/120
f 120/110/120 119/113/119 114/111/114
f 115/108/115 112/107/112 117/109/117
f 117/109/117 120/110/120 115/108/115
f 95/123/95 99/124/99 88/125/88
f 88/125/88 87/126/87 95/123/95
f 88/125/88 99/124/99 91/127/91
f 120/125/120 117/126/117 116/123/116
f 120/125/120 116/123/116 118/124/118
f 120/125/120 118/124/118 119/127/119
f 16/128/16 121/129/121 6/130/6
f 6/130/6 22/31/22 16/128/16
f 122/128/122 16/129/16 22/130/22
f 22/130/22 15/31/15 122/128/122
f 65/131/65 68/132/68 123/133/123
f 123/133/123 124/134/124 65/131/65
f 71/135/71 65/136/65 124/137/124
f 124/137/124 125/138/125 71/135/71
f 25/51/25 24/52/24 31/40/31
f 25/51/25 31/40/31 30/35/30
f 31/41/31 24/139/24 37/140/37
f 31/41/31 37/140/37 32/42/32
f 41/35/41 44/39/44 33/38/33
f 41/35/41 33/38/33 32/40/32
f 40/141/40 25/142/25 30/89/30
f 40/141/40 30/89/30 41/42/41
f 57/143/57 56/144/56 126/145/126
f 57/143/57 126/145/126 127/146/127
f 127/147/127 128/148/128 58/144/58
f 127/147/127 58/144/58 57/149/57
f 128/145/128 129/146/129 59/143/59
f 128/145/128 59/143/59 58/144/58
f 59/31/59 129/150/129 130/151/130
f 59/31/59 130/151/130 61/152/61
f 131/150/131 126/151/126 56/152/56
f 131/150/131 56/152/56 63/31/63
f 130/153/130 131/154/131 63/155/63
f 130/153/130 63/155/63 61/156/61
f 132/1/132 133/2/133 134/3/134
f 135/4/135 136/5/136 132/1/132
f 132/1/132 134/3/134 135/4/135
f 137/6/137 138/7/138 136/8/136
f 136/8/136 135/9/135 137/6/137
f 136/5/136 139/10/139 132/1/132
f 140/11/140 132/1/132 139/10/139
f 141/12/141 142/13/142 133/14/133
f 133/14/133 132/1/132 141/12/141
f 143/15/143 141/12/141 132/1/132
f 132/1/132 140/11/140 143/15/143
f 140/11/140 144/17/144 143/18/143
f 141/9/141 143/8/143 145/7/145
f 145/7/145 146/6/146 141/9/141
f 136/21/136 138/22/138 147/19/147
f 136/21/136 147/19/147 139/20/139
f 147/19/147 145/22/145 143/21/143
f 147/19/147 143/21/143 144/20/144
f 147/19/147 140/23/140 139/20/139
f 135/21/135 134/32/134 148/19/148
f 148/19/148 137/22/137 135/21/135
f 134/32/134 149/33/149 148/19/148
f 148/19/148 149/33/149 142/32/142
f 141/21/141 146/22/146 148/19/148
f 148/19/148 142/32/142 141/21/141
f 150/157/150 151/158/151 152/159/152
f 153/145/153 154/146/154 151/158/151
f 151/158/151 150/157/150 153/145/153
f 154/147/154 155/148/155 156/160/156
f 154/147/154 156/160/156 151/161/151
f 157/158/157 156/157/156 155/145/155
f 155/145/155 158/146/158 157/158/157
f 156/157/156 157/158/157 159/162/159
f 142/13/142 149/2/149 133/14/133
f 149/73/149 134/74/134 133/75/133
f 160/151/160 161/152/161 157/31/157
f 157/31/157 158/150/158 160/151/160
f 150/152/150 162/31/160 163/150/160
f 163/150/160 153/151/153 150/152/150
f 162/155/160 161/156/161 160/153/160
f 160/153/160 163/154/160 162/155/160
f 144/20/144 140/23/140 147/19/147
f 137/130/137 148/31/148 147/128/147
f 137/130/137 147/128/147 138/129/138
f 145/128/145 147/129/147 148/130/148
f 148/130/148 146/31/146 145/128/145
f 164/38/162 165/39/163 166/35/164
f 164/38/162 166/35/164 167/40/165
f 164/38/162 167/41/165 168/42/166
f 164/38/162 168/42/166 169/39/167
f 170/53/168 171/54/169 172/55/170
f 172/55/170 165/56/163 170/53/168
f 165/56/163 164/55/162 173/54/171
f 173/54/171 170/53/168 165/56/163
f 174/54/172 173/53/171 164/56/162
f 164/56/162 169/55/167 174/54/172
f 171/53/169 174/54/172 169/55/167
f 169/55/167 172/56/170 171/53/169
f 175/57/173 176/58/174 177/59/175
f 177/59/175 178/60/176 175/57/173
f 179/58/177 175/57/173 178/60/176
f 178/60/176 180/59/178 179/58/177
f 181/58/179 179/57/177 180/60/178
f 180/60/178 182/59/180 181/58/179
f 182/59/180 177/60/175 176/57/174
f 176/57/174 181/58/179 182/59/180
f 179/84/177 181/85/179 176/86/174
f 176/86/174 175/87/173 179/84/177
f 165/38/163 172/88/170 183/42/181
f 165/38/163 183/42/181 166/89/164
f 178/60/176 177/59/175 171/54/169
f 171/54/169 170/53/168 178/60/176
f 180/59/178 178/60/176 170/53/168
f 170/53/168 173/54/171 180/59/178
f 182/59/180 180/60/178 173/53/171
f 173/53/171 174/54/172 182/59/180
f 177/60/175 182/59/180 174/54/172
f 174/54/172 171/53/169 177/60/175
f 183/35/181 172/39/170 169/38/167
f 183/35/181 169/38/167 168/40/166
# 276 triangles in group

# 276 triangles total

