# Wavefront OBJ exported by MilkShape 3D

mtllib magic_1.mtl

v 2.117800 0.028600 1.222700
v 2.117800 0.028600 -1.222700
v 2.020300 0.653900 -1.166400
v 2.020300 0.653900 1.166400
v -0.000000 0.028600 -2.445500
v -0.000000 0.653900 -2.332800
v -2.117800 0.028600 -1.222700
v -2.020300 0.653900 -1.166400
v -2.117800 0.028600 1.222700
v -2.020300 0.653900 1.166400
v 0.000000 0.028600 2.445500
v 0.000000 0.653900 2.332800
v 0.920700 0.612000 -3.007100
v 1.177500 0.632200 -3.286300
v 1.237800 0.231000 -3.041200
v 1.167400 0.664200 -2.727300
v 1.424300 0.684500 -3.006500
v 1.193500 0.916100 -3.006500
v 2.703500 0.551500 -2.122300
v 3.004100 0.571700 -1.890800
v 2.765100 0.170400 -1.809300
v 2.446300 0.603700 -1.852100
v 2.746800 0.623900 -1.620600
v 2.726700 0.855600 -1.850500
v 2.455200 0.551500 1.787600
v 2.675400 0.571700 1.596200
v 2.757000 0.170400 1.799600
v 2.714400 0.603700 2.071100
v 2.945700 0.623900 1.815100
v 2.715800 0.855600 1.832300
v 1.396500 0.634000 2.925700
v 1.138900 0.654200 3.204200
v 1.079300 0.252900 2.958900
v 1.150500 0.686200 2.645200
v 0.892900 0.706400 2.923700
v 1.123700 0.938100 2.924400
v -0.327000 3.226200 -0.010900
v -0.191500 3.412500 -0.431900
v -0.228100 2.740300 -0.249400
v -0.218300 2.676100 -0.010900
v 0.077500 3.268800 -0.503700
v -0.145900 3.535200 -0.010900
v 0.085600 3.630300 -0.354100
v 0.038900 2.740300 -0.377300
v 0.318100 2.740300 -0.279000
v 0.525600 3.268800 -0.377900
v 0.620300 3.268800 -0.010900
v 0.398200 2.740300 -0.010900
v 0.555600 1.168000 -0.573900
v 0.440400 2.340000 -0.352900
v 0.449200 2.340000 -0.010900
v 0.799200 0.992000 -0.010900
v 0.025200 2.340000 -0.472100
v 0.005600 1.036600 -0.863900
v -0.441200 1.168000 -0.519700
v -0.308100 2.340000 -0.312400
v -0.563900 0.886400 -0.010900
v -0.295700 2.189600 -0.010900
v 0.375900 3.633800 -0.661300
v 0.070400 3.400000 -0.634300
v 0.061800 3.693000 -0.794300
v -0.236100 3.633800 -0.628200
v 0.077800 3.660500 -0.497800
v 0.102100 3.630900 -0.010900
v 0.253800 4.401300 -0.348200
v 0.472300 4.388400 -0.010900
v 0.229600 4.545600 -0.010900
v -0.170900 4.552900 -0.010900
v -0.084100 4.310400 -0.352000
v 0.020700 3.632400 -0.445200
v -0.349600 4.471300 -0.010900
v -0.166500 4.176800 -0.276500
v -0.126400 3.412500 -0.205800
v -0.228100 2.740300 0.227600
v -0.191500 3.412500 0.410000
v 0.077500 3.268800 0.481800
v 0.085600 3.630300 0.332300
v 0.038900 2.740300 0.355500
v 0.318100 2.740300 0.257100
v 0.525600 3.268800 0.356100
v 0.555600 1.168000 0.552100
v 0.440400 2.340000 0.331000
v 0.025200 2.340000 0.450200
v 0.005600 1.036600 0.842000
v -0.441200 1.168000 0.497900
v -0.308100 2.340000 0.290500
v 0.375900 3.633800 0.639500
v 0.070400 3.400000 0.612400
v 0.061800 3.693000 0.772500
v -0.236100 3.633800 0.606400
v 0.077800 3.660500 0.476000
v 0.253800 4.401300 0.326400
v -0.084100 4.310400 0.330100
v 0.020700 3.632400 0.423400
v -0.166500 4.176800 0.254600
v -0.126400 3.412500 0.183900
v -0.209900 4.528100 -0.010500
v -0.322500 4.129300 -0.010500
v -0.084100 4.285600 0.308600
v 0.001000 3.755800 0.351000
v -0.150800 3.526400 -0.010500
v -0.084100 4.285600 -0.330400
v 0.001000 3.755800 -0.372000
v -0.227900 3.037600 -0.773300
v -0.111100 3.302700 -0.888400
v -0.224600 3.220900 -0.988000
v 0.144700 3.149600 -0.925900
v -0.532200 3.091800 -1.243300
v -0.248600 2.944600 -1.343900
v 0.018900 2.192400 -0.920100
v -0.098400 2.257400 -0.825900
v -0.537200 2.889800 -0.961000
v -0.045000 3.406200 -0.436000
v 0.043900 3.649700 -0.605100
v 0.136300 2.746800 -0.544100
v 0.170400 3.073600 -0.357900
v 0.259700 2.658100 -0.628800
v 0.290200 3.250500 -0.344000
v 0.237600 3.571600 -0.518900
v 0.286400 3.053000 -0.314500
v -0.608500 2.971300 -1.175200
v -0.581800 2.677500 -1.171500
v -0.401100 2.844200 -1.008300
v -0.504700 2.829600 -1.412200
v -0.324000 2.996300 -1.249100
v -0.297300 2.702500 -1.245300
v -0.282300 3.319800 0.659800
v -0.210100 3.566600 0.776400
v -0.063300 3.539300 0.691500
v 0.083900 3.338900 0.860300
v -0.562500 3.706400 0.957200
v -0.639400 3.412900 0.788600
v -0.546900 2.681600 1.048500
v -0.483400 2.631100 1.191000
v -0.393600 3.530600 1.187000
v 0.136000 3.592200 0.553300
v 0.082600 3.376500 0.276800
v -0.083500 2.840500 0.682300
v 0.127900 2.990000 0.298500
v -0.025400 2.764400 0.827500
v 0.313100 3.079100 0.311800
v 0.399500 3.439500 0.393200
v 0.186500 2.913700 0.290500
v -0.681000 3.608000 0.922100
v -0.546300 3.347700 0.888200
v -0.797900 3.364700 1.041400
v -0.678300 3.571300 1.214900
v -0.426700 3.554200 1.061700
v -0.543600 3.311000 1.181000
v -0.845800 3.942200 0.955300
v -0.506700 3.959800 0.929200
v -0.633400 3.667600 1.030600
v -0.814400 3.870300 1.266200
v -0.492100 3.887900 1.239100
v -0.674200 4.207100 1.135900
v -0.494800 1.854500 0.725800
v -0.707200 3.823600 1.004500
v -0.586500 3.822100 1.072800
v -0.705100 3.799600 1.141100
v 0.934200 0.457800 2.946300
v 1.151100 0.457800 3.163200
v 1.369500 0.457800 2.944800
v 1.152600 0.457800 2.727900
v 0.687400 -0.019800 2.947100
v 1.150300 -0.019800 3.410000
v 1.153400 -0.019800 2.481100
v 1.616300 -0.019800 2.944000
v 2.502000 0.457800 -1.856300
v 2.718900 0.457800 -1.639400
v 2.937200 0.457800 -1.857800
v 2.720300 0.457800 -2.074700
v 2.255100 -0.019800 -1.855500
v 2.718000 -0.019800 -1.392600
v 2.721200 -0.019800 -2.321500
v 3.184100 -0.019800 -1.858600
v 0.974300 0.457800 -3.008200
v 1.191200 0.457800 -2.791300
v 1.409600 0.457800 -3.009600
v 1.192700 0.457800 -3.226500
v 0.727500 -0.019800 -3.007300
v 1.190400 -0.019800 -2.544400
v 1.193500 -0.019800 -3.473400
v 1.656400 -0.019800 -3.010500
v 2.482800 0.457800 1.811700
v 2.699700 0.457800 2.028600
v 2.918100 0.457800 1.810300
v 2.701200 0.457800 1.593400
v 2.236000 -0.019800 1.812600
v 2.698900 -0.019800 2.275500
v 2.702000 -0.019800 1.346500
v 3.164900 -0.019800 1.809400
v -2.432600 0.612000 -2.525600
v -2.175800 0.632200 -2.804800
v -2.115500 0.231000 -2.559700
v -2.185900 0.664200 -2.245800
v -1.929000 0.684500 -2.525000
v -2.159800 0.916100 -2.525000
v -2.379000 0.457800 -2.526700
v -2.162100 0.457800 -2.309800
v -1.943800 0.457800 -2.528100
v -2.160600 0.457800 -2.745000
v -2.625900 -0.019800 -2.525800
v -2.163000 -0.019800 -2.062900
v -2.159800 -0.019800 -2.991900
v -1.696900 -0.019800 -2.529000
v -2.044400 0.634000 2.316400
v -2.301900 0.654200 2.594900
v -2.361600 0.252900 2.349700
v -2.290400 0.686200 2.035900
v -2.547900 0.706400 2.314400
v -2.317200 0.938100 2.315100
v -2.506700 0.457800 2.337000
v -2.289800 0.457800 2.553900
v -2.071400 0.457800 2.335500
v -2.288300 0.457800 2.118600
v -2.753500 -0.019800 2.337800
v -2.290600 -0.019800 2.800700
v -2.287500 -0.019800 1.871800
v -1.824600 -0.019800 2.334700
# 219 vertices

vt 0.875600 0.093400
vt 0.999300 0.093400
vt 0.999300 0.131400
vt 0.875600 0.131400
vt 0.563000 0.365700
vt 0.524100 0.343800
vt 0.524100 0.300100
vt 0.563000 0.278300
vt 0.601900 0.300100
vt 0.601900 0.343800
vt 0.410700 0.705800
vt 0.410700 0.729600
vt 0.385500 0.705800
vt 0.410700 0.681100
vt 0.410700 0.704500
vt 0.385500 0.692800
vt 0.423600 0.718100
vt 0.424000 0.693600
vt 0.927700 0.228800
vt 0.950500 0.235400
vt 0.941800 0.201300
vt 0.927700 0.197000
vt 0.963400 0.232500
vt 0.927700 0.272500
vt 0.961100 0.280000
vt 0.963200 0.203300
vt 0.981300 0.203400
vt 0.974400 0.236000
vt 0.998900 0.237900
vt 0.998800 0.203400
vt 0.981000 0.141300
vt 0.981100 0.176900
vt 0.998800 0.176800
vt 0.998800 0.136200
vt 0.962600 0.176700
vt 0.962100 0.134700
vt 0.941400 0.142600
vt 0.941500 0.176400
vt 0.927700 0.134100
vt 0.927700 0.176000
vt 0.994100 0.266500
vt 0.999700 0.264500
vt 0.993400 0.268500
vt 0.989800 0.268500
vt 0.951000 0.275600
vt 0.950400 0.277300
vt 0.954000 0.278600
vt 0.901000 0.181700
vt 0.880200 0.143400
vt 0.875400 0.182100
vt 0.900700 0.158300
vt 0.922000 0.146900
vt 0.902300 0.132600
vt 0.925900 0.181800
vt 0.924900 0.225200
vt 0.909300 0.213500
vt 0.900500 0.255700
vt 0.912600 0.266800
vt 0.901800 0.273100
vt 0.888500 0.273100
vt 0.886400 0.251400
vt 0.890000 0.207300
vt 0.874800 0.268000
vt 0.874800 0.244700
vt 0.874800 0.205800
vt 0.624100 0.366700
vt 0.616300 0.362700
vt 0.639300 0.366100
vt 0.634100 0.343600
vt 0.614600 0.336000
vt 0.913100 0.194100
vt 0.908900 0.186700
vt 0.912900 0.186800
vt 0.907100 0.194300
vt 0.657600 0.364800
vt 0.650300 0.359200
vt 0.653200 0.338400
vt 0.660600 0.340600
vt 0.662100 0.358300
vt 0.925300 0.186800
vt 0.925300 0.194200
vt 0.891100 0.190300
vt 0.889500 0.186800
vt 0.908200 0.208700
vt 0.925300 0.215000
vt 0.902300 0.202600
vt 0.908000 0.201400
vt 0.925300 0.202900
vt 0.891200 0.194500
vt 0.898700 0.199800
vt 0.915200 0.199400
vt 0.913400 0.201200
vt 0.915200 0.201200
vt 0.913400 0.199400
vt 0.911600 0.201200
vt 0.911600 0.199400
vt 0.909800 0.201200
vt 0.909800 0.199400
vt 0.915200 0.202900
vt 0.913400 0.202900
vt 0.911600 0.202900
vt 0.909800 0.202900
vt 0.820000 0.553000
vt 0.928300 0.550100
vt 0.928300 0.553200
vt 0.928300 0.556200
vt 0.712000 0.322300
vt 0.718300 0.322300
vt 0.718300 0.328600
vt 0.712000 0.328600
vt 0.700400 0.282000
vt 0.725600 0.282000
vt 0.725600 0.332200
vt 0.700400 0.332200
vt 0.673200 0.282000
vt 0.673200 0.332200
# 116 texture coordinates

vn 0.782600 0.428200 0.451800
vn 0.782600 0.428200 -0.451800
vn 0.552900 0.769600 -0.319200
vn 0.552900 0.769600 0.319200
vn 0.000000 0.428200 -0.903700
vn 0.000000 0.769600 -0.638500
vn -0.782600 0.428200 -0.451800
vn -0.552900 0.769600 -0.319200
vn -0.782600 0.428200 0.451800
vn -0.552900 0.769600 0.319200
vn 0.000000 0.428200 0.903700
vn 0.000000 0.769600 0.638500
vn -1.000000 -0.004300 0.007700
vn -0.037500 0.064500 -0.997200
vn 0.192700 -0.979200 -0.063500
vn -0.052400 0.063300 0.996600
vn 0.987300 0.155900 0.031000
vn -0.001800 0.999900 -0.017200
vn -0.094800 -0.004300 -0.995500
vn 0.990100 0.064500 -0.124300
vn 0.080100 -0.979200 0.186400
vn -0.997400 0.063300 0.034600
vn 0.055200 0.155900 0.986200
vn 0.016900 0.999900 -0.003300
vn -0.997800 -0.001200 -0.066500
vn -0.083900 0.076400 -0.993500
vn 0.183500 -0.981100 -0.061200
vn -0.022000 0.066300 0.997600
vn 0.986500 0.153800 -0.055400
vn -0.011900 0.999900 0.000900
vn 1.000000 -0.004300 -0.005000
vn 0.034900 0.064500 0.997300
vn -0.192900 -0.979200 0.063000
vn 0.055100 0.063300 -0.996500
vn -0.987200 0.155900 -0.033600
vn 0.001700 0.999900 0.017200
vn -0.967800 0.251500 -0.000000
vn -0.887000 0.207600 -0.412500
vn -0.875200 0.101600 -0.473000
vn -0.999900 -0.014100 -0.000000
vn -0.062600 -0.800300 -0.596300
vn -0.361900 0.932200 -0.000000
vn -0.078000 0.991300 0.105800
vn -0.075400 0.008900 -0.997100
vn 0.681100 -0.084600 -0.727300
vn 0.661700 -0.592700 -0.459200
vn 0.986200 -0.165300 0.000000
vn 0.957000 -0.290000 0.000000
vn 0.608700 0.551200 -0.570700
vn 0.702500 0.539400 -0.464400
vn 0.895800 0.444500 0.000000
vn 0.825800 0.563900 -0.000000
vn -0.067800 0.556700 -0.827900
vn -0.059500 0.620500 -0.781900
vn -0.719900 0.522000 -0.457400
vn -0.788400 0.480700 -0.383800
vn -0.879400 0.476000 0.000000
vn -0.923500 0.383600 0.000000
vn 0.705200 0.293600 -0.645400
vn -0.050500 -0.880700 -0.471100
vn -0.051700 0.286400 -0.956700
vn -0.900600 0.195900 -0.387900
vn 0.003600 0.997800 0.065800
vn -0.145200 0.989400 -0.000000
vn 0.707500 0.482100 -0.516800
vn 0.308700 0.699900 -0.644100
vn 0.749800 0.661600 0.000000
vn 0.117300 0.993100 0.000000
vn -0.116200 0.993200 -0.000000
vn -0.383300 0.566700 -0.729300
vn -0.284900 0.094300 -0.953900
vn -0.303700 0.952800 0.000000
vn -0.749500 0.090400 -0.655800
vn -0.785000 -0.246600 -0.568300
vn -0.875200 0.101600 0.473000
vn -0.887000 0.207600 0.412500
vn -0.062600 -0.800300 0.596300
vn -0.078000 0.991300 -0.105800
vn -0.075400 0.008900 0.997100
vn 0.681100 -0.084600 0.727300
vn 0.661700 -0.592700 0.459200
vn 0.608700 0.551200 0.570700
vn 0.702500 0.539400 0.464400
vn -0.067800 0.556700 0.827900
vn -0.059500 0.620500 0.781900
vn -0.719900 0.522000 0.457400
vn -0.788400 0.480700 0.383900
vn 0.705200 0.293600 0.645400
vn -0.050500 -0.880700 0.471100
vn -0.051700 0.286400 0.956700
vn -0.900600 0.195900 0.387900
vn 0.003600 0.997800 -0.065800
vn 0.308700 0.699900 0.644100
vn 0.707500 0.482100 0.516800
vn -0.383400 0.566700 0.729300
vn -0.284900 0.094300 0.953900
vn -0.749500 0.090400 0.655800
vn -0.785000 -0.246600 0.568300
vn -0.803000 0.596000 0.000500
vn -1.000000 -0.002000 0.000300
vn -0.796500 -0.043000 0.603100
vn -0.763100 -0.341600 0.548700
vn -0.800500 -0.599400 -0.000000
vn -0.797000 -0.045300 -0.602300
vn -0.762900 -0.342900 -0.548000
vn -0.659900 0.453200 0.599300
vn -0.208800 0.956400 -0.204000
vn -0.155800 0.987500 -0.023900
vn 0.701000 0.398500 -0.591400
vn -0.790900 0.233400 -0.565700
vn 0.063900 0.040800 -0.997100
vn 0.348500 -0.891200 -0.290300
vn -0.331700 -0.883200 0.331700
vn -0.953800 -0.037500 0.298100
vn -0.850700 -0.138400 0.507100
vn -0.193400 0.945500 -0.262100
vn -0.223600 -0.795300 0.563400
vn -0.390500 -0.726200 0.565800
vn 0.808100 -0.587000 0.048800
vn 0.988200 0.026900 -0.151100
vn 0.865200 0.366600 -0.342000
vn 0.758000 -0.586400 0.285600
vn -0.815300 0.551500 0.176700
vn -0.647600 -0.734300 0.203700
vn 0.248700 0.019600 0.968400
vn -0.248700 -0.019600 -0.968400
vn 0.647500 0.734300 -0.203700
vn 0.815300 -0.551500 -0.176700
vn -0.471300 0.237600 -0.849400
vn 0.017300 0.979600 -0.200300
vn -0.056200 0.998400 -0.011200
vn 0.711200 0.320700 0.625500
vn -0.561000 0.813700 0.152300
vn -0.826900 0.168900 -0.536400
vn -0.733100 -0.680100 -0.006500
vn -0.271200 -0.619700 0.736500
vn 0.005000 0.544400 0.838800
vn 0.101600 0.987700 0.119200
vn -0.707700 0.214700 -0.673100
vn -0.294200 -0.888500 -0.352200
vn -0.567000 -0.659800 -0.493100
vn 0.436600 -0.850700 0.292800
vn 0.605600 -0.746900 0.274600
vn 0.779400 -0.384000 0.495100
vn 0.121500 -0.988100 -0.094400
vn -0.384500 0.600800 -0.700900
vn 0.363700 -0.379100 -0.850900
vn -0.953600 -0.298000 -0.042500
vn -0.363700 0.379100 0.850900
vn 0.953600 0.298000 0.042500
vn 0.384500 -0.600700 0.700900
vn -0.785800 0.039200 -0.617200
vn 0.672300 0.118300 -0.730800
vn 0.077700 -0.968100 -0.238300
vn -0.645000 -0.145400 0.750200
vn 0.749100 -0.087000 0.656700
vn -0.030500 0.985600 0.166500
vn 0.203600 -0.888200 -0.411900
vn -0.674600 0.081700 -0.733700
vn 0.978600 0.025200 0.204400
vn -0.413200 -0.532400 0.738800
vn -0.435600 0.900200 -0.001200
vn 0.001200 0.900200 0.435600
vn 0.435600 0.900200 0.001200
vn -0.001200 0.900200 -0.435600
vn -0.592700 0.805500 0.000500
vn -0.000500 0.805500 0.592700
vn 0.000500 0.805500 -0.592700
vn 0.592700 0.805500 -0.000500
# 169 normals

g magic_1
usemtl 08___Defaultx
s 1
f 1/1/1 2/2/2 3/3/3
f 1/1/1 3/3/3 4/4/4
f 2/1/2 5/2/5 6/3/6
f 2/1/2 6/3/6 3/4/3
f 5/1/5 7/2/7 8/3/8
f 5/1/5 8/3/8 6/4/6
f 7/1/7 9/2/9 10/3/10
f 7/1/7 10/3/10 8/4/8
f 9/1/9 11/2/11 12/3/12
f 9/1/9 12/3/12 10/4/10
f 11/1/11 1/2/1 4/3/4
f 11/1/11 4/3/4 12/4/12
f 4/5/4 3/6/3 6/7/6
f 4/5/4 6/7/6 8/8/8
f 4/5/4 8/8/8 10/9/10
f 4/5/4 10/9/10 12/10/12
f 13/11/13 14/12/14 15/13/15
f 16/14/16 13/15/13 15/16/15
f 17/11/17 16/12/16 15/13/15
f 14/14/14 17/15/17 15/16/15
f 13/11/13 18/17/18 14/12/14
f 16/14/16 18/18/18 13/15/13
f 17/11/17 18/17/18 16/12/16
f 14/14/14 18/18/18 17/15/17
f 19/11/19 20/12/20 21/13/21
f 22/14/22 19/15/19 21/16/21
f 23/11/23 22/12/22 21/13/21
f 20/14/20 23/15/23 21/16/21
f 19/11/19 24/17/24 20/12/20
f 22/14/22 24/18/24 19/15/19
f 23/11/23 24/17/24 22/12/22
f 20/14/20 24/18/24 23/15/23
f 25/11/25 26/12/26 27/13/27
f 28/14/28 25/15/25 27/16/27
f 29/11/29 28/12/28 27/13/27
f 26/14/26 29/15/29 27/16/27
f 25/11/25 30/17/30 26/12/26
f 28/14/28 30/18/30 25/15/25
f 29/11/29 30/17/30 28/12/28
f 26/14/26 30/18/30 29/15/29
f 31/11/31 32/12/32 33/13/33
f 34/14/34 31/15/31 33/16/33
f 35/11/35 34/12/34 33/13/33
f 32/14/32 35/15/35 33/16/33
f 31/11/31 36/17/36 32/12/32
f 34/14/34 36/18/36 31/15/31
f 35/11/35 36/17/36 34/12/34
f 32/14/32 36/18/36 35/15/35
f 37/19/37 38/20/38 39/21/39
f 39/21/39 40/22/40 37/19/37
f 41/23/41 39/21/39 38/20/38
f 38/20/38 37/19/37 42/24/42
f 42/24/42 43/25/43 38/20/38
f 39/21/39 41/23/41 44/26/44
f 45/27/45 44/26/44 41/23/41
f 41/23/41 46/28/46 45/27/45
f 46/28/46 47/29/47 48/30/48
f 48/30/48 45/27/45 46/28/46
f 49/31/49 50/32/50 51/33/51
f 51/33/51 52/34/52 49/31/49
f 45/27/45 48/30/48 51/33/51
f 51/33/51 50/32/50 45/27/45
f 53/35/53 44/26/44 45/27/45
f 45/27/45 50/32/50 53/35/53
f 49/31/49 54/36/54 53/35/53
f 53/35/53 50/32/50 49/31/49
f 55/37/55 53/35/53 54/36/54
f 39/21/39 44/26/44 53/35/53
f 53/35/53 56/38/56 39/21/39
f 53/35/53 55/37/55 56/38/56
f 55/37/55 57/39/57 58/40/58
f 58/40/58 56/38/56 55/37/55
f 58/40/58 40/22/40 39/21/39
f 39/21/39 56/38/56 58/40/58
f 59/41/59 46/42/46 60/43/60
f 59/41/59 60/43/60 61/44/61
f 62/41/62 61/44/61 60/43/60
f 46/45/46 41/46/41 60/47/60
f 41/46/41 38/45/38 60/47/60
f 62/41/62 60/43/60 38/42/38
f 43/48/43 62/49/62 38/50/38
f 62/49/62 43/48/43 63/51/63
f 59/52/59 63/51/63 43/48/43
f 63/51/63 59/52/59 61/53/61
f 63/51/63 61/53/61 62/49/62
f 43/48/43 46/54/46 59/52/59
f 42/24/42 64/24/64 43/25/43
f 47/55/47 46/56/65 65/57/66
f 65/57/66 66/58/67 47/55/47
f 67/59/68 65/57/66 68/60/69
f 68/60/69 65/57/66 69/61/70
f 65/57/66 46/56/65 70/62/71
f 65/57/66 67/59/68 66/58/67
f 65/57/66 70/62/71 69/61/70
f 71/63/72 68/60/69 69/61/70
f 71/63/72 69/61/70 72/64/73
f 72/64/73 69/61/70 70/62/71
f 72/64/73 70/62/71 73/65/74
f 37/19/37 74/21/75 75/20/76
f 74/21/75 37/19/37 40/22/40
f 76/23/77 75/20/76 74/21/75
f 75/20/76 42/24/42 37/19/37
f 42/24/42 75/20/76 77/25/78
f 74/21/75 78/26/79 76/23/77
f 79/27/80 76/23/77 78/26/79
f 76/23/77 79/27/80 80/28/81
f 80/28/81 48/30/48 47/29/47
f 48/30/48 80/28/81 79/27/80
f 81/31/82 51/33/51 82/32/83
f 51/33/51 81/31/82 52/34/52
f 79/27/80 51/33/51 48/30/48
f 51/33/51 79/27/80 82/32/83
f 83/35/84 79/27/80 78/26/79
f 79/27/80 83/35/84 82/32/83
f 81/31/82 83/35/84 84/36/85
f 83/35/84 81/31/82 82/32/83
f 85/37/86 84/36/85 83/35/84
f 74/21/75 83/35/84 78/26/79
f 83/35/84 74/21/75 86/38/87
f 83/35/84 86/38/87 85/37/86
f 85/37/86 58/40/58 57/39/57
f 58/40/58 85/37/86 86/38/87
f 58/40/58 74/21/75 40/22/40
f 74/21/75 58/40/58 86/38/87
f 87/41/88 88/43/89 80/42/81
f 87/41/88 89/44/90 88/43/89
f 90/41/91 88/43/89 89/44/90
f 80/45/81 88/47/89 76/46/77
f 76/46/77 88/47/89 75/45/76
f 90/41/91 75/42/76 88/43/89
f 77/48/78 75/50/76 90/49/91
f 90/49/91 91/51/92 77/48/78
f 87/52/88 77/48/78 91/51/92
f 91/51/92 89/53/90 87/52/88
f 91/51/92 90/49/91 89/53/90
f 77/48/78 87/52/88 80/54/81
f 42/24/42 77/25/78 64/24/64
f 47/55/47 92/57/93 80/56/94
f 92/57/93 47/55/47 66/58/67
f 67/59/68 68/60/69 92/57/93
f 68/60/69 93/61/95 92/57/93
f 92/57/93 94/62/96 80/56/94
f 92/57/93 66/58/67 67/59/68
f 92/57/93 93/61/95 94/62/96
f 71/63/72 95/64/97 93/61/95
f 71/63/72 93/61/95 68/60/69
f 95/64/97 96/65/98 94/62/96
f 95/64/97 94/62/96 93/61/95
f 97/66/99 98/67/100 99/68/101
f 100/69/102 98/67/100 101/70/103
f 98/67/100 100/69/102 99/68/101
f 97/66/99 102/68/104 98/67/100
f 103/69/105 101/70/103 98/67/100
f 98/67/100 102/68/104 103/69/105
f 104/71/106 105/72/107 106/73/108
f 105/72/107 107/74/109 106/73/108
f 108/75/110 109/76/111 110/77/112
f 108/75/110 110/77/112 111/78/113
f 108/75/110 111/78/113 112/79/114
f 104/71/106 106/73/108 108/80/110
f 104/71/106 108/80/110 112/81/114
f 105/72/107 104/71/106 113/82/115
f 105/72/107 113/82/115 114/83/116
f 115/84/117 104/71/106 112/81/114
f 115/84/117 112/81/114 111/85/113
f 104/71/106 115/84/117 116/86/118
f 104/71/106 116/86/118 113/82/115
f 117/87/119 115/84/117 111/85/113
f 117/87/119 111/85/113 110/88/112
f 107/74/109 117/87/119 110/88/112
f 107/74/109 110/88/112 109/81/111
f 118/89/120 107/74/109 119/82/121
f 106/73/108 107/74/109 109/81/111
f 106/73/108 109/81/111 108/80/110
f 107/74/109 105/72/107 114/83/116
f 107/74/109 114/83/116 119/82/121
f 115/84/117 117/87/119 120/90/122
f 115/84/117 120/90/122 116/86/118
f 117/87/119 107/74/109 118/89/120
f 117/87/119 118/89/120 120/90/122
f 121/91/123 122/92/124 123/93/125
f 121/94/123 124/95/126 122/92/124
f 121/96/123 125/97/127 124/95/126
f 121/98/123 123/87/125 125/97/127
f 126/99/128 123/93/125 122/92/124
f 126/100/128 122/92/124 124/95/126
f 126/101/128 124/95/126 125/97/127
f 126/102/128 125/97/127 123/87/125
f 127/71/129 128/73/130 129/72/131
f 129/72/131 128/73/130 130/74/132
f 131/75/133 132/79/134 133/78/135
f 131/75/133 133/78/135 134/77/136
f 131/75/133 134/77/136 135/76/137
f 127/71/129 132/81/134 131/80/133
f 127/71/129 131/80/133 128/73/130
f 129/72/131 136/83/138 137/82/139
f 129/72/131 137/82/139 127/71/129
f 138/84/140 133/85/135 132/81/134
f 138/84/140 132/81/134 127/71/129
f 127/71/129 137/82/139 139/86/141
f 127/71/129 139/86/141 138/84/140
f 140/87/142 134/88/136 133/85/135
f 140/87/142 133/85/135 138/84/140
f 130/74/132 135/81/137 134/88/136
f 130/74/132 134/88/136 140/87/142
f 141/89/143 142/82/144 130/74/132
f 128/73/130 131/80/133 135/81/137
f 128/73/130 135/81/137 130/74/132
f 130/74/132 142/82/144 136/83/138
f 130/74/132 136/83/138 129/72/131
f 138/84/140 139/86/141 143/90/145
f 138/84/140 143/90/145 140/87/142
f 140/87/142 143/90/145 141/89/143
f 140/87/142 141/89/143 130/74/132
f 144/91/146 145/93/147 146/92/148
f 144/94/146 146/92/148 147/95/149
f 144/96/146 147/95/149 148/97/150
f 144/98/146 148/97/150 145/87/147
f 149/99/151 146/92/148 145/93/147
f 149/100/151 147/95/149 146/92/148
f 149/101/151 148/97/150 147/95/149
f 149/102/151 145/87/147 148/97/150
f 150/11/152 151/12/153 152/13/154
f 153/14/155 150/15/152 152/16/154
f 154/11/156 153/12/155 152/13/154
f 151/14/153 154/15/156 152/16/154
f 150/11/152 155/17/157 151/12/153
f 153/14/155 155/18/157 150/15/152
f 154/11/156 155/17/157 153/12/155
f 151/14/153 155/18/157 154/15/156
f 156/103/158 157/104/159 158/105/160
f 156/103/158 159/106/161 157/104/159
f 156/103/158 158/105/160 159/106/161
f 160/107/162 161/108/163 162/109/164
f 160/107/162 162/109/164 163/110/165
f 164/111/166 165/112/167 161/113/163
f 164/111/166 161/113/163 160/114/162
f 166/115/168 164/111/166 160/114/162
f 166/115/168 160/114/162 163/116/165
f 167/111/169 166/112/168 163/113/165
f 167/111/169 163/113/165 162/114/164
f 165/115/167 167/111/169 162/114/164
f 165/115/167 162/114/164 161/116/163
f 168/107/162 169/108/163 170/109/164
f 168/107/162 170/109/164 171/110/165
f 172/111/166 173/112/167 169/113/163
f 172/111/166 169/113/163 168/114/162
f 174/115/168 172/111/166 168/114/162
f 174/115/168 168/114/162 171/116/165
f 175/111/169 174/112/168 171/113/165
f 175/111/169 171/113/165 170/114/164
f 173/115/167 175/111/169 170/114/164
f 173/115/167 170/114/164 169/116/163
f 176/107/162 177/108/163 178/109/164
f 176/107/162 178/109/164 179/110/165
f 180/111/166 181/112/167 177/113/163
f 180/111/166 177/113/163 176/114/162
f 182/115/168 180/111/166 176/114/162
f 182/115/168 176/114/162 179/116/165
f 183/111/169 182/112/168 179/113/165
f 183/111/169 179/113/165 178/114/164
f 181/115/167 183/111/169 178/114/164
f 181/115/167 178/114/164 177/116/163
f 184/107/162 185/108/163 186/109/164
f 184/107/162 186/109/164 187/110/165
f 188/111/166 189/112/167 185/113/163
f 188/111/166 185/113/163 184/114/162
f 190/115/168 188/111/166 184/114/162
f 190/115/168 184/114/162 187/116/165
f 191/111/169 190/112/168 187/113/165
f 191/111/169 187/113/165 186/114/164
f 189/115/167 191/111/169 186/114/164
f 189/115/167 186/114/164 185/116/163
f 192/11/13 193/12/14 194/13/15
f 195/14/16 192/15/13 194/16/15
f 196/11/17 195/12/16 194/13/15
f 193/14/14 196/15/17 194/16/15
f 192/11/13 197/17/18 193/12/14
f 195/14/16 197/18/18 192/15/13
f 196/11/17 197/17/18 195/12/16
f 193/14/14 197/18/18 196/15/17
f 198/107/162 199/108/163 200/109/164
f 198/107/162 200/109/164 201/110/165
f 202/111/166 203/112/167 199/113/163
f 202/111/166 199/113/163 198/114/162
f 204/115/168 202/111/166 198/114/162
f 204/115/168 198/114/162 201/116/165
f 205/111/169 204/112/168 201/113/165
f 205/111/169 201/113/165 200/114/164
f 203/115/167 205/111/169 200/114/164
f 203/115/167 200/114/164 199/116/163
f 206/11/31 207/12/32 208/13/33
f 209/14/34 206/15/31 208/16/33
f 210/11/35 209/12/34 208/13/33
f 207/14/32 210/15/35 208/16/33
f 206/11/31 211/17/36 207/12/32
f 209/14/34 211/18/36 206/15/31
f 210/11/35 211/17/36 209/12/34
f 207/14/32 211/18/36 210/15/35
f 212/107/162 213/108/163 214/109/164
f 212/107/162 214/109/164 215/110/165
f 216/111/166 217/112/167 213/113/163
f 216/111/166 213/113/163 212/114/162
f 218/115/168 216/111/166 212/114/162
f 218/115/168 212/114/162 215/116/165
f 219/111/169 218/112/168 215/113/165
f 219/111/169 215/113/165 214/114/164
f 217/115/167 219/111/169 214/114/164
f 217/115/167 214/114/164 213/116/163
# 309 triangles in group

# 309 triangles total

