# Wavefront OBJ exported by MilkShape 3D

mtllib magic_2.mtl

v 2.124300 0.028700 1.226500
v 2.124300 0.028700 -1.226500
v 2.026500 0.655900 -1.170000
v 2.026500 0.655900 1.170000
v 0.000000 0.028700 -2.453000
v 0.000000 0.655900 -2.339900
v -2.124300 0.028700 -1.226500
v -2.026500 0.655900 -1.170000
v -2.124300 0.028700 1.226500
v -2.026500 0.655900 1.170000
v -0.000000 0.028700 2.453000
v -0.000000 0.655900 2.339900
v 0.923500 0.613900 -3.016300
v 1.181100 0.634200 -3.296400
v 1.241600 0.231700 -3.050500
v 1.171000 0.666200 -2.735700
v 1.428600 0.686600 -3.015700
v 1.197100 0.918900 -3.015700
v 2.711800 0.553100 -2.128800
v 3.013200 0.573500 -1.896600
v 2.773600 0.170900 -1.814900
v 2.453800 0.605500 -1.857800
v 2.755200 0.625800 -1.625500
v 2.735100 0.858200 -1.856200
v 2.462800 0.553100 1.793100
v 2.683600 0.573500 1.601100
v 2.765400 0.170900 1.805100
v 2.722700 0.605500 2.077400
v 2.954700 0.625800 1.820700
v 2.724100 0.858200 1.837900
v 1.400800 0.635900 2.934600
v 1.142400 0.656200 3.214000
v 1.082600 0.253700 2.968000
v 1.154000 0.688300 2.653300
v 0.895600 0.708600 2.932700
v 1.127100 0.941000 2.933300
v -0.328100 3.236000 -0.011000
v -0.192100 3.422900 -0.433200
v -0.228800 2.748700 -0.250200
v -0.218900 2.684300 -0.011000
v 0.077700 3.278800 -0.505200
v -0.146400 3.546000 -0.011000
v 0.085900 3.641400 -0.355200
v 0.039000 2.748700 -0.378500
v 0.319100 2.748700 -0.279800
v 0.527200 3.278800 -0.379100
v 0.622200 3.278800 -0.011000
v 0.399400 2.748700 -0.011000
v 0.557300 1.171600 -0.575700
v 0.441800 2.347200 -0.354000
v 0.450600 2.347200 -0.011000
v 0.801600 0.995100 -0.011000
v 0.025300 2.347200 -0.473500
v 0.005600 1.039800 -0.866500
v -0.442500 1.171600 -0.521300
v -0.309100 2.347200 -0.313400
v -0.565600 0.889100 -0.011000
v -0.296600 2.196300 -0.011000
v 0.377000 3.644900 -0.663400
v 0.070700 3.410400 -0.636200
v 0.062000 3.704300 -0.796800
v -0.236800 3.644900 -0.630200
v 0.078100 3.671700 -0.499400
v 0.102400 3.642100 -0.011000
v 0.254600 4.414800 -0.349300
v 0.473800 4.401800 -0.011000
v 0.230300 4.559500 -0.011000
v -0.171400 4.566900 -0.011000
v -0.084300 4.323600 -0.353100
v 0.020700 3.643500 -0.446600
v -0.167000 4.189600 -0.277300
v -0.350600 4.485000 -0.011000
v -0.126800 3.422900 -0.206400
v -0.228800 2.748700 0.228300
v -0.192100 3.422900 0.411200
v 0.077700 3.278800 0.483300
v 0.085900 3.641400 0.333300
v 0.039000 2.748700 0.356500
v 0.319100 2.748700 0.257900
v 0.527200 3.278800 0.357200
v 0.557300 1.171600 0.553700
v 0.441800 2.347200 0.332000
v 0.025300 2.347200 0.451600
v 0.005600 1.039800 0.844600
v -0.442500 1.171600 0.499400
v -0.309100 2.347200 0.291400
v 0.377000 3.644900 0.641400
v 0.070700 3.410400 0.614300
v 0.062000 3.704300 0.774800
v -0.236800 3.644900 0.608200
v 0.078100 3.671700 0.477400
v 0.254600 4.414800 0.327400
v -0.084300 4.323600 0.331200
v 0.020700 3.643500 0.424700
v -0.167000 4.189600 0.255400
v -0.126800 3.422900 0.184500
v -0.210600 4.542000 -0.010500
v -0.323500 4.141900 -0.010500
v -0.084300 4.298700 0.309600
v 0.001000 3.767300 0.352100
v -0.151300 3.537200 -0.010500
v -0.084300 4.298700 -0.331400
v 0.001000 3.767300 -0.373100
v -0.228600 3.046900 -0.775700
v -0.111400 3.312800 -0.891100
v -0.225300 3.230700 -0.991000
v 0.145200 3.159300 -0.928800
v -0.249400 2.953600 -1.348000
v 0.019000 2.199100 -0.922900
v -0.098700 2.264300 -0.828400
v -0.538900 2.898700 -0.963900
v -0.533900 3.101300 -1.247100
v 0.044000 3.660800 -0.606900
v -0.045100 3.416600 -0.437300
v 0.136700 2.755200 -0.545800
v 0.170900 3.083000 -0.359000
v 0.260500 2.666200 -0.630700
v 0.291100 3.260500 -0.345000
v 0.238300 3.582500 -0.520500
v 0.287300 3.062300 -0.315400
v -0.610400 2.980400 -1.178800
v -0.583600 2.685700 -1.175000
v -0.402300 2.852900 -1.011400
v -0.506200 2.838300 -1.416600
v -0.325000 3.005400 -1.252900
v -0.298200 2.710700 -1.249200
v -0.283200 3.329900 0.661900
v -0.210700 3.577500 0.778700
v -0.063500 3.550100 0.693600
v 0.084200 3.349100 0.862900
v -0.548500 2.689800 1.051700
v -0.484900 2.639200 1.194700
v -0.394800 3.541400 1.190600
v -0.564200 3.717800 0.960100
v -0.641400 3.423300 0.791000
v 0.136400 3.603200 0.555000
v 0.082900 3.386900 0.277700
v -0.083800 2.849200 0.684400
v 0.128300 2.999200 0.299400
v -0.025500 2.772800 0.830000
v 0.314100 3.088500 0.312800
v 0.400700 3.450000 0.394400
v 0.187100 2.922600 0.291400
v -0.683100 3.619000 0.924900
v -0.548000 3.357900 0.891000
v -0.800300 3.375000 1.044600
v -0.680300 3.582200 1.218600
v -0.428000 3.565100 1.064900
v -0.545200 3.321100 1.184600
v -0.848400 3.954300 0.958200
v -0.508300 3.972000 0.932000
v -0.635300 3.678800 1.033800
v -0.816800 3.882100 1.270000
v -0.493600 3.899800 1.242900
v -0.676300 4.220000 1.139400
v -0.496300 1.860200 0.728000
v -0.709400 3.835300 1.007600
v -0.588300 3.833800 1.076100
v -0.707300 3.811200 1.144600
v 0.937100 0.459200 2.955300
v 1.154600 0.459200 3.172800
v 1.373600 0.459200 2.953800
v 1.156100 0.459200 2.736300
v 0.689500 -0.019900 2.956100
v 1.153800 -0.019900 3.420400
v 1.156900 -0.019900 2.488700
v 1.621200 -0.019900 2.953000
v 2.509600 0.459200 -1.862000
v 2.727200 0.459200 -1.644400
v 2.946200 0.459200 -1.863500
v 2.728700 0.459200 -2.081000
v 2.262000 -0.019900 -1.861100
v 2.726400 -0.019900 -1.396800
v 2.729500 -0.019900 -2.328600
v 3.193800 -0.019900 -1.864300
v 0.977300 0.459200 -3.017400
v 1.194800 0.459200 -2.799800
v 1.413900 0.459200 -3.018800
v 1.196300 0.459200 -3.236400
v 0.729700 -0.019900 -3.016500
v 1.194000 -0.019900 -2.552200
v 1.197200 -0.019900 -3.484000
v 1.661500 -0.019900 -3.019700
v 2.490400 0.459200 1.817300
v 2.708000 0.459200 2.034800
v 2.927000 0.459200 1.815800
v 2.709400 0.459200 1.598300
v 2.242800 -0.019900 1.818100
v 2.707100 -0.019900 2.282400
v 2.710300 -0.019900 1.350600
v 3.174600 -0.019900 1.815000
v -2.440100 0.613900 -2.533300
v -2.182500 0.634200 -2.813400
v -2.122000 0.231700 -2.567500
v -2.192600 0.666200 -2.252700
v -1.935000 0.686600 -2.532700
v -2.166400 0.918900 -2.532700
v -2.386300 0.459200 -2.534400
v -2.168700 0.459200 -2.316800
v -1.949700 0.459200 -2.535900
v -2.167300 0.459200 -2.753400
v -2.633900 -0.019900 -2.533500
v -2.169600 -0.019900 -2.069200
v -2.166400 -0.019900 -3.001000
v -1.702100 -0.019900 -2.536700
v -2.050600 0.635900 2.323500
v -2.309000 0.656200 2.602900
v -2.368800 0.253700 2.356900
v -2.297400 0.688300 2.042200
v -2.555700 0.708600 2.321500
v -2.324200 0.941000 2.322200
v -2.514300 0.459200 2.344200
v -2.296800 0.459200 2.561700
v -2.077700 0.459200 2.342700
v -2.295300 0.459200 2.125100
v -2.761900 -0.019900 2.345000
v -2.297600 -0.019900 2.809300
v -2.294500 -0.019900 1.877500
v -1.830100 -0.019900 2.341800
# 219 vertices

vt 0.875600 0.093400
vt 0.999300 0.093400
vt 0.999300 0.131400
vt 0.875600 0.131400
vt 0.563000 0.278300
vt 0.601900 0.300100
vt 0.601900 0.343800
vt 0.563000 0.365700
vt 0.524100 0.343800
vt 0.524100 0.300100
vt 0.410700 0.705800
vt 0.410700 0.729600
vt 0.385500 0.705800
vt 0.410700 0.681100
vt 0.410700 0.704500
vt 0.385500 0.692800
vt 0.423600 0.718100
vt 0.424000 0.693600
vt 0.927700 0.228800
vt 0.950500 0.235400
vt 0.941800 0.201300
vt 0.927700 0.197000
vt 0.963400 0.232500
vt 0.927700 0.272500
vt 0.961100 0.280000
vt 0.963200 0.203300
vt 0.981300 0.203400
vt 0.974400 0.236000
vt 0.998900 0.237900
vt 0.998800 0.203400
vt 0.981000 0.141300
vt 0.981100 0.176900
vt 0.998800 0.176800
vt 0.998800 0.136200
vt 0.962600 0.176700
vt 0.962100 0.134700
vt 0.941400 0.142600
vt 0.941500 0.176400
vt 0.927700 0.134100
vt 0.927700 0.176000
vt 0.994100 0.266500
vt 0.999700 0.264500
vt 0.993400 0.268500
vt 0.989800 0.268500
vt 0.951000 0.275600
vt 0.950400 0.277300
vt 0.954000 0.278600
vt 0.901000 0.181700
vt 0.880200 0.143400
vt 0.875400 0.182100
vt 0.900700 0.158300
vt 0.922000 0.146900
vt 0.902300 0.132600
vt 0.925900 0.181800
vt 0.924900 0.225200
vt 0.909300 0.213500
vt 0.900500 0.255700
vt 0.912600 0.266800
vt 0.901800 0.273100
vt 0.888500 0.273100
vt 0.886400 0.251400
vt 0.890000 0.207300
vt 0.874800 0.244700
vt 0.874800 0.268000
vt 0.874800 0.205800
vt 0.624100 0.366700
vt 0.616300 0.362700
vt 0.639300 0.366100
vt 0.634100 0.343600
vt 0.614600 0.336000
vt 0.629000 0.317700
vt 0.636600 0.332300
vt 0.629300 0.332200
vt 0.639800 0.317400
vt 0.650300 0.359200
vt 0.653200 0.338400
vt 0.660600 0.340600
vt 0.662100 0.358300
vt 0.657600 0.364800
vt 0.607100 0.317600
vt 0.607100 0.332200
vt 0.671400 0.332200
vt 0.671400 0.317600
vt 0.640200 0.281400
vt 0.607100 0.281800
vt 0.671400 0.282000
vt 0.639400 0.303500
vt 0.638500 0.281200
vt 0.607100 0.302700
vt 0.671400 0.310500
vt 0.671400 0.295500
vt 0.624100 0.301600
vt 0.633300 0.292400
vt 0.624100 0.292400
vt 0.633300 0.301600
vt 0.642600 0.292400
vt 0.642600 0.301600
vt 0.651800 0.292400
vt 0.651800 0.301600
vt 0.661000 0.292400
vt 0.624100 0.283300
vt 0.633300 0.283300
vt 0.642600 0.283300
vt 0.651800 0.283300
vt 0.820000 0.553000
vt 0.928300 0.550100
vt 0.928300 0.553200
vt 0.928300 0.556200
vt 0.712000 0.322300
vt 0.718300 0.322300
vt 0.718300 0.328600
vt 0.712000 0.328600
vt 0.700400 0.282000
vt 0.725600 0.282000
vt 0.725600 0.332200
vt 0.700400 0.332200
vt 0.673200 0.282000
vt 0.673200 0.332200
# 118 texture coordinates

vn 0.782600 0.428200 0.451800
vn 0.782600 0.428200 -0.451800
vn -0.000000 0.428200 -0.903700
vn -0.782600 0.428200 -0.451800
vn -0.782600 0.428200 0.451800
vn 0.000000 0.428200 0.903700
vn 0.000000 1.000000 -0.000000
vn -1.000000 -0.004300 0.007700
vn -0.037500 0.064500 -0.997200
vn 0.192700 -0.979200 -0.063500
vn -0.052400 0.063300 0.996600
vn 0.987300 0.155900 0.031000
vn -0.001800 0.999900 -0.017200
vn -0.094800 -0.004300 -0.995500
vn 0.990100 0.064500 -0.124300
vn 0.080100 -0.979200 0.186400
vn -0.997400 0.063300 0.034600
vn 0.055200 0.155900 0.986200
vn 0.016900 0.999900 -0.003300
vn -0.997800 -0.001200 -0.066500
vn -0.083900 0.076400 -0.993500
vn 0.183500 -0.981100 -0.061200
vn -0.022000 0.066300 0.997600
vn 0.986500 0.153800 -0.055400
vn -0.011900 0.999900 0.000900
vn 1.000000 -0.004300 -0.005000
vn 0.034900 0.064500 0.997300
vn -0.192900 -0.979200 0.063000
vn 0.055100 0.063300 -0.996500
vn -0.987200 0.155900 -0.033600
vn 0.001700 0.999900 0.017200
vn -0.967800 0.251500 -0.000000
vn -0.887000 0.207600 -0.412500
vn -0.875200 0.101600 -0.473000
vn -0.999900 -0.014100 -0.000000
vn -0.062600 -0.800300 -0.596300
vn -0.361900 0.932200 -0.000000
vn -0.078000 0.991300 0.105800
vn -0.075400 0.008900 -0.997100
vn 0.681100 -0.084600 -0.727300
vn 0.661700 -0.592700 -0.459200
vn 0.986200 -0.165300 0.000000
vn 0.957000 -0.290000 0.000000
vn 0.608700 0.551200 -0.570700
vn 0.702500 0.539400 -0.464400
vn 0.895800 0.444500 0.000000
vn 0.825800 0.563900 -0.000000
vn -0.067800 0.556700 -0.827900
vn -0.059500 0.620500 -0.781900
vn -0.719900 0.522000 -0.457400
vn -0.788400 0.480700 -0.383800
vn -0.879400 0.476000 -0.000000
vn -0.923500 0.383600 0.000000
vn 0.705200 0.293600 -0.645400
vn -0.050500 -0.880700 -0.471100
vn -0.051700 0.286400 -0.956700
vn -0.900600 0.195900 -0.387900
vn 0.003600 0.997800 0.065800
vn -0.145200 0.989400 -0.000000
vn 0.707500 0.482100 -0.516800
vn 0.308700 0.699900 -0.644100
vn 0.749800 0.661600 0.000000
vn 0.117300 0.993100 0.000000
vn -0.116200 0.993200 -0.000000
vn -0.383300 0.566700 -0.729300
vn -0.284900 0.094300 -0.953900
vn -0.749500 0.090400 -0.655800
vn -0.303700 0.952800 0.000000
vn -0.785000 -0.246600 -0.568300
vn -0.875200 0.101600 0.473000
vn -0.887000 0.207600 0.412500
vn -0.062600 -0.800300 0.596300
vn -0.078000 0.991300 -0.105800
vn -0.075400 0.008900 0.997100
vn 0.681100 -0.084600 0.727300
vn 0.661700 -0.592700 0.459200
vn 0.608700 0.551200 0.570700
vn 0.702500 0.539400 0.464400
vn -0.067800 0.556700 0.827900
vn -0.059500 0.620500 0.781900
vn -0.719900 0.522000 0.457400
vn -0.788400 0.480700 0.383900
vn 0.705200 0.293600 0.645400
vn -0.050500 -0.880700 0.471100
vn -0.051700 0.286400 0.956700
vn -0.900600 0.195900 0.387900
vn 0.003600 0.997800 -0.065800
vn 0.308700 0.699900 0.644100
vn 0.707500 0.482100 0.516800
vn -0.383400 0.566700 0.729300
vn -0.284900 0.094300 0.953900
vn -0.749500 0.090400 0.655800
vn -0.785000 -0.246600 0.568300
vn -0.803000 0.596000 0.000500
vn -1.000000 -0.002000 0.000300
vn -0.796500 -0.043000 0.603100
vn -0.763100 -0.341600 0.548700
vn -0.800500 -0.599400 -0.000000
vn -0.797000 -0.045300 -0.602300
vn -0.762900 -0.342900 -0.548000
vn -0.662300 0.447500 0.601000
vn -0.208100 0.955100 -0.210800
vn -0.142300 0.989400 -0.028100
vn 0.705600 0.322300 -0.631100
vn 0.041300 0.015600 -0.999000
vn 0.376700 -0.866100 -0.328700
vn -0.340700 -0.887300 0.310900
vn -0.962900 -0.065200 0.261800
vn -0.790600 0.188900 -0.582500
vn -0.180600 0.949000 -0.258300
vn -0.845600 -0.137900 0.515700
vn -0.223600 -0.795300 0.563400
vn -0.390500 -0.726200 0.565800
vn 0.804700 -0.593100 0.026300
vn 0.988200 0.026900 -0.151100
vn 0.865200 0.366600 -0.342000
vn 0.758000 -0.586400 0.285600
vn -0.815300 0.551500 0.176700
vn -0.647600 -0.734300 0.203700
vn 0.248700 0.019600 0.968400
vn -0.248700 -0.019600 -0.968400
vn 0.647500 0.734300 -0.203700
vn 0.815300 -0.551500 -0.176700
vn -0.459100 0.231600 -0.857600
vn 0.026600 0.979700 -0.198600
vn -0.058100 0.997700 -0.035200
vn 0.691400 0.307500 0.653800
vn -0.769600 -0.637600 0.034700
vn -0.286600 -0.589500 0.755200
vn -0.029200 0.520400 0.853500
vn -0.644700 0.725200 0.241600
vn -0.855200 0.168100 -0.490300
vn 0.086700 0.989400 0.116700
vn -0.712900 0.216700 -0.667000
vn -0.294200 -0.888500 -0.352200
vn -0.567000 -0.659800 -0.493100
vn 0.426600 -0.837200 0.342400
vn 0.605600 -0.746900 0.274600
vn 0.779400 -0.384000 0.495100
vn 0.121500 -0.988100 -0.094400
vn -0.384500 0.600800 -0.700900
vn 0.363700 -0.379100 -0.850900
vn -0.953600 -0.298000 -0.042500
vn -0.363700 0.379100 0.850900
vn 0.953600 0.298000 0.042500
vn 0.384500 -0.600700 0.700900
vn -0.785800 0.039200 -0.617200
vn 0.672300 0.118300 -0.730800
vn 0.077700 -0.968100 -0.238300
vn -0.645000 -0.145400 0.750200
vn 0.749100 -0.087000 0.656700
vn -0.030500 0.985600 0.166500
vn 0.203600 -0.888200 -0.411900
vn -0.674600 0.081700 -0.733700
vn 0.978600 0.025200 0.204400
vn -0.413200 -0.532400 0.738800
vn -0.509000 0.694100 0.509000
vn -0.510700 0.691700 -0.510700
vn 0.509000 0.694100 -0.509000
vn 0.510700 0.691700 0.510700
# 160 normals

g magic1
usemtl Material18
s 8
f 1/1/1 2/2/2 3/3/2
f 1/1/1 3/3/2 4/4/1
f 2/1/2 5/2/3 6/3/3
f 2/1/2 6/3/3 3/4/2
f 5/1/3 7/2/4 8/3/4
f 5/1/3 8/3/4 6/4/3
f 7/1/4 9/2/5 10/3/5
f 7/1/4 10/3/5 8/4/4
f 9/1/5 11/2/6 12/3/6
f 9/1/5 12/3/6 10/4/5
f 11/1/6 1/2/1 4/3/1
f 11/1/6 4/3/1 12/4/6
s 1
f 8/5/7 10/6/7 12/7/7
f 8/5/7 12/7/7 4/8/7
f 8/5/7 4/8/7 3/9/7
f 8/5/7 3/9/7 6/10/7
f 13/11/8 14/12/9 15/13/10
f 16/14/11 13/15/8 15/16/10
f 17/11/12 16/12/11 15/13/10
f 14/14/9 17/15/12 15/16/10
f 13/11/8 18/17/13 14/12/9
f 16/14/11 18/18/13 13/15/8
f 17/11/12 18/17/13 16/12/11
f 14/14/9 18/18/13 17/15/12
f 19/11/14 20/12/15 21/13/16
f 22/14/17 19/15/14 21/16/16
f 23/11/18 22/12/17 21/13/16
f 20/14/15 23/15/18 21/16/16
f 19/11/14 24/17/19 20/12/15
f 22/14/17 24/18/19 19/15/14
f 23/11/18 24/17/19 22/12/17
f 20/14/15 24/18/19 23/15/18
f 25/11/20 26/12/21 27/13/22
f 28/14/23 25/15/20 27/16/22
f 29/11/24 28/12/23 27/13/22
f 26/14/21 29/15/24 27/16/22
f 25/11/20 30/17/25 26/12/21
f 28/14/23 30/18/25 25/15/20
f 29/11/24 30/17/25 28/12/23
f 26/14/21 30/18/25 29/15/24
f 31/11/26 32/12/27 33/13/28
f 34/14/29 31/15/26 33/16/28
f 35/11/30 34/12/29 33/13/28
f 32/14/27 35/15/30 33/16/28
f 31/11/26 36/17/31 32/12/27
f 34/14/29 36/18/31 31/15/26
f 35/11/30 36/17/31 34/12/29
f 32/14/27 36/18/31 35/15/30
f 37/19/32 38/20/33 39/21/34
f 39/21/34 40/22/35 37/19/32
f 41/23/36 39/21/34 38/20/33
f 38/20/33 37/19/32 42/24/37
f 42/24/37 43/25/38 38/20/33
f 39/21/34 41/23/36 44/26/39
f 45/27/40 44/26/39 41/23/36
f 41/23/36 46/28/41 45/27/40
f 46/28/41 47/29/42 48/30/43
f 48/30/43 45/27/40 46/28/41
f 49/31/44 50/32/45 51/33/46
f 51/33/46 52/34/47 49/31/44
f 45/27/40 48/30/43 51/33/46
f 51/33/46 50/32/45 45/27/40
f 53/35/48 44/26/39 45/27/40
f 45/27/40 50/32/45 53/35/48
f 49/31/44 54/36/49 53/35/48
f 53/35/48 50/32/45 49/31/44
f 55/37/50 53/35/48 54/36/49
f 39/21/34 44/26/39 53/35/48
f 53/35/48 56/38/51 39/21/34
f 53/35/48 55/37/50 56/38/51
f 55/37/50 57/39/52 58/40/53
f 58/40/53 56/38/51 55/37/50
f 58/40/53 40/22/35 39/21/34
f 39/21/34 56/38/51 58/40/53
f 59/41/54 46/42/41 60/43/55
f 59/41/54 60/43/55 61/44/56
f 62/41/57 61/44/56 60/43/55
f 46/45/41 41/46/36 60/47/55
f 41/46/36 38/45/33 60/47/55
f 62/41/57 60/43/55 38/42/33
f 43/48/38 62/49/57 38/50/33
f 62/49/57 43/48/38 63/51/58
f 59/52/54 63/51/58 43/48/38
f 63/51/58 59/52/54 61/53/56
f 63/51/58 61/53/56 62/49/57
f 43/48/38 46/54/41 59/52/54
f 42/24/37 64/24/59 43/25/38
f 47/55/42 46/56/60 65/57/61
f 65/57/61 66/58/62 47/55/42
f 67/59/63 65/57/61 68/60/64
f 68/60/64 65/57/61 69/61/65
f 65/57/61 46/56/60 70/62/66
f 65/57/61 67/59/63 66/58/62
f 65/57/61 70/62/66 69/61/65
f 69/61/65 71/63/67 72/64/68
f 69/61/65 72/64/68 68/60/64
f 70/62/66 73/65/69 71/63/67
f 70/62/66 71/63/67 69/61/65
f 37/19/32 74/21/70 75/20/71
f 74/21/70 37/19/32 40/22/35
f 76/23/72 75/20/71 74/21/70
f 75/20/71 42/24/37 37/19/32
f 42/24/37 75/20/71 77/25/73
f 74/21/70 78/26/74 76/23/72
f 79/27/75 76/23/72 78/26/74
f 76/23/72 79/27/75 80/28/76
f 80/28/76 48/30/43 47/29/42
f 48/30/43 80/28/76 79/27/75
f 81/31/77 51/33/46 82/32/78
f 51/33/46 81/31/77 52/34/47
f 79/27/75 51/33/46 48/30/43
f 51/33/46 79/27/75 82/32/78
f 83/35/79 79/27/75 78/26/74
f 79/27/75 83/35/79 82/32/78
f 81/31/77 83/35/79 84/36/80
f 83/35/79 81/31/77 82/32/78
f 85/37/81 84/36/80 83/35/79
f 74/21/70 83/35/79 78/26/74
f 83/35/79 74/21/70 86/38/82
f 83/35/79 86/38/82 85/37/81
f 85/37/81 58/40/53 57/39/52
f 58/40/53 85/37/81 86/38/82
f 58/40/53 74/21/70 40/22/35
f 74/21/70 58/40/53 86/38/82
f 87/41/83 88/43/84 80/42/76
f 87/41/83 89/44/85 88/43/84
f 90/41/86 88/43/84 89/44/85
f 80/45/76 88/47/84 76/46/72
f 76/46/72 88/47/84 75/45/71
f 90/41/86 75/42/71 88/43/84
f 77/48/73 75/50/71 90/49/86
f 90/49/86 91/51/87 77/48/73
f 87/52/83 77/48/73 91/51/87
f 91/51/87 89/53/85 87/52/83
f 91/51/87 90/49/86 89/53/85
f 77/48/73 87/52/83 80/54/76
f 42/24/37 77/25/73 64/24/59
f 47/55/42 92/57/88 80/56/89
f 92/57/88 47/55/42 66/58/62
f 67/59/63 68/60/64 92/57/88
f 68/60/64 93/61/90 92/57/88
f 92/57/88 94/62/91 80/56/89
f 92/57/88 66/58/62 67/59/63
f 92/57/88 93/61/90 94/62/91
f 93/61/90 68/60/64 72/64/68
f 93/61/90 72/64/68 95/63/92
f 94/62/91 93/61/90 95/63/92
f 94/62/91 95/63/92 96/65/93
f 97/66/94 98/67/95 99/68/96
f 100/69/97 98/67/95 101/70/98
f 98/67/95 100/69/97 99/68/96
f 97/66/94 102/68/99 98/67/95
f 103/69/100 101/70/98 98/67/95
f 98/67/95 102/68/99 103/69/100
f 104/71/101 105/72/102 106/73/103
f 105/72/102 107/74/104 106/73/103
f 108/75/105 109/76/106 110/77/107
f 108/75/105 110/77/107 111/78/108
f 108/75/105 111/78/108 112/79/109
f 111/80/108 104/71/101 106/73/103
f 111/80/108 106/73/103 112/81/109
f 113/82/110 105/72/102 104/71/101
f 113/82/110 104/71/101 114/83/111
f 115/84/112 104/71/101 111/80/108
f 115/84/112 111/80/108 110/85/107
f 104/71/101 115/84/112 116/86/113
f 104/71/101 116/86/113 114/83/111
f 117/87/114 115/88/112 110/85/107
f 117/87/114 110/85/107 109/89/106
f 108/80/105 107/74/104 117/87/114
f 108/80/105 117/87/114 109/89/106
f 118/90/115 107/74/104 119/83/116
f 106/73/103 107/74/104 108/80/105
f 106/73/103 108/80/105 112/81/109
f 107/74/104 105/72/102 113/82/110
f 107/74/104 113/82/110 119/83/116
f 115/88/112 117/87/114 120/91/117
f 115/88/112 120/91/117 116/86/113
f 117/87/114 107/74/104 118/90/115
f 117/87/114 118/90/115 120/91/117
f 121/92/118 122/93/119 123/94/120
f 121/95/118 124/96/121 122/93/119
f 121/97/118 125/98/122 124/96/121
f 121/99/118 123/100/120 125/98/122
f 126/101/123 123/94/120 122/93/119
f 126/102/123 122/93/119 124/96/121
f 126/103/123 124/96/121 125/98/122
f 126/104/123 125/98/122 123/100/120
f 127/71/124 128/73/125 129/72/126
f 129/72/126 128/73/125 130/74/127
f 131/77/128 132/76/129 133/75/130
f 131/77/128 133/75/130 134/79/131
f 131/77/128 134/79/131 135/78/132
f 135/80/132 134/81/131 128/73/125
f 135/80/132 128/73/125 127/71/124
f 136/82/133 137/83/134 127/71/124
f 136/82/133 127/71/124 129/72/126
f 138/84/135 131/85/128 135/80/132
f 138/84/135 135/80/132 127/71/124
f 127/71/124 137/83/134 139/86/136
f 127/71/124 139/86/136 138/84/135
f 140/87/137 132/89/129 131/85/128
f 140/87/137 131/85/128 138/88/135
f 133/80/130 132/89/129 140/87/137
f 133/80/130 140/87/137 130/74/127
f 141/90/138 142/83/139 130/74/127
f 128/73/125 134/81/131 133/80/130
f 128/73/125 133/80/130 130/74/127
f 130/74/127 142/83/139 136/82/133
f 130/74/127 136/82/133 129/72/126
f 138/88/135 139/86/136 143/91/140
f 138/88/135 143/91/140 140/87/137
f 140/87/137 143/91/140 141/90/138
f 140/87/137 141/90/138 130/74/127
f 144/92/141 145/94/142 146/93/143
f 144/95/141 146/93/143 147/96/144
f 144/97/141 147/96/144 148/98/145
f 144/99/141 148/98/145 145/100/142
f 149/101/146 146/93/143 145/94/142
f 149/102/146 147/96/144 146/93/143
f 149/103/146 148/98/145 147/96/144
f 149/104/146 145/100/142 148/98/145
f 150/11/147 151/12/148 152/13/149
f 153/14/150 150/15/147 152/16/149
f 154/11/151 153/12/150 152/13/149
f 151/14/148 154/15/151 152/16/149
f 150/11/147 155/17/152 151/12/148
f 153/14/150 155/18/152 150/15/147
f 154/11/151 155/17/152 153/12/150
f 151/14/148 155/18/152 154/15/151
s 8
f 156/105/153 157/106/154 158/107/155
f 156/105/153 159/108/156 157/106/154
f 156/105/153 158/107/155 159/108/156
s 4
f 160/109/7 161/110/7 162/111/7
f 160/109/7 162/111/7 163/112/7
s 8
f 164/113/157 165/114/157 161/115/157
f 164/113/157 161/115/157 160/116/157
s 31
f 166/117/158 164/113/158 160/116/158
f 166/117/158 160/116/158 163/118/158
s 8
f 167/113/159 166/114/159 163/115/159
f 167/113/159 163/115/159 162/116/159
s 31
f 165/117/160 167/113/160 162/116/160
f 165/117/160 162/116/160 161/118/160
s 4
f 168/109/7 169/110/7 170/111/7
f 168/109/7 170/111/7 171/112/7
s 8
f 172/113/157 173/114/157 169/115/157
f 172/113/157 169/115/157 168/116/157
s 31
f 174/117/158 172/113/158 168/116/158
f 174/117/158 168/116/158 171/118/158
s 8
f 175/113/159 174/114/159 171/115/159
f 175/113/159 171/115/159 170/116/159
s 31
f 173/117/160 175/113/160 170/116/160
f 173/117/160 170/116/160 169/118/160
s 4
f 176/109/7 177/110/7 178/111/7
f 176/109/7 178/111/7 179/112/7
s 8
f 180/113/157 181/114/157 177/115/157
f 180/113/157 177/115/157 176/116/157
s 31
f 182/117/158 180/113/158 176/116/158
f 182/117/158 176/116/158 179/118/158
s 8
f 183/113/159 182/114/159 179/115/159
f 183/113/159 179/115/159 178/116/159
s 31
f 181/117/160 183/113/160 178/116/160
f 181/117/160 178/116/160 177/118/160
s 4
f 184/109/7 185/110/7 186/111/7
f 184/109/7 186/111/7 187/112/7
s 8
f 188/113/157 189/114/157 185/115/157
f 188/113/157 185/115/157 184/116/157
s 31
f 190/117/158 188/113/158 184/116/158
f 190/117/158 184/116/158 187/118/158
s 8
f 191/113/159 190/114/159 187/115/159
f 191/113/159 187/115/159 186/116/159
s 31
f 189/117/160 191/113/160 186/116/160
f 189/117/160 186/116/160 185/118/160
s 1
f 192/11/8 193/12/9 194/13/10
f 195/14/11 192/15/8 194/16/10
f 196/11/12 195/12/11 194/13/10
f 193/14/9 196/15/12 194/16/10
f 192/11/8 197/17/13 193/12/9
f 195/14/11 197/18/13 192/15/8
f 196/11/12 197/17/13 195/12/11
f 193/14/9 197/18/13 196/15/12
s 4
f 198/109/7 199/110/7 200/111/7
f 198/109/7 200/111/7 201/112/7
s 8
f 202/113/157 203/114/157 199/115/157
f 202/113/157 199/115/157 198/116/157
s 31
f 204/117/158 202/113/158 198/116/158
f 204/117/158 198/116/158 201/118/158
s 8
f 205/113/159 204/114/159 201/115/159
f 205/113/159 201/115/159 200/116/159
s 31
f 203/117/160 205/113/160 200/116/160
f 203/117/160 200/116/160 199/118/160
s 1
f 206/11/26 207/12/27 208/13/28
f 209/14/29 206/15/26 208/16/28
f 210/11/30 209/12/29 208/13/28
f 207/14/27 210/15/30 208/16/28
f 206/11/26 211/17/31 207/12/27
f 209/14/29 211/18/31 206/15/26
f 210/11/30 211/17/31 209/12/29
f 207/14/27 211/18/31 210/15/30
s 4
f 212/109/7 213/110/7 214/111/7
f 212/109/7 214/111/7 215/112/7
s 8
f 216/113/157 217/114/157 213/115/157
f 216/113/157 213/115/157 212/116/157
s 31
f 218/117/158 216/113/158 212/116/158
f 218/117/158 212/116/158 215/118/158
s 8
f 219/113/159 218/114/159 215/115/159
f 219/113/159 215/115/159 214/116/159
s 31
f 217/117/160 219/113/160 214/116/160
f 217/117/160 214/116/160 213/118/160
# 309 triangles in group

# 309 triangles total

