# Wavefront OBJ exported by MilkShape 3D

mtllib monument.mtl

v -0.805100 0.579200 -0.805100
v -0.805100 0.579200 0.805100
v -0.643800 0.707900 0.643800
v -0.643800 0.707900 -0.643800
v -0.578700 1.479500 0.578700
v -0.578700 1.479500 -0.578700
v -0.915800 0.000000 -0.915800
v -0.915800 0.000000 0.915800
v 0.805100 0.579200 0.805100
v 0.643800 0.707900 0.643800
v 0.578700 1.479500 0.578700
v 0.915800 0.000000 0.915800
v 0.805100 0.579200 -0.805100
v 0.643800 0.707900 -0.643800
v 0.578700 1.479500 -0.578700
v 0.915800 0.000000 -0.915800
v -0.658300 1.729800 -0.658300
v -0.658300 1.729800 0.658300
v 0.000000 1.818200 -0.000000
v -0.676700 1.402800 -0.676700
v -0.676700 1.402800 0.676700
v 0.658300 1.729800 0.658300
v 0.676700 1.402800 0.676700
v 0.658300 1.729800 -0.658300
v 0.676700 1.402800 -0.676700
v -0.439300 4.407200 -0.439300
v -0.439300 4.407200 0.439300
v 0.000000 5.152200 -0.000000
v 0.439300 4.407200 0.439300
v 0.439300 4.407200 -0.439300
v -0.559000 1.721500 -0.559000
v -0.559000 1.721500 0.559000
v 0.559000 1.721500 0.559000
v 0.559000 1.721500 -0.559000
v 0.365600 2.367300 0.596800
v -0.365600 2.367300 0.596800
v 0.000000 2.005500 0.614300
v 0.348300 3.961300 0.519500
v -0.348300 3.961300 0.519500
v 0.365600 2.367300 -0.596800
v 0.000000 2.005500 -0.614300
v -0.365600 2.367300 -0.596800
v 0.348300 3.961300 -0.519500
v -0.348300 3.961300 -0.519500
# 44 vertices

vt 0.532800 0.312000
vt 0.629100 0.312000
vt 0.624900 0.317500
vt 0.537000 0.317500
vt 0.629300 0.320900
vt 0.629300 0.338300
vt 0.533500 0.338300
vt 0.533500 0.320900
vt 0.532800 0.286400
vt 0.629100 0.286400
vt 0.581000 0.317500
vt 0.615700 0.284200
vt 0.532900 0.284200
vt 0.532900 0.263000
vt 0.615700 0.263000
vt 0.533500 0.400600
vt 0.629300 0.400600
vt 0.582300 0.424800
vt 0.533500 0.332200
vt 0.629300 0.332200
vt 0.633600 0.282200
vt 0.618300 0.282200
vt 0.618300 0.195100
vt 0.633600 0.195100
vt 0.736900 0.191500
vt 0.736900 0.142300
vt 0.763800 0.166900
vt 0.618800 0.191500
vt 0.618800 0.142300
# 29 texture coordinates

vn -0.347400 0.871000 -0.347400
vn -0.347400 0.871000 0.347400
vn -0.996500 0.084100 -0.000000
vn -0.982200 0.187700 -0.000000
vn 0.347400 0.871000 0.347400
vn 0.000000 0.084100 0.996500
vn 0.000000 0.187700 0.982200
vn 0.347400 0.871000 -0.347400
vn 0.996500 0.084100 0.000000
vn 0.982200 0.187700 -0.000000
vn 0.000000 0.084100 -0.996500
vn 0.000000 0.187700 -0.982200
vn -0.066800 0.995500 -0.066800
vn -0.066800 0.995500 0.066800
vn 0.000000 1.000000 -0.000000
vn -0.998400 0.056300 -0.000000
vn 0.066800 0.995500 0.066800
vn 0.000000 0.056300 0.998400
vn 0.066800 0.995500 -0.066800
vn 0.998400 0.056300 -0.000000
vn 0.000000 0.056300 -0.998400
vn -0.861400 0.507900 0.000000
vn 0.000000 0.507900 0.861400
vn 0.861400 0.507900 -0.000000
vn 0.000000 0.507900 -0.861400
vn -0.999000 0.044500 0.000000
vn 0.000000 0.044500 0.999000
vn 0.999000 0.044500 -0.000000
vn 0.000000 0.044500 -0.999000
vn 0.000000 0.048500 0.998800
vn 0.000000 0.048500 -0.998800
# 31 normals

g monument
usemtl Material25
s 31
f 1/1/1 2/2/2 3/3/2
f 1/1/1 3/3/2 4/4/1
f 3/5/3 5/6/3 6/7/3
f 3/5/3 6/7/3 4/8/3
f 2/2/4 1/1/4 7/9/4
f 2/2/4 7/9/4 8/10/4
f 2/1/2 9/2/5 10/3/5
f 2/1/2 10/3/5 3/4/2
f 10/5/6 11/6/6 5/7/6
f 10/5/6 5/7/6 3/8/6
f 9/2/7 2/1/7 8/9/7
f 9/2/7 8/9/7 12/10/7
f 9/1/5 13/2/8 14/3/8
f 9/1/5 14/3/8 10/4/5
f 14/5/9 15/6/9 11/7/9
f 14/5/9 11/7/9 10/8/9
f 13/2/10 9/1/10 12/9/10
f 13/2/10 12/9/10 16/10/10
f 13/1/8 1/2/1 4/3/1
f 13/1/8 4/3/1 14/4/8
f 4/5/11 6/6/11 15/7/11
f 4/5/11 15/7/11 14/8/11
f 1/2/12 13/1/12 16/9/12
f 1/2/12 16/9/12 7/10/12
f 17/1/13 18/2/14 19/11/15
f 18/12/16 17/13/16 20/14/16
f 18/12/16 20/14/16 21/15/16
f 18/1/14 22/2/17 19/11/15
f 22/12/18 18/13/18 21/14/18
f 22/12/18 21/14/18 23/15/18
f 22/1/17 24/2/19 19/11/15
f 24/12/20 22/13/20 23/14/20
f 24/12/20 23/14/20 25/15/20
f 24/1/19 17/2/13 19/11/15
f 17/12/21 24/13/21 25/14/21
f 17/12/21 25/14/21 20/15/21
f 26/16/22 27/17/22 28/18/22
f 27/16/23 29/17/23 28/18/23
f 29/16/24 30/17/24 28/18/24
f 30/16/25 26/17/25 28/18/25
f 27/17/26 26/16/26 31/19/26
f 27/17/26 31/19/26 32/20/26
f 29/21/27 27/22/27 32/23/27
f 29/21/27 32/23/27 33/24/27
f 30/21/28 29/22/28 33/23/28
f 30/21/28 33/23/28 34/24/28
f 26/21/29 30/22/29 34/23/29
f 26/21/29 34/23/29 31/24/29
f 35/25/30 36/26/30 37/27/30
f 38/28/30 39/29/30 36/26/30
f 38/28/30 36/26/30 35/25/30
f 40/25/31 41/27/31 42/26/31
f 43/28/31 40/25/31 42/26/31
f 43/28/31 42/26/31 44/29/31
# 54 triangles in group

# 54 triangles total

