# Wavefront OBJ exported by MilkShape 3D

mtllib pet_house_01.mtl

v -0.156400 -0.653300 -0.194900
v -0.156400 -0.706900 -0.382200
v -0.111800 -1.202100 0.154600
v -0.179100 0.939000 0.368800
v 0.179100 0.939000 0.368800
v 0.179100 0.827800 -0.559200
v -0.179100 0.827800 -0.559200
v 0.156400 -0.586300 0.364600
v 0.156400 -0.594100 0.559200
v 0.111800 -1.202100 0.154600
v 0.156400 -0.706900 -0.382200
v -0.156400 -0.594100 0.559200
v 0.156400 0.334000 0.254400
v -0.156400 0.334000 0.254400
v -0.156400 -0.586300 0.364600
v 0.156400 -0.653300 -0.194900
v 0.156400 0.267000 -0.305200
v -0.156400 0.267000 -0.305200
# 18 vertices

vt 0.551700 0.034000
vt 0.535000 0.032200
vt 0.575400 0.002000
vt 0.455900 0.320100
vt 0.439300 0.320100
vt 0.439300 0.386500
vt 0.455900 0.386500
vt 0.552200 0.211500
vt 0.536000 0.213200
vt 0.576000 0.244900
vt 0.615000 0.245800
vt 0.594000 0.245800
vt 0.594000 0.260300
vt 0.615000 0.260300
vt 0.588200 0.260300
vt 0.555100 0.260300
vt 0.555100 0.245800
vt 0.588200 0.245800
vt 0.552200 0.158600
vt 0.599800 0.211500
vt 0.599800 0.158600
vt 0.597200 0.034000
vt 0.597200 0.087100
vt 0.551700 0.087100
vt 0.533100 0.260300
vt 0.533100 0.245800
vt 0.536500 0.125100
vt 0.615500 0.125100
vt 0.616800 0.120100
vt 0.533900 0.120100
vt 0.615700 0.032200
vt 0.616100 0.213200
# 32 texture coordinates

vn -0.997500 -0.068500 0.019600
vn -0.000000 0.992900 -0.118900
vn 0.997500 -0.071200 -0.002900
vn -0.000000 -0.735000 -0.678100
vn 0.000000 -0.554000 0.832500
vn 0.000000 0.118900 0.992900
vn 1.000000 0.000000 -0.000000
vn -0.000000 -0.118900 -0.992900
vn -1.000000 -0.000000 0.000000
vn 0.000000 0.999200 0.040200
vn -0.000000 0.961400 -0.275100
vn 0.000000 -0.185800 0.982600
vn 0.999300 -0.038400 0.004600
vn -0.000000 -0.412600 -0.910900
vn -0.999300 -0.038400 0.004600
vn -0.997500 -0.071200 -0.002900
vn -0.997100 -0.075300 0.009000
vn 0.997100 -0.075300 0.009000
vn 0.997500 -0.068500 0.019600
# 19 normals

g pet_house_01
usemtl 19___Default
s 1
f 1/1/1 2/2/1 3/3/1
f 4/4/2 5/5/2 6/6/2
f 4/4/2 6/6/2 7/7/2
f 8/8/3 9/9/3 10/10/3
f 3/11/4 2/12/4 11/13/4
f 3/11/4 11/13/4 10/14/4
f 10/14/5 9/13/5 12/12/5
f 10/14/5 12/12/5 3/11/5
f 8/15/6 13/16/6 14/17/6
f 8/15/6 14/17/6 15/18/6
f 13/19/7 8/8/7 16/20/7
f 13/19/7 16/20/7 17/21/7
f 1/18/8 18/17/8 17/16/8
f 1/18/8 17/16/8 16/15/8
f 15/22/9 14/23/9 18/24/9
f 15/22/9 18/24/9 1/1/9
f 9/13/10 8/15/10 15/18/10
f 9/13/10 15/18/10 12/12/10
f 2/12/11 1/18/11 16/15/11
f 2/12/11 16/15/11 11/13/11
f 13/16/12 5/25/12 4/26/12
f 13/16/12 4/26/12 14/17/12
f 5/27/13 13/19/13 17/21/13
f 5/27/13 17/21/13 6/28/13
f 18/17/14 7/26/14 6/25/14
f 18/17/14 6/25/14 17/16/14
f 14/23/15 4/29/15 7/30/15
f 14/23/15 7/30/15 18/24/15
f 12/31/16 15/22/16 3/3/16
f 15/22/17 1/1/17 3/3/17
f 16/20/18 8/8/18 10/10/18
f 11/32/19 16/20/19 10/10/19
# 32 triangles in group

# 32 triangles total

