# Wavefront OBJ exported by MilkShape 3D

mtllib stable_0.mtl

v -0.613900 0.785400 0.387500
v -0.725600 0.032600 0.504200
v 1.152300 0.032600 0.504200
v 1.040600 0.785400 0.387500
v -0.613900 0.785400 -1.154100
v 1.040600 0.785400 -1.154100
v 1.152300 0.032600 -1.264700
v -0.725600 0.032600 -1.264700
v 0.216300 2.036700 -1.082300
v 0.220200 2.031100 0.321400
v -0.235300 0.923000 1.128600
v -0.339400 0.032600 1.210600
v 0.720100 0.032600 1.210600
v 0.616000 0.923000 1.128600
v -0.235300 0.923000 0.212600
v -0.339400 0.032600 0.210400
v 0.720100 0.032600 0.210400
v 0.616000 0.923000 0.212600
v 0.191700 1.608300 1.047200
v 0.827200 0.810000 -2.044000
v 0.284200 1.712200 -2.007700
v 0.284200 1.545600 -0.971900
v 0.827400 0.808600 -0.985500
v 0.114400 1.545400 -0.971600
v 0.114800 1.712500 -2.007300
v 0.202400 1.440500 -1.870200
v 0.654900 0.770900 -1.995100
v -0.272600 0.767900 -1.987200
v -0.444900 0.807000 -2.035900
v -0.444900 0.806700 -0.967400
v 0.827200 0.810000 1.267600
v 0.827400 0.808600 0.209100
v 0.284200 1.545600 0.195500
v 0.284200 1.712200 1.231300
v 0.114400 1.545400 0.195200
v 0.114800 1.712500 1.231000
v 0.202500 1.440500 1.093800
v 0.654900 0.770900 1.218700
v -0.444900 0.807000 1.259500
v -0.272600 0.767900 1.210800
v -0.444900 0.806700 0.191000
v -0.235300 0.923000 -1.835700
v 0.616000 0.923000 -1.835700
v 0.720100 0.032600 -1.917700
v -0.339400 0.032600 -1.917700
v -0.339400 0.032600 -0.917500
v -0.235300 0.923000 -0.919700
v 0.616000 0.923000 -0.919700
v 0.720100 0.032600 -0.917500
v 0.191700 1.608300 -1.754200
v 1.537400 0.940500 1.219000
v 1.427900 1.288400 0.709000
v 1.470400 1.285700 1.731600
v 1.306800 2.598700 0.687600
v 1.349800 2.596700 1.753700
v 1.336700 2.588100 1.862200
v 1.336500 2.588700 0.551200
v 1.241900 2.713000 0.551700
v 1.255900 2.696100 1.863000
v 1.148700 2.592000 1.862000
v 1.148100 2.592000 0.551900
v 1.420200 0.171800 1.155500
v 1.282100 2.997900 1.227900
v 1.246100 2.996900 1.293100
v 1.288900 0.170300 1.387100
v 1.126000 0.172200 1.183500
v 1.199300 2.996500 1.234900
v 0.979800 0.940500 1.244300
v 1.089300 1.288400 1.732300
v 1.046900 1.285700 0.709700
v 1.210400 2.598700 1.753700
v 1.167400 2.596700 0.687600
v 0.259800 0.553300 1.629000
v 0.303500 -0.010200 1.631200
v 0.295600 -0.010200 1.792500
v 0.251900 0.553300 1.790300
v 0.718200 0.553300 1.651400
v 0.710300 0.553300 1.812700
v 0.674600 -0.007500 1.649300
v 0.666700 -0.007500 1.810600
v -0.653500 0.400800 1.666300
v 0.349800 0.441500 1.738000
v 0.346900 0.441200 1.673300
v -0.650500 0.401100 1.731000
v -0.641900 0.304800 1.731600
v 0.358200 0.361300 1.738400
v -0.814000 0.553300 1.568900
v -0.770400 -0.010200 1.571000
v -0.778300 -0.010200 1.732300
v -0.821900 0.553300 1.730200
v -0.355600 0.553300 1.591300
v -0.363500 0.553300 1.752600
v -0.399300 -0.007500 1.589200
v -0.407200 -0.007500 1.750500
v 0.570200 0.375400 1.710100
v 1.265800 0.359300 1.738100
v 1.262400 0.359300 1.673600
v 0.573600 0.375400 1.774600
v 0.572700 0.278800 1.774700
v 1.265800 0.278800 1.738100
v 1.065600 0.553200 1.669000
v 1.109200 -0.010300 1.665600
v 1.121700 -0.010300 1.826600
v 1.078200 0.553200 1.830000
v 1.523200 0.553200 1.633400
v 1.535700 0.553200 1.794400
v 1.479600 -0.007700 1.636800
v 1.492100 -0.007700 1.797800
v -0.650700 0.234500 1.666300
v 0.351600 0.174400 1.738000
v 0.348600 0.174400 1.673300
v -0.647700 0.234500 1.731000
v -0.648800 0.137800 1.731600
v 0.351900 0.093700 1.738400
v 0.666700 -0.007500 1.651000
v 0.295600 -0.010200 1.632900
v 0.251900 0.553300 1.630700
v 0.710300 0.553300 1.653100
v -0.407200 -0.007500 1.590900
v -0.778300 -0.010200 1.572700
v -0.821900 0.553300 1.570600
v -0.363500 0.553300 1.593000
v 1.492100 -0.007700 1.638200
v 1.121700 -0.010300 1.667000
v 1.078200 0.553200 1.670400
v 1.535700 0.553200 1.634800
v 0.349800 0.441500 1.673100
v 0.358200 0.361300 1.673600
v -0.641900 0.304800 1.666700
v -0.650500 0.401200 1.666200
v 0.572700 0.278800 1.709800
v 0.573600 0.375400 1.709800
v 1.265800 0.359300 1.673300
v 0.351600 0.174400 1.673100
v 0.351900 0.093700 1.673600
v -0.648800 0.137800 1.666700
v -0.647700 0.234500 1.666200
v 1.981900 0.553300 0.350800
v 1.979800 -0.010200 0.394500
v 1.818500 -0.010200 0.386600
v 1.820600 0.553300 0.342900
v 1.959500 0.553300 0.809200
v 1.798200 0.553300 0.801300
v 1.961600 -0.007500 0.765600
v 1.800300 -0.007500 0.757700
v 1.944600 0.400800 -0.562500
v 1.873000 0.441500 0.440800
v 1.937700 0.441200 0.437900
v 1.879900 0.401100 -0.559500
v 1.879400 0.304800 -0.550900
v 1.872500 0.361300 0.449200
v 2.042100 0.553300 -0.723000
v 2.039900 -0.010200 -0.679400
v 1.878600 -0.010200 -0.687300
v 1.880800 0.553300 -0.730900
v 2.019600 0.553300 -0.264600
v 1.858400 0.553300 -0.272500
v 2.021800 -0.007500 -0.308300
v 1.860500 -0.007500 -0.316200
v 1.900800 0.375400 0.661200
v 1.872800 0.359300 1.356800
v 1.937300 0.359300 1.353400
v 1.836300 0.375400 0.664600
v 1.836300 0.278800 0.663700
v 1.872800 0.278800 1.356800
v 1.942000 0.553200 1.156600
v 1.945300 -0.010300 1.200200
v 1.784300 -0.010300 1.212700
v 1.781000 0.553200 1.169200
v 1.977500 0.553200 1.614200
v 1.816500 0.553200 1.626700
v 1.974100 -0.007700 1.570600
v 1.813100 -0.007700 1.583200
v 1.944600 0.234500 -0.559700
v 1.873000 0.174400 0.442600
v 1.937700 0.174400 0.439600
v 1.879900 0.234500 -0.556700
v 1.879400 0.137800 -0.557800
v 1.872500 0.093700 0.442900
v 1.959900 -0.007500 0.757700
v 1.978100 -0.010200 0.386600
v 1.980200 0.553300 0.342900
v 1.957800 0.553300 0.801300
v 2.020100 -0.007500 -0.316200
v 2.038200 -0.010200 -0.687300
v 2.040400 0.553300 -0.730900
v 2.018000 0.553300 -0.272500
v 1.972700 -0.007700 1.583200
v 1.943900 -0.010300 1.212700
v 1.940600 0.553200 1.169200
v 1.976100 0.553200 1.626700
v 1.937800 0.441500 0.440800
v 1.937300 0.361300 0.449200
v 1.944200 0.304800 -0.550900
v 1.944800 0.401200 -0.559500
v 1.901100 0.278800 0.663700
v 1.901200 0.375400 0.664600
v 1.937700 0.359300 1.356800
v 1.937800 0.174400 0.442600
v 1.937300 0.093700 0.442900
v 1.944200 0.137800 -0.557800
v 1.944800 0.234500 -0.556700
v 0.071700 2.061400 0.433100
v 0.343300 2.062400 0.432600
v 0.343300 2.062400 -1.175400
v 0.072700 2.063000 -1.175000
v 1.346000 0.758100 0.668700
v 1.345200 0.758600 -1.424100
v 0.217700 1.866700 0.432600
v 0.217600 1.866700 -1.175400
v -0.653000 0.679500 -1.410900
v -0.938000 0.754500 -1.410900
v -0.937800 0.755000 0.677700
v -0.652800 0.679900 0.677700
v 1.060200 0.683600 -1.424100
v 1.060900 0.683100 0.668700
# 216 vertices

vt 0.664400 0.496900
vt 0.662300 0.419000
vt 0.525200 0.419000
vt 0.524000 0.494800
vt 0.656300 0.499100
vt 0.526600 0.419100
vt 0.533600 0.498400
vt 0.593500 0.550100
vt 0.655800 0.500900
vt 0.660900 0.419200
vt 0.529200 0.419200
vt 0.536100 0.500900
vt 0.645700 0.633500
vt 0.523400 0.633200
vt 0.524300 0.554100
vt 0.646500 0.554100
vt 0.592800 0.548500
vt 0.425600 0.728000
vt 0.426200 0.808500
vt 0.572500 0.808500
vt 0.572400 0.727600
vt 0.572700 0.804400
vt 0.426500 0.804400
vt 0.428600 0.804400
vt 0.428200 0.808500
vt 0.427600 0.728000
vt 0.443300 0.431300
vt 0.462600 0.443800
vt 0.422800 0.444000
vt 0.462700 0.500500
vt 0.422800 0.500400
vt 0.306800 0.742600
vt 0.307200 0.781000
vt 0.309600 0.743000
vt 0.304600 0.742500
vt 0.311000 0.742600
vt 0.305000 0.743600
vt 0.271100 0.643900
vt 0.271700 0.705400
vt 0.276500 0.644500
vt 0.266700 0.643700
vt 0.272800 0.705400
vt 0.279300 0.644000
vt 0.267400 0.645500
vt 0.156500 0.592400
vt 0.156500 0.638800
vt 0.166100 0.638800
vt 0.166100 0.592400
vt 0.183000 0.621600
vt 0.148800 0.638800
vt 0.148800 0.592400
vt 0.183000 0.638800
vt 0.183000 0.592400
vt 0.175900 0.532500
vt 0.180500 0.583000
vt 0.175900 0.583100
vt 0.180500 0.532500
vt 0.181000 0.585500
vt 0.181000 0.530900
vt 0.174900 0.531600
vt 0.174800 0.585900
vt 0.167200 0.593200
vt 0.167200 0.638900
vt 0.183000 0.611300
vt 0.569700 0.802700
vt 0.569700 0.807400
vt 0.429900 0.807200
vt 0.430000 0.802500
vt 0.569700 0.727700
vt 0.430000 0.727800
# 70 texture coordinates

vn -0.528800 0.176100 0.830300
vn -0.690100 0.209700 0.692700
vn 0.690100 0.209700 0.692700
vn 0.527800 0.175900 0.831000
vn -0.526500 0.173000 -0.832400
vn 0.526000 0.172900 -0.832700
vn 0.692500 0.204300 -0.691900
vn -0.692500 0.204300 -0.691900
vn -0.000000 0.057300 -0.998400
vn 0.000000 0.052900 0.998600
vn -0.517500 0.146600 0.843000
vn -0.704500 0.146300 0.694500
vn 0.704500 0.146300 0.694500
vn 0.517100 0.146600 0.843300
vn -0.993200 0.116100 0.000000
vn 0.993200 0.116100 -0.000000
vn 0.000000 0.118100 0.993000
vn 0.586900 0.427400 -0.687600
vn 0.333900 0.650900 -0.681800
vn 0.487700 0.865900 0.111300
vn 0.804900 0.593400 0.000600
vn -0.485700 0.867100 0.110800
vn -0.340100 0.641500 -0.687600
vn -0.054700 -0.302700 -0.951500
vn -0.294200 -0.128600 -0.947100
vn 0.267300 -0.021300 -0.963400
vn -0.546800 0.477600 -0.687700
vn -0.797200 0.603700 0.000200
vn 0.586900 0.427400 0.687600
vn 0.804900 0.593400 -0.000600
vn 0.487700 0.865900 -0.111300
vn 0.333900 0.650900 0.681800
vn -0.485700 0.867100 -0.110800
vn -0.340100 0.641500 0.687600
vn -0.054700 -0.302700 0.951500
vn -0.294200 -0.128600 0.947100
vn -0.546800 0.477600 0.687700
vn 0.267300 -0.021300 0.963400
vn -0.517500 0.146600 -0.843000
vn 0.517100 0.146600 -0.843300
vn 0.704500 0.146300 -0.694500
vn -0.704500 0.146300 -0.694500
vn -0.000000 0.118100 -0.993000
vn 0.968300 0.246800 -0.039600
vn 0.990100 0.134500 -0.040800
vn 0.995000 0.091800 -0.040400
vn 0.891600 -0.452800 -0.001300
vn 0.743800 -0.377000 -0.552000
vn 0.003300 0.826000 -0.563600
vn 0.084700 0.996300 0.012000
vn -0.929900 -0.367300 0.019400
vn -0.753700 -0.360700 -0.549400
vn 0.841800 0.054600 -0.537000
vn 0.681900 0.579700 -0.446100
vn 0.062900 0.570100 0.819200
vn 0.086400 0.034400 0.995700
vn -0.920300 0.031400 -0.390000
vn -0.764200 0.558300 -0.322900
vn -0.967600 0.249200 0.039500
vn -0.989800 0.136200 0.040700
vn -0.990000 0.135000 0.040400
vn -0.995000 0.091800 0.040400
vn -0.733100 0.679200 -0.035900
vn -0.995800 -0.077300 -0.048700
vn -0.723900 -0.053500 0.687900
vn -0.628600 0.556500 0.543300
vn 0.733200 0.679100 0.035900
vn 0.572700 0.556400 0.602100
vn 0.995800 -0.077700 0.048700
vn 0.649900 -0.053500 0.758100
vn -0.040300 0.999200 -0.003900
vn -0.032600 0.683200 0.729500
vn -0.034300 0.732100 0.680300
vn -0.007100 0.005100 1.000000
vn 0.023200 0.999700 -0.001200
vn 0.053800 0.701700 0.710400
vn 0.053500 0.709900 0.702200
vn 0.052600 -0.000000 0.998600
vn -0.731700 0.679200 0.056900
vn -0.994000 -0.077300 0.077200
vn -0.631400 -0.053500 0.773600
vn -0.555100 0.556500 0.618300
vn 0.731900 0.679100 -0.056900
vn 0.644000 0.556400 0.525100
vn 0.994000 -0.077700 -0.077200
vn 0.740300 -0.053500 0.670100
vn 0.060100 0.998200 -0.003900
vn 0.036000 0.683000 0.729500
vn 0.039300 0.731800 0.680300
vn 0.048800 0.000000 -0.998800
vn -0.077500 0.000000 -0.997000
vn 0.007200 -0.005100 -1.000000
vn -0.052600 -0.000000 -0.998600
vn 0.035900 0.679200 -0.733100
vn 0.048700 -0.077300 -0.995800
vn -0.687900 -0.053500 -0.723900
vn -0.543300 0.556500 -0.628600
vn -0.035900 0.679100 0.733200
vn -0.602100 0.556400 0.572700
vn -0.048700 -0.077700 0.995800
vn -0.758100 -0.053500 0.649900
vn 0.003900 0.999200 -0.040300
vn -0.729500 0.683200 -0.032600
vn -0.680300 0.732100 -0.034300
vn -1.000000 0.005100 -0.007100
vn 0.001200 0.999700 0.023200
vn -0.710400 0.701700 0.053800
vn -0.702200 0.709900 0.053500
vn -0.998600 -0.000000 0.052600
vn -0.056900 0.679200 -0.731700
vn -0.077200 -0.077300 -0.994000
vn -0.773600 -0.053500 -0.631400
vn -0.618200 0.556500 -0.555100
vn 0.056900 0.679100 0.731900
vn -0.525100 0.556400 0.644000
vn 0.077200 -0.077700 0.994000
vn -0.670100 -0.053500 0.740300
vn 0.003900 0.998200 0.060100
vn -0.729500 0.683000 0.036000
vn -0.680300 0.731800 0.039300
vn 0.998800 -0.000000 0.048900
vn 0.997000 0.000000 -0.077500
vn 1.000000 -0.005100 0.007200
vn 0.998600 -0.000000 -0.052600
vn -0.323000 0.734800 0.596400
vn 0.323700 0.733600 0.597600
vn 0.323600 0.734100 -0.596900
vn -0.323100 0.735500 -0.595400
vn 0.563500 0.555300 0.611700
vn 0.559600 0.558800 -0.612100
vn -0.003000 0.070700 0.997500
vn -0.008200 0.072400 -0.997300
vn 0.043100 0.163800 -0.985500
vn -0.563600 0.556100 -0.610900
vn -0.560700 0.558900 0.611000
vn 0.044900 0.170400 0.984400
vn -0.045900 0.174100 -0.983700
vn -0.043600 0.165500 0.985200
# 138 normals

g stable
usemtl Material28
s 1
f 1/1/1 2/2/2 3/3/3
f 3/3/3 4/4/4 1/1/1
f 5/1/5 6/4/6 7/3/7
f 7/3/7 8/2/8 5/1/5
f 5/5/5 8/2/8 2/6/2
f 2/6/2 1/7/1 5/5/5
f 7/2/7 6/5/6 4/7/4
f 4/7/4 3/6/3 7/2/7
f 6/4/6 5/1/5 9/8/9
f 1/1/1 4/4/4 10/8/10
f 11/9/11 12/10/12 13/11/13
f 13/11/13 14/12/14 11/9/11
f 11/13/11 15/14/15 16/15/15
f 16/15/15 12/16/12 11/13/11
f 13/16/13 17/15/16 18/14/16
f 18/14/16 14/13/14 13/16/13
f 14/12/14 19/17/17 11/9/11
f 20/18/18 21/19/19 22/20/20
f 22/20/20 23/21/21 20/18/18
f 24/22/22 22/20/20 21/19/19
f 21/19/19 25/23/23 24/22/22
f 25/24/23 21/25/19 26/25/24
f 27/26/25 26/25/24 21/25/19
f 21/25/19 20/26/18 27/26/25
f 26/25/24 28/26/26 29/26/27
f 29/26/27 25/24/23 26/25/24
f 24/22/22 25/23/23 29/18/27
f 29/18/27 30/21/28 24/22/22
f 31/18/29 32/21/30 33/20/31
f 33/20/31 34/19/32 31/18/29
f 35/22/33 36/23/34 34/19/32
f 34/19/32 33/20/31 35/22/33
f 36/24/34 37/25/35 34/25/32
f 38/26/36 31/26/29 34/25/32
f 34/25/32 37/25/35 38/26/36
f 37/25/35 36/24/34 39/26/37
f 39/26/37 40/26/38 37/25/35
f 35/22/33 41/21/28 39/18/37
f 39/18/37 36/23/34 35/22/33
f 42/9/39 43/12/40 44/11/41
f 44/11/41 45/10/42 42/9/39
f 42/13/39 45/16/42 46/15/15
f 46/15/15 47/14/15 42/13/39
f 44/16/41 43/13/40 48/14/16
f 48/14/16 49/15/16 44/16/41
f 43/12/40 42/9/39 50/17/43
f 51/27/44 52/28/45 53/29/45
f 53/29/45 52/28/45 54/30/46
f 54/30/46 55/31/46 53/29/45
f 56/32/47 57/33/48 58/33/49
f 58/33/49 59/34/50 56/32/47
f 60/35/51 61/33/52 57/33/48
f 57/33/48 56/36/47 60/35/51
f 58/33/49 61/33/52 60/34/51
f 60/34/51 59/37/50 58/33/49
f 57/33/48 61/33/52 58/33/49
f 62/38/53 63/39/54 64/39/55
f 64/39/55 65/40/56 62/38/53
f 66/41/57 67/39/58 63/42/54
f 63/42/54 62/43/53 66/41/57
f 64/39/55 67/39/58 66/40/57
f 66/40/57 65/44/56 64/39/55
f 63/42/54 67/39/58 64/39/55
f 68/27/59 69/28/60 70/29/61
f 70/29/61 69/28/60 71/30/62
f 71/30/62 72/31/62 70/29/61
f 73/45/63 74/46/64 75/47/65
f 75/47/65 76/48/66 73/45/63
f 77/49/67 73/49/63 76/49/66
f 76/49/66 78/49/68 77/49/67
f 79/50/69 77/51/67 78/48/68
f 78/48/68 80/47/70 79/50/69
f 80/52/70 78/53/68 76/48/66
f 76/48/66 75/47/65 80/52/70
f 81/54/71 82/55/72 83/56/71
f 81/54/71 84/57/73 82/55/72
f 82/58/72 84/59/73 85/60/74
f 85/60/74 86/61/74 82/58/72
f 87/46/63 88/45/64 89/62/65
f 89/62/65 90/63/66 87/46/63
f 91/64/67 87/64/63 90/64/66
f 90/64/66 92/64/68 91/64/67
f 93/51/69 91/50/67 92/63/68
f 92/63/68 94/62/70 93/51/69
f 94/53/70 92/52/68 90/63/66
f 90/63/66 89/62/65 94/53/70
f 95/54/75 96/55/76 97/56/75
f 95/54/75 98/57/77 96/55/76
f 99/60/78 96/58/76 98/59/77
f 100/61/78 96/58/76 99/60/78
f 101/45/79 102/46/80 103/47/81
f 103/47/81 104/48/82 101/45/79
f 105/49/83 101/49/79 104/49/82
f 104/49/82 106/49/84 105/49/83
f 107/50/85 105/51/83 106/48/84
f 106/48/84 108/47/86 107/50/85
f 108/52/86 106/53/84 104/48/82
f 104/48/82 103/47/81 108/52/86
f 109/54/87 110/55/88 111/56/87
f 109/54/87 112/57/89 110/55/88
f 110/58/88 112/59/89 113/60/74
f 113/60/74 114/61/74 110/58/88
f 115/52/90 116/47/90 117/48/90
f 117/48/90 118/53/90 115/52/90
f 119/53/90 120/62/90 121/63/90
f 121/63/90 122/52/90 119/53/90
f 123/52/91 124/47/91 125/48/91
f 125/48/91 126/53/91 123/52/91
f 127/58/92 128/61/92 129/60/92
f 129/60/92 130/59/92 127/58/92
f 131/60/93 132/59/93 133/58/93
f 134/58/92 135/61/92 136/60/92
f 136/60/92 137/59/92 134/58/92
f 138/45/94 139/46/95 140/47/96
f 140/47/96 141/48/97 138/45/94
f 142/49/98 138/49/94 141/49/97
f 141/49/97 143/49/99 142/49/98
f 144/50/100 142/51/98 143/48/99
f 143/48/99 145/47/101 144/50/100
f 145/52/101 143/53/99 141/48/97
f 141/48/97 140/47/96 145/52/101
f 146/54/102 147/55/103 148/56/102
f 146/54/102 149/57/104 147/55/103
f 147/58/103 149/59/104 150/60/105
f 150/60/105 151/61/105 147/58/103
f 152/46/94 153/45/95 154/62/96
f 154/62/96 155/63/97 152/46/94
f 156/64/98 152/64/94 155/64/97
f 155/64/97 157/64/99 156/64/98
f 158/51/100 156/50/98 157/63/99
f 157/63/99 159/62/101 158/51/100
f 159/53/101 157/52/99 155/63/97
f 155/63/97 154/62/96 159/53/101
f 160/54/106 161/55/107 162/56/106
f 160/54/106 163/57/108 161/55/107
f 164/60/109 161/58/107 163/59/108
f 165/61/109 161/58/107 164/60/109
f 166/45/110 167/46/111 168/47/112
f 168/47/112 169/48/113 166/45/110
f 170/49/114 166/49/110 169/49/113
f 169/49/113 171/49/115 170/49/114
f 172/50/116 170/51/114 171/48/115
f 171/48/115 173/47/117 172/50/116
f 173/52/117 171/53/115 169/48/113
f 169/48/113 168/47/112 173/52/117
f 174/54/118 175/55/119 176/56/118
f 174/54/118 177/57/120 175/55/119
f 175/58/119 177/59/120 178/60/105
f 178/60/105 179/61/105 175/58/119
f 180/52/121 181/47/121 182/48/121
f 182/48/121 183/53/121 180/52/121
f 184/53/121 185/62/121 186/63/121
f 186/63/121 187/52/121 184/53/121
f 188/52/122 189/47/122 190/48/122
f 190/48/122 191/53/122 188/52/122
f 192/58/123 193/61/123 194/60/123
f 194/60/123 195/59/123 192/58/123
f 196/60/124 197/59/124 198/58/124
f 199/58/123 200/61/123 201/60/123
f 201/60/123 202/59/123 199/58/123
f 203/65/125 204/66/126 205/67/127
f 203/65/125 205/67/127 206/68/128
f 204/66/126 207/69/129 208/70/130
f 204/66/126 208/70/130 205/67/127
f 204/25/126 203/24/125 209/25/131
f 205/25/127 210/25/132 206/24/128
f 210/25/132 211/26/133 212/26/134
f 212/26/134 206/24/128 210/25/132
f 206/67/128 212/70/134 213/69/135
f 206/67/128 213/69/135 203/66/125
f 209/25/131 203/24/125 213/26/135
f 213/26/135 214/26/136 209/25/131
f 210/25/132 205/25/127 208/26/130
f 208/26/130 215/26/137 210/25/132
f 207/26/129 204/25/126 209/25/131
f 209/25/131 216/26/138 207/26/129
# 176 triangles in group

# 176 triangles total

