# Wavefront OBJ exported by MilkShape 3D

mtllib stone_mine1.mtl

v 0.195000 -0.723200 1.740300
v -0.193900 -0.724800 1.740300
v -0.193900 -0.724800 1.266700
v 0.195000 -0.723200 1.266700
v -0.530200 -0.530400 1.740400
v -0.724800 -0.192500 1.740400
v -0.724800 -0.192500 1.266700
v -0.530200 -0.530400 1.266700
v -0.724700 0.195900 1.740400
v -0.530300 0.532200 1.740400
v -0.530300 0.532200 1.266700
v -0.724600 0.195900 1.266700
v -0.193900 0.726200 1.740400
v 0.194500 0.726100 1.740400
v 0.194500 0.726100 1.266700
v -0.193900 0.726200 1.266700
v 0.530700 0.531800 1.740400
v 0.724800 0.195300 1.740400
v 0.724800 0.195300 1.266700
v 0.530700 0.531800 1.266700
v 0.724600 -0.193000 1.740400
v 0.531400 -0.529200 1.740400
v 0.531400 -0.529200 1.266700
v 0.724600 -0.193000 1.266700
v -0.960000 -0.192400 1.740400
v -0.959800 0.196000 1.740400
v -0.959800 0.196000 1.266700
v -0.960000 -0.192400 1.266700
v -0.647800 0.735900 1.740400
v -0.311400 0.929900 1.740400
v -0.311400 0.929900 1.266700
v -0.647800 0.735900 1.266700
v 0.312100 0.929700 1.740400
v 0.648400 0.735400 1.740400
v 0.648400 0.735400 1.266700
v 0.312100 0.929700 1.266700
v 0.960000 0.195300 1.740400
v 0.959800 -0.193100 1.740400
v 0.959800 -0.193100 1.266700
v 0.960000 0.195300 1.266700
v -0.311000 -0.929900 1.740400
v -0.647200 -0.735600 1.740400
v -0.647200 -0.735600 1.266700
v -0.311000 -0.929900 1.266700
v 0.650000 -0.732800 1.740400
v 0.313600 -0.926800 1.740400
v 0.313600 -0.926800 1.266700
v 0.650000 -0.732800 1.266700
v 0.195000 -0.723200 -1.740400
v -0.193900 -0.724800 -1.266700
v -0.193900 -0.724800 -1.740400
v 0.195000 -0.723200 -1.266700
v -0.530200 -0.530400 -1.740400
v -0.724800 -0.192500 -1.266800
v -0.724800 -0.192500 -1.740400
v -0.530200 -0.530400 -1.266800
v -0.724700 0.195900 -1.740400
v -0.530300 0.532200 -1.266700
v -0.530300 0.532200 -1.740400
v -0.724600 0.195900 -1.266700
v -0.193900 0.726200 -1.740400
v 0.194500 0.726100 -1.266700
v 0.194500 0.726100 -1.740400
v -0.193900 0.726200 -1.266700
v 0.530700 0.531800 -1.740400
v 0.724800 0.195300 -1.266700
v 0.724800 0.195300 -1.740400
v 0.530700 0.531800 -1.266700
v 0.724600 -0.193000 -1.740400
v 0.531400 -0.529200 -1.266700
v 0.531400 -0.529200 -1.740400
v 0.724600 -0.193000 -1.266700
v -0.960000 -0.192400 -1.740400
v -0.959800 0.196000 -1.266800
v -0.959800 0.196000 -1.740400
v -0.960000 -0.192400 -1.266800
v -0.647800 0.735900 -1.740400
v -0.311400 0.929900 -1.266700
v -0.311400 0.929900 -1.740400
v -0.647800 0.735900 -1.266700
v 0.312100 0.929700 -1.740400
v 0.648400 0.735400 -1.266800
v 0.648400 0.735400 -1.740400
v 0.312100 0.929700 -1.266700
v 0.960000 0.195300 -1.740400
v 0.959800 -0.193100 -1.266700
v 0.959800 -0.193100 -1.740400
v 0.960000 0.195300 -1.266700
v -0.311000 -0.929900 -1.740400
v -0.647200 -0.735600 -1.266700
v -0.647200 -0.735600 -1.740400
v -0.311000 -0.929900 -1.266700
v 0.650000 -0.732800 -1.740400
v 0.313600 -0.926800 -1.266700
v 0.313600 -0.926800 -1.740400
v 0.650000 -0.732800 -1.266700
# 96 vertices

vt 0.299600 0.775900
vt 0.367600 0.775900
vt 0.367600 0.809800
vt 0.299600 0.809800
vt 0.147500 0.464000
vt 0.108500 0.473900
vt 0.069400 0.464000
vt 0.040900 0.436800
vt 0.030400 0.399600
vt 0.040900 0.362500
vt 0.069400 0.335300
vt 0.108500 0.325300
vt 0.147500 0.335300
vt 0.176100 0.362500
vt 0.186600 0.399600
vt 0.176100 0.436800
vt 0.023600 0.346000
vt 0.052100 0.318800
vt 0.037600 0.407400
vt 0.058000 0.407400
vt 0.058000 0.427700
vt 0.037600 0.427700
vt 0.017200 0.442800
vt 0.006800 0.405700
vt 0.102200 0.496400
vt 0.063100 0.486500
vt 0.193400 0.453200
vt 0.164800 0.480400
# 28 texture coordinates

vn -0.270500 -0.472800 0.838600
vn 0.274400 -0.470300 0.838800
vn 0.274400 -0.470300 -0.838800
vn -0.270500 -0.472700 -0.838700
vn -0.545900 -0.001100 0.837800
vn -0.272600 -0.471400 0.838700
vn -0.272700 -0.471400 -0.838700
vn -0.546000 -0.001100 -0.837800
vn -0.272200 0.471800 0.838600
vn -0.544700 0.000200 0.838600
vn -0.544700 0.000200 -0.838600
vn -0.272200 0.471800 -0.838600
vn 0.272500 0.471600 0.838600
vn 0.272500 0.471600 -0.838600
vn 0.544700 -0.000200 0.838600
vn 0.544700 -0.000200 -0.838600
vn 0.272500 -0.471100 0.838900
vn 0.544300 0.001600 0.838900
vn 0.544300 0.001500 -0.838900
vn 0.272500 -0.471100 -0.838900
vn -0.577600 -0.577100 0.577300
vn -0.577100 0.577600 0.577400
vn -0.577100 0.577600 -0.577300
vn -0.577600 -0.577100 -0.577300
vn -0.788600 0.211600 0.577400
vn 0.211600 0.788600 0.577400
vn 0.211600 0.788600 -0.577400
vn -0.788600 0.211600 -0.577300
vn -0.211000 0.788800 0.577400
vn 0.788800 0.211000 0.577300
vn 0.788800 0.211000 -0.577300
vn -0.211000 0.788800 -0.577300
vn 0.577600 0.577100 0.577300
vn 0.577100 -0.577600 0.577300
vn 0.577100 -0.577600 -0.577300
vn 0.577600 0.577100 -0.577400
vn 0.213200 -0.788400 0.577100
vn -0.788000 -0.213100 0.577600
vn -0.788000 -0.213100 -0.577700
vn 0.213200 -0.788400 -0.577100
vn 0.789200 -0.210000 0.577100
vn -0.209900 -0.788900 0.577600
vn -0.209900 -0.788900 -0.577600
vn 0.789200 -0.210000 -0.577100
# 44 normals

g stone_mine1
usemtl 13___Default
s 1
f 1/1/1 2/2/2 3/3/3
f 3/3/3 4/4/4 1/1/1
f 5/1/5 6/2/6 7/3/7
f 7/3/7 8/4/8 5/1/5
f 9/1/9 10/2/10 11/3/11
f 11/3/11 12/4/12 9/1/9
f 13/1/13 14/2/9 15/3/12
f 15/3/12 16/4/14 13/1/13
f 17/1/15 18/2/13 19/3/14
f 19/3/14 20/4/16 17/1/15
f 21/1/17 22/2/18 23/3/19
f 23/3/19 24/4/20 21/1/17
f 18/5/13 17/6/15 14/7/9
f 14/7/9 13/8/13 10/9/10
f 10/9/10 9/10/9 6/11/6
f 14/7/9 10/9/10 6/11/6
f 6/11/6 5/12/5 2/13/2
f 2/13/2 1/14/1 22/15/18
f 6/11/6 2/13/2 22/15/18
f 14/7/9 6/11/6 22/15/18
f 18/5/13 14/7/9 22/15/18
f 21/16/17 18/5/13 22/15/18
f 4/14/4 3/13/3 8/12/8
f 8/12/8 7/11/7 12/10/12
f 12/10/12 11/9/11 16/8/14
f 8/12/8 12/10/12 16/8/14
f 16/8/14 15/7/12 20/6/16
f 20/6/16 19/5/14 24/16/20
f 16/8/14 20/6/16 24/16/20
f 8/12/8 16/8/14 24/16/20
f 4/14/4 8/12/8 24/16/20
f 23/15/19 4/14/4 24/16/20
f 25/1/21 26/2/22 27/3/23
f 27/3/23 28/4/24 25/1/21
f 29/1/25 30/2/26 31/3/27
f 31/3/27 32/4/28 29/1/25
f 33/1/29 34/2/30 35/3/31
f 35/3/31 36/4/32 33/1/29
f 37/1/33 38/2/34 39/3/35
f 39/3/35 40/4/36 37/1/33
f 6/11/6 9/10/9 26/17/22
f 26/17/22 25/18/21 6/11/6
f 9/19/9 12/20/12 27/21/23
f 27/21/23 26/22/22 9/19/9
f 12/10/12 7/11/7 28/18/24
f 28/18/24 27/17/23 12/10/12
f 7/19/7 6/20/6 25/21/21
f 25/21/21 28/22/24 7/19/7
f 10/9/10 13/8/13 30/23/26
f 30/23/26 29/24/25 10/9/10
f 13/19/13 16/20/14 31/21/27
f 31/21/27 30/22/26 13/19/13
f 16/8/14 11/9/11 32/24/28
f 32/24/28 31/23/27 16/8/14
f 11/19/11 10/20/10 29/21/25
f 29/21/25 32/22/28 11/19/11
f 14/7/9 17/6/15 34/25/30
f 34/25/30 33/26/29 14/7/9
f 17/19/15 20/20/16 35/21/31
f 35/21/31 34/22/30 17/19/15
f 20/6/16 15/7/12 36/26/32
f 36/26/32 35/25/31 20/6/16
f 15/19/12 14/20/9 33/21/29
f 33/21/29 36/22/32 15/19/12
f 18/5/13 21/16/17 38/27/34
f 38/27/34 37/28/33 18/5/13
f 21/19/17 24/20/20 39/21/35
f 39/21/35 38/22/34 21/19/17
f 24/16/20 19/5/14 40/28/36
f 40/28/36 39/27/35 24/16/20
f 19/19/14 18/20/13 37/21/33
f 37/21/33 40/22/36 19/19/14
f 41/1/37 42/2/38 43/3/39
f 43/3/39 44/4/40 41/1/37
f 2/11/2 5/10/5 42/17/38
f 42/17/38 41/18/37 2/11/2
f 5/19/5 8/20/8 43/21/39
f 43/21/39 42/22/38 5/19/5
f 8/10/8 3/11/3 44/18/40
f 44/18/40 43/17/39 8/10/8
f 3/19/3 2/20/2 41/21/37
f 41/21/37 44/22/40 3/19/3
f 45/1/41 46/2/42 47/3/43
f 47/3/43 48/4/44 45/1/41
f 22/11/18 1/10/1 46/17/42
f 46/17/42 45/18/41 22/11/18
f 1/19/1 4/20/4 47/21/43
f 47/21/43 46/22/42 1/19/1
f 4/10/4 23/11/19 48/18/44
f 48/18/44 47/17/43 4/10/4
f 23/19/19 22/20/18 45/21/41
f 45/21/41 48/22/44 23/19/19
f 49/1/4 50/3/2 51/2/3
f 50/3/2 49/1/4 52/4/1
f 53/1/8 54/3/6 55/2/7
f 54/3/6 53/1/8 56/4/5
f 57/1/12 58/3/10 59/2/11
f 58/3/10 57/1/12 60/4/9
f 61/1/14 62/3/9 63/2/12
f 62/3/9 61/1/14 64/4/13
f 65/1/16 66/3/13 67/2/14
f 66/3/13 65/1/16 68/4/15
f 69/1/20 70/3/18 71/2/19
f 70/3/18 69/1/20 72/4/17
f 67/5/14 63/7/12 65/6/16
f 63/7/12 59/9/11 61/8/14
f 59/9/11 55/11/7 57/10/12
f 63/7/12 55/11/7 59/9/11
f 55/11/7 51/13/3 53/12/8
f 51/13/3 71/15/19 49/14/4
f 55/11/7 71/15/19 51/13/3
f 63/7/12 71/15/19 55/11/7
f 67/5/14 71/15/19 63/7/12
f 69/16/20 71/15/19 67/5/14
f 52/14/1 56/12/5 50/13/2
f 56/12/5 60/10/9 54/11/6
f 60/10/9 64/8/13 58/9/10
f 56/12/5 64/8/13 60/10/9
f 64/8/13 68/6/15 62/7/9
f 68/6/15 72/16/17 66/5/13
f 64/8/13 72/16/17 68/6/15
f 56/12/5 72/16/17 64/8/13
f 52/14/1 72/16/17 56/12/5
f 70/15/18 72/16/17 52/14/1
f 73/1/24 74/3/22 75/2/23
f 74/3/22 73/1/24 76/4/21
f 77/1/28 78/3/26 79/2/27
f 78/3/26 77/1/28 80/4/25
f 81/1/32 82/3/30 83/2/31
f 82/3/30 81/1/32 84/4/29
f 85/1/36 86/3/34 87/2/35
f 86/3/34 85/1/36 88/4/33
f 55/11/7 75/17/23 57/10/12
f 75/17/23 55/11/7 73/18/24
f 57/19/12 74/21/22 60/20/9
f 74/21/22 57/19/12 75/22/23
f 60/10/9 76/18/21 54/11/6
f 76/18/21 60/10/9 74/17/22
f 54/19/6 73/21/24 55/20/7
f 73/21/24 54/19/6 76/22/21
f 59/9/11 79/23/27 61/8/14
f 79/23/27 59/9/11 77/24/28
f 61/19/14 78/21/26 64/20/13
f 78/21/26 61/19/14 79/22/27
f 64/8/13 80/24/25 58/9/10
f 80/24/25 64/8/13 78/23/26
f 58/19/10 77/21/28 59/20/11
f 77/21/28 58/19/10 80/22/25
f 63/7/12 83/25/31 65/6/16
f 83/25/31 63/7/12 81/26/32
f 65/19/16 82/21/30 68/20/15
f 82/21/30 65/19/16 83/22/31
f 68/6/15 84/26/29 62/7/9
f 84/26/29 68/6/15 82/25/30
f 62/19/9 81/21/32 63/20/12
f 81/21/32 62/19/9 84/22/29
f 67/5/14 87/27/35 69/16/20
f 87/27/35 67/5/14 85/28/36
f 69/19/20 86/21/34 72/20/17
f 86/21/34 69/19/20 87/22/35
f 72/16/17 88/28/33 66/5/13
f 88/28/33 72/16/17 86/27/34
f 66/19/13 85/21/36 67/20/14
f 85/21/36 66/19/13 88/22/33
f 89/1/40 90/3/38 91/2/39
f 90/3/38 89/1/40 92/4/37
f 51/11/3 91/17/39 53/10/8
f 91/17/39 51/11/3 89/18/40
f 53/19/8 90/21/38 56/20/5
f 90/21/38 53/19/8 91/22/39
f 56/10/5 92/18/37 50/11/2
f 92/18/37 56/10/5 90/17/38
f 50/19/2 89/21/40 51/20/3
f 89/21/40 50/19/2 92/22/37
f 93/1/44 94/3/42 95/2/43
f 94/3/42 93/1/44 96/4/41
f 71/11/19 95/17/43 49/10/4
f 95/17/43 71/11/19 93/18/44
f 49/19/4 94/21/42 52/20/1
f 94/21/42 49/19/4 95/22/43
f 52/10/1 96/18/41 70/11/18
f 96/18/41 52/10/1 94/17/42
f 70/19/18 93/21/44 71/20/19
f 93/21/44 70/19/18 96/22/41
# 184 triangles in group

# 184 triangles total

