# Wavefront OBJ exported by MilkShape 3D

mtllib tree.mtl

v 0.061405 1.015893 0.113611
v 0.091312 -0.001186 0.413160
v 0.171463 -0.005108 -0.125948
v 0.137242 1.011734 -0.158970
v -0.180414 1.019813 -0.121181
v -0.370118 -0.002071 0.002421
v 0.130448 2.676631 -0.205717
v -0.930906 1.087937 -0.427283
v -1.075031 0.753138 -0.119053
v -0.612339 0.841757 0.722061
v -0.261778 1.208568 0.803076
v -0.001591 2.001015 -0.102414
v 1.323085 1.295673 0.368034
v 1.404342 1.046704 0.045880
v 0.809918 0.938929 -0.889227
v 0.382114 1.185606 -1.008930
v -0.048744 0.830858 -1.099696
v -0.838767 0.753443 -0.766003
v 0.198265 0.946456 0.984845
v 1.183426 1.046998 0.664689
v 0.623103 1.579373 -0.972495
v 0.370459 1.297811 -1.118391
v -0.364766 1.320860 -0.901074
v 0.060246 2.302271 -0.268761
v -0.629872 1.623145 -0.598721
v -0.554991 1.946609 0.892487
v -0.258738 1.819938 1.057551
v 0.552728 1.780480 0.762164
v 0.801662 1.937545 0.260316
v 1.071166 1.590697 -0.078413
v 0.942400 1.407927 -0.780270
v -0.867821 1.478747 -0.189473
v -0.779327 1.719883 0.750478
v -0.131417 2.721881 -0.046062
v -0.577245 1.965660 -0.728721
v -0.753222 2.072219 0.412114
v 0.552553 2.071088 -0.432633
v 0.438426 2.194981 0.835986
v 0.240583 2.640694 -0.359443
v 0.939810 2.074925 -0.223651
v 0.306990 2.032981 -0.937915
v 0.152356 2.179802 0.328141
v -0.594586 2.141194 -0.414982
v 0.046229 2.873518 -0.277415
v 0.456044 2.347176 -0.789802
v -0.459469 2.375876 -0.519198
v 0.625948 2.588334 0.136277
v -0.363836 2.636464 0.496575
# 48 vertices

vt 0.060865 0.853229
vt 0.062034 0.751995
vt 0.005233 0.756332
vt 0.005586 0.854982
vt 0.080498 0.853077
vt 0.083955 0.750925
vt 0.000697 0.750099
vt 0.065298 0.874196
vt 0.065308 0.752756
vt 0.029734 0.750684
vt 0.031030 0.839202
vt 0.034631 0.999515
vt 0.225858 0.878435
vt 0.251317 0.861453
vt 0.251321 0.789503
vt 0.226489 0.773419
vt 0.164944 0.828190
vt 0.109076 0.768063
vt 0.093495 0.787792
vt 0.093496 0.863074
vt 0.112654 0.880342
vt 0.142457 0.899444
vt 0.210145 0.899437
vt 0.208018 0.751311
vt 0.132514 0.751300
vt 0.251317 0.859038
vt 0.251321 0.797636
vt 0.166592 0.828420
vt 0.093496 0.850728
vt 0.118334 0.875313
vt 0.147250 0.899444
vt 0.208993 0.899437
vt 0.251314 0.899433
vt 0.251324 0.751317
vt 0.093496 0.899449
vt 0.093495 0.751294
vt 0.167144 0.827385
vt 0.086788 0.899140
vt 0.086383 0.750856
# 39 texture coordinates

vn 0.268149 0.207893 0.940679
vn 0.298859 0.287731 0.909887
vn 0.700512 0.026508 -0.713148
vn 0.748946 -0.026124 -0.662116
vn -0.929875 0.131303 -0.343645
vn -0.965920 0.187193 -0.178768
vn 0.074105 0.993231 -0.089449
vn -0.643749 0.733178 -0.219175
vn -0.717746 0.613010 0.330241
vn -0.340002 0.753938 0.562118
vn -0.122399 0.991649 -0.040632
vn 0.421513 0.893792 0.153175
vn 0.538428 0.727028 -0.426058
vn 0.118185 0.762624 -0.635954
vn -0.357392 0.614108 -0.703663
vn 0.145502 0.723413 0.674910
vn 0.213021 0.761633 -0.611995
vn -0.211231 0.592391 -0.777467
vn -0.042724 0.965479 -0.256952
vn -0.479408 0.726419 -0.492427
vn -0.279533 0.949472 0.142701
vn 0.180445 0.909625 0.374196
vn 0.420420 0.906622 0.035840
vn 0.586017 0.751437 -0.303195
vn -0.664418 0.736592 -0.126413
vn -0.072215 0.991649 -0.106853
vn -0.371710 0.733190 -0.569442
vn -0.604504 0.755889 0.251407
vn 0.471525 0.760622 -0.446227
vn 0.242530 0.893798 0.377233
vn 0.069019 0.992735 -0.098556
vn 0.631130 0.775444 -0.019007
vn 0.141819 0.690584 -0.709212
vn -0.011104 0.831259 0.555774
vn -0.498375 0.851445 -0.163292
vn 0.215133 0.762049 -0.610737
vn -0.478221 0.726041 -0.494134
vn 0.417108 0.907915 0.041377
vn -0.273224 0.950740 0.146432
# 39 normals

g model_texture2.png
usemtl model_texture2.png
s 1
f 1/1/1 2/2/2 3/3/3
f 3/3/3 4/4/4 1/1/1
f 5/5/5 6/6/6 2/7/2
f 2/7/2 1/4/1 5/5/5
f 4/8/4 3/9/3 6/10/6
f 6/10/6 5/11/5 4/8/4
f 4/4/4 7/12/7 1/1/1
f 1/4/1 7/12/7 5/5/5
f 5/11/5 7/12/7 4/8/4
f 8/13/8 9/14/9 10/15/9
f 8/13/8 10/15/9 11/16/10
f 12/17/11 8/13/8 11/16/10
f 13/18/12 14/19/13 15/20/13
f 12/17/11 13/18/12 15/20/13
f 16/21/14 12/17/11 15/20/13
f 16/21/14 17/22/15 18/23/15
f 12/17/11 16/21/14 18/23/15
f 8/13/8 12/17/11 18/23/15
f 19/24/16 20/25/16 13/18/12
f 11/16/10 19/24/16 13/18/12
f 12/17/11 11/16/10 13/18/12
f 21/13/17 22/26/18 23/27/18
f 24/28/19 21/13/17 23/27/18
f 24/28/19 23/27/18 25/16/20
f 26/18/21 27/19/22 28/29/22
f 24/28/19 26/18/21 28/29/22
f 29/30/23 24/28/19 28/29/22
f 29/30/23 30/31/24 31/32/24
f 24/28/19 29/30/23 31/32/24
f 21/13/17 24/28/19 31/32/24
f 32/24/25 33/25/25 26/18/21
f 25/16/20 32/24/25 26/18/21
f 24/28/19 25/16/20 26/18/21
f 34/17/26 35/33/27 36/34/28
f 37/35/29 34/17/26 38/36/30
f 35/33/27 34/17/26 37/35/29
f 34/17/26 36/34/28 38/36/30
f 39/37/31 40/33/32 41/34/33
f 42/38/34 39/37/31 43/39/35
f 40/33/32 39/37/31 42/38/34
f 39/37/31 41/34/33 43/39/35
f 44/28/19 45/33/36 46/34/37
f 47/35/38 44/28/19 48/36/39
f 45/33/36 44/28/19 47/35/38
f 44/28/19 46/34/37 48/36/39
# 45 triangles in group

# 45 triangles total

