# Wavefront OBJ exported by MilkShape 3D

mtllib warship3.mtl

v 0.587400 0.672100 -0.355900
v 0.587400 0.672100 0.355100
v 0.502700 1.063400 0.273200
v 0.502700 1.063400 -0.274000
v 0.620700 1.574800 0.051000
v 0.620700 1.574800 -0.051900
v -0.095400 0.656800 -0.479200
v -0.095400 0.656800 0.478400
v -0.209500 1.183700 0.368000
v -0.209500 1.183700 -0.368900
v -0.050600 1.872400 0.068500
v -0.050600 1.872400 -0.069400
v -0.724600 0.672100 -0.355900
v -0.724600 0.672100 0.355100
v -0.809300 1.063400 0.273200
v -0.809300 1.063400 -0.274000
v -0.691400 1.574800 0.053000
v -0.691400 1.574800 -0.053800
v -0.088600 0.562100 -0.490800
v -0.142000 0.621300 -0.490800
v -0.088600 0.680500 -0.490800
v -0.035100 0.621300 -0.490800
v 1.078900 0.409300 0.029000
v 1.206300 0.512700 0.008500
v 1.204900 0.536600 0.008500
v 0.983000 0.522200 0.049900
v 1.204900 0.536600 -0.009300
v 0.983000 0.522200 -0.050700
v 1.078900 0.409300 -0.029700
v 0.966700 0.390100 -0.050700
v 0.966700 0.390100 0.049900
v 0.995900 0.156000 0.029000
v 0.995900 0.156000 -0.029700
v 0.853100 0.173300 0.049900
v 0.853100 0.173300 -0.050700
v 0.896000 0.044100 -0.029700
v 0.896000 0.044100 0.029000
v 1.206300 0.512700 -0.009300
v 0.930800 -0.001700 -0.029700
v 0.742700 -0.001700 -0.050700
v 0.930800 -0.001700 0.029000
v 0.742700 -0.001700 0.049900
v -1.171500 0.424100 0.029000
v -1.061800 0.556700 0.049900
v -1.434300 0.587400 0.008500
v -1.436100 0.558700 0.008500
v -1.434300 0.587400 -0.009300
v -1.061800 0.556700 -0.050700
v -1.171500 0.424100 -0.029700
v -1.024500 0.426900 -0.050700
v -1.024500 0.426900 0.049900
v -1.078600 0.156000 -0.029700
v -1.078600 0.156000 0.029000
v -0.891400 0.173300 0.049900
v -0.891400 0.173300 -0.050700
v -0.947700 0.044100 -0.029700
v -0.947700 0.044100 0.029000
v -1.436100 0.558700 -0.009300
v -0.746700 -0.001700 -0.050700
v -0.993300 -0.001700 -0.029700
v -0.993300 -0.001700 0.029000
v -0.746700 -0.001700 0.049900
v -0.481500 -0.001500 0.171700
v -0.493200 0.187700 0.233200
v -0.814800 0.182700 0.167000
v -0.609400 0.507900 0.247100
v -0.478500 0.409000 0.261100
v 0.529200 0.188400 0.202900
v 0.632600 -0.001500 0.155200
v 0.806400 0.216500 0.134100
v 0.001000 0.408900 0.251300
v 0.001000 0.188400 0.230800
v 0.486900 0.408800 0.215500
v 0.616000 0.493300 0.203000
v 0.871300 0.493300 0.139500
v 0.002700 -0.001500 0.205600
v -0.929300 0.509400 0.176100
v -0.902800 0.509400 0.133600
v -0.609400 0.507900 0.209800
v -0.478500 0.409000 0.221800
v 0.001000 0.408900 0.213400
v 0.486900 0.408800 0.183000
v 0.616000 0.493300 0.170000
v 0.871300 0.421500 0.095900
v 1.042400 0.421500 -0.000400
v 0.616000 0.421500 -0.000400
v 0.486900 0.301600 -0.000400
v 0.486900 0.301600 0.183000
v 0.616000 0.421500 0.170000
v 0.001000 0.301700 -0.000400
v 0.001000 0.301700 0.213400
v -0.478500 0.301800 -0.000400
v -0.478500 0.301800 0.221800
v -0.609400 0.436100 0.209800
v -0.609400 0.436100 -0.000400
v 0.871300 0.493300 0.095900
v -0.902800 0.437600 0.133600
v -1.051400 0.179800 0.028700
v -0.858100 -0.001500 0.037700
v -1.164200 0.510900 0.029000
v -1.100400 0.510900 -0.000400
v -1.100400 0.439200 -0.000400
v 1.042400 0.493300 -0.000400
v 1.042400 0.493300 0.034300
v 0.988000 0.246700 0.032500
v 0.805200 -0.001500 0.037200
v -0.481500 -0.001500 -0.172500
v -0.814800 0.182700 -0.167800
v -0.493200 0.187700 -0.234000
v -0.609400 0.507900 -0.247900
v -0.478500 0.409000 -0.261900
v 0.529200 0.188400 -0.188000
v 0.806400 0.216500 -0.134900
v 0.632600 -0.001500 -0.156000
v 0.001000 0.408900 -0.252100
v 0.486900 0.408800 -0.216200
v 0.001000 0.188400 -0.231600
v 0.616000 0.493300 -0.188100
v 0.871300 0.493300 -0.140200
v 0.002700 -0.001500 -0.206400
v -0.929300 0.509400 -0.176900
v -0.902800 0.509400 -0.134400
v -0.609400 0.507900 -0.210600
v -0.478500 0.409000 -0.222500
v 0.001000 0.408900 -0.214200
v 0.486900 0.408800 -0.183800
v 0.616000 0.493300 -0.159800
v 0.871300 0.421500 -0.096700
v 0.616000 0.421500 -0.159800
v 0.486900 0.301600 -0.183800
v 0.001000 0.301700 -0.214200
v -0.478500 0.301800 -0.222500
v -0.609400 0.436100 -0.210600
v 0.871300 0.493300 -0.096700
v -0.902800 0.437600 -0.134400
v -0.858100 -0.001500 -0.038500
v -1.051400 0.179800 -0.029400
v -1.164200 0.510900 -0.029800
v 1.042400 0.493300 -0.035100
v 0.988000 0.246700 -0.033300
v 0.805200 -0.001500 -0.038000
v 0.661500 0.410300 -0.044300
v 0.616000 0.410300 -0.000400
v 0.628100 1.556200 -0.000400
v 0.661500 1.556200 -0.032200
v 0.661500 0.410300 0.046600
v 0.661500 1.556200 0.034400
v 0.706900 0.410300 -0.000400
v 0.694800 1.556200 -0.000400
v 0.630000 1.736100 -0.000400
v 0.661500 1.736100 0.032500
v 0.692900 1.736100 -0.000400
v 0.661500 1.736100 -0.030300
v 0.866500 1.596000 0.004600
v 0.677200 1.693100 0.004600
v 0.677200 1.556700 0.004600
v 0.866500 1.596000 -0.006000
v 0.677200 1.556700 -0.006000
v 0.677200 1.693100 -0.006000
v -0.006100 0.291300 -0.061700
v -0.067500 0.291300 -0.000400
v -0.051200 1.851500 -0.000400
v -0.006100 1.851500 -0.045500
v -0.006100 0.291300 0.060900
v -0.006100 1.851500 0.044700
v 0.055200 0.291300 -0.000400
v 0.039000 1.851500 -0.000400
v -0.048500 2.106400 -0.000400
v -0.006100 2.106400 0.042000
v 0.036300 2.106400 -0.000400
v -0.006100 2.106400 -0.042800
v 0.270600 1.917400 0.006800
v 0.015100 2.048400 0.006800
v 0.015100 1.864300 0.006800
v 0.270600 1.917400 -0.007600
v 0.015100 1.864300 -0.007600
v 0.015100 2.048400 -0.007600
v -0.658900 0.424300 -0.045800
v -0.704400 0.424300 -0.000400
v -0.692600 1.536700 -0.000400
v -0.658900 1.536700 -0.034100
v -0.658900 0.424300 0.045100
v -0.658900 1.536700 0.033300
v -0.613500 0.424300 -0.000400
v -0.625300 1.536700 -0.000400
v -0.690300 1.750100 -0.000400
v -0.658900 1.750100 0.031000
v -0.627500 1.750100 -0.000400
v -0.658900 1.750100 -0.031800
v -0.453900 1.610000 0.004900
v -0.643200 1.707100 0.004900
v -0.643200 1.570700 0.004900
v -0.453900 1.610000 -0.005700
v -0.643200 1.570700 -0.005700
v -0.643200 1.707100 -0.005700
v -0.720000 0.693400 -0.359900
v -0.759600 0.649600 -0.359900
v -0.759600 0.649600 0.362900
v -0.720000 0.693400 0.362900
v -0.680400 0.649600 -0.359900
v -0.680400 0.649600 0.362900
v -0.720000 0.605700 -0.359900
v -0.720000 0.605700 0.362900
v -0.142000 0.621300 0.484600
v -0.088600 0.680500 0.484600
v -0.035100 0.621300 0.484600
v -0.088600 0.562100 0.484600
v 0.604000 0.693400 -0.361600
v 0.564400 0.649600 -0.361600
v 0.564400 0.649600 0.361300
v 0.604000 0.693400 0.361300
v 0.643600 0.649600 -0.361600
v 0.643600 0.649600 0.361300
v 0.604000 0.605700 -0.361600
v 0.604000 0.605700 0.361300
v 0.602000 0.672100 -0.355900
v 0.517300 1.063400 -0.274000
v 0.517300 1.063400 0.273200
v 0.602000 0.672100 0.355100
v 0.635200 1.574800 -0.051900
v 0.635200 1.574800 0.051000
v -0.080800 0.656800 -0.479200
v -0.194900 1.183700 -0.368900
v -0.194900 1.183700 0.368000
v -0.080800 0.656800 0.478400
v -0.036000 1.872400 -0.069400
v -0.036000 1.872400 0.068500
v -0.710000 0.672100 -0.355900
v -0.794700 1.063400 -0.274000
v -0.794700 1.063400 0.273200
v -0.710000 0.672100 0.355100
v -0.676800 1.574800 -0.053800
v -0.676800 1.574800 0.053000
# 233 vertices

vt 0.459500 0.004300
vt 0.459500 0.046500
vt 0.431600 0.041600
vt 0.431600 0.009200
vt 0.395100 0.028400
vt 0.395100 0.022300
vt 0.731800 0.342300
vt 0.731800 0.317400
vt 0.756900 0.317400
vt 0.756900 0.342300
vt 0.634600 0.750600
vt 0.628200 0.753200
vt 0.628700 0.724200
vt 0.627100 0.724200
vt 0.635500 0.744600
vt 0.635500 0.741700
vt 0.618100 0.741700
vt 0.618100 0.744600
vt 0.616200 0.752900
vt 0.616200 0.740400
vt 0.598800 0.740400
vt 0.598800 0.752900
vt 0.643300 0.734000
vt 0.641100 0.735300
vt 0.642900 0.741800
vt 0.644900 0.741200
vt 0.641500 0.733100
vt 0.616200 0.737200
vt 0.598800 0.737200
vt 0.631900 0.746300
vt 0.631900 0.735600
vt 0.621800 0.735600
vt 0.621800 0.746300
vt 0.642000 0.731000
vt 0.643600 0.730000
vt 0.616200 0.734000
vt 0.598800 0.734000
vt 0.597300 0.787700
vt 0.620700 0.786700
vt 0.619300 0.804300
vt 0.650600 0.793400
vt 0.643200 0.785900
vt 0.597300 0.777400
vt 0.623500 0.802100
vt 0.643200 0.757800
vt 0.620700 0.757800
vt 0.643200 0.784700
vt 0.650600 0.792200
vt 0.650600 0.805900
vt 0.597300 0.757800
vt 0.650600 0.811100
vt 0.623500 0.744500
vt 0.631700 0.744500
vt 0.631700 0.743100
vt 0.623500 0.743100
vt 0.623500 0.739000
vt 0.631700 0.739000
vt 0.623500 0.735700
vt 0.492700 0.179600
vt 0.474700 0.205900
vt 0.510700 0.205900
vt 0.527900 0.133600
vt 0.527900 0.103400
vt 0.471400 0.103400
vt 0.471400 0.133600
vt 0.472600 0.205900
vt 0.522100 0.205900
vt 0.522100 0.155900
vt 0.472600 0.165200
vt 0.466400 0.205900
vt 0.466400 0.154000
vt 0.631700 0.733900
vt 0.623500 0.733900
vt 0.524400 0.205900
vt 0.495300 0.168400
vt 0.524400 0.149400
vt 0.646600 0.776900
vt 0.647100 0.775600
vt 0.647100 0.770300
vt 0.647100 0.766000
vt 0.647100 0.763200
vt 0.617900 0.821900
vt 0.597300 0.806900
vt 0.650600 0.828800
vt 0.623500 0.745900
vt 0.647100 0.761500
vt 0.646600 0.778200
vt 0.626300 0.817100
vt 0.650600 0.819700
vt 0.597300 0.802000
vt 0.510700 0.160700
vt 0.802200 0.320900
vt 0.802200 0.325700
vt 0.832100 0.325700
vt 0.832100 0.320900
vt 0.802200 0.330500
vt 0.832100 0.330500
vt 0.802200 0.335300
vt 0.832100 0.335300
vt 0.802200 0.340200
vt 0.832100 0.340200
vt 0.540500 0.069700
vt 0.507400 0.084300
vt 0.506900 0.067500
vt 0.837400 0.330500
vt 0.837400 0.335300
vt 0.840100 0.335300
vt 0.840100 0.330500
vt 0.837400 0.325700
vt 0.840100 0.325700
vt 0.837400 0.320900
vt 0.840100 0.320900
vt 0.837400 0.340200
vt 0.840100 0.340200
vt 0.840700 0.306500
vt 0.840700 0.294400
vt 0.732000 0.294400
vt 0.732000 0.306500
# 118 texture coordinates

vn -0.977400 -0.211600 -0.000000
vn -0.996900 -0.078400 -0.000000
vn -0.974400 0.224700 0.000000
vn 0.000000 0.000000 -1.000000
vn 0.470500 -0.144400 0.870500
vn 0.200800 -0.020500 0.979400
vn 0.105800 0.694600 0.711500
vn -0.544600 0.603000 0.582900
vn 0.105800 0.694600 -0.711500
vn -0.544600 0.603000 -0.582900
vn 0.470500 -0.144400 -0.870500
vn -0.108300 -0.029000 -0.993700
vn -0.108300 -0.029000 0.993700
vn 0.556300 -0.275100 0.784200
vn 0.556200 -0.275100 -0.784200
vn 0.154300 -0.072200 0.985400
vn 0.154300 -0.072200 -0.985400
vn 0.390000 -0.163500 -0.906200
vn 0.390000 -0.163500 0.906200
vn 0.200800 -0.020500 -0.979400
vn 0.407100 0.158600 -0.899500
vn 0.150200 -0.051400 -0.987300
vn 0.407100 0.158600 0.899500
vn 0.150300 -0.051400 0.987300
vn -0.307800 -0.117200 0.944200
vn 0.333500 0.647300 0.685400
vn -0.050600 0.592700 0.803900
vn -0.123100 -0.051900 0.991000
vn -0.050600 0.592700 -0.803900
vn 0.333500 0.647300 -0.685400
vn -0.307800 -0.117200 -0.944200
vn 0.073700 0.005500 -0.997300
vn 0.073700 0.005500 0.997300
vn -0.438600 -0.248800 -0.863600
vn -0.438600 -0.248800 0.863600
vn -0.116600 -0.061400 0.991300
vn -0.116600 -0.061400 -0.991300
vn -0.302300 -0.168400 -0.938200
vn -0.302300 -0.168400 0.938200
vn -0.123100 -0.051900 -0.991000
vn -0.115200 -0.051700 -0.992000
vn -0.351700 0.196900 -0.915200
vn -0.351700 0.196900 0.915200
vn -0.115200 -0.051700 0.992000
vn -0.115000 -0.288300 0.950600
vn -0.082800 -0.164300 0.982900
vn -0.334700 -0.265000 0.904300
vn -0.178600 0.014500 0.983800
vn 0.007600 0.063000 0.998000
vn 0.110400 -0.116800 0.987000
vn 0.210300 -0.207700 0.955300
vn 0.390000 -0.179100 0.903200
vn 0.038000 0.070700 0.996800
vn 0.030000 -0.140400 0.989600
vn 0.052200 0.086000 0.994900
vn 0.207400 0.057800 0.976600
vn 0.373900 0.024600 0.927100
vn 0.021900 -0.195100 0.980500
vn -0.385700 -0.027100 0.922200
vn 0.312400 0.619300 -0.720300
vn 0.273400 0.561200 -0.781200
vn 0.063400 0.332000 -0.941100
vn -0.037900 0.329000 -0.943600
vn -0.108600 0.292000 -0.950200
vn -0.277900 0.497500 -0.821800
vn -0.241100 0.760200 -0.603300
vn -0.718100 0.696000 0.000000
vn -0.433300 0.901300 0.000000
vn -0.172700 0.985000 0.000000
vn -0.175200 0.888900 -0.423200
vn -0.471200 0.673100 -0.570000
vn 0.000100 1.000000 0.000000
vn -0.018500 0.886500 -0.462500
vn 0.213800 0.976900 0.000000
vn 0.189600 0.899400 -0.393900
vn 0.485000 0.716800 -0.500900
vn 0.439600 0.898200 0.000000
vn -0.330300 0.456000 -0.826400
vn 0.222200 0.832900 -0.506900
vn -0.472500 -0.268400 0.839500
vn -0.354200 -0.480000 0.802600
vn -0.515700 -0.071100 0.853800
vn 0.453100 0.891400 -0.000000
vn 0.615000 0.788500 0.000000
vn -0.837600 0.546300 0.000000
vn 0.512800 0.064700 0.856100
vn 0.514200 -0.196000 0.835000
vn 0.514900 -0.350500 0.782300
vn -0.115000 -0.288300 -0.950600
vn -0.334700 -0.265000 -0.904300
vn -0.082800 -0.164300 -0.982900
vn -0.178600 0.014500 -0.983800
vn 0.007600 0.063000 -0.998000
vn 0.109100 -0.102300 -0.988800
vn 0.365600 -0.171500 -0.914800
vn 0.209600 -0.174000 -0.962200
vn 0.045900 0.053500 -0.997500
vn 0.087900 0.047200 -0.995000
vn 0.037500 -0.137900 -0.989700
vn 0.166300 0.066400 -0.983800
vn 0.346700 0.024900 -0.937600
vn 0.029200 -0.171700 -0.984700
vn -0.385700 -0.027100 -0.922200
vn 0.312400 0.619200 0.720400
vn 0.273400 0.561200 0.781200
vn 0.063400 0.332000 0.941100
vn -0.037900 0.329000 0.943600
vn -0.125800 0.289700 0.948800
vn -0.269700 0.463800 0.843900
vn -0.230200 0.753500 0.615800
vn -0.483500 0.664800 0.569400
vn -0.170500 0.887400 0.428400
vn -0.018500 0.886400 0.462600
vn 0.189600 0.899300 0.394000
vn 0.485000 0.716700 0.501000
vn -0.312100 0.453400 0.834900
vn 0.222200 0.832800 0.507100
vn -0.354200 -0.480000 -0.802600
vn -0.472500 -0.268400 -0.839500
vn -0.515700 -0.071300 -0.853800
vn 0.512800 0.064600 -0.856100
vn 0.514200 -0.196000 -0.835000
vn 0.514900 -0.350500 -0.782300
vn 0.000000 0.010400 -0.999900
vn -0.999900 0.010600 0.000100
vn -0.000000 0.010800 0.999900
vn 0.999900 0.010600 0.000100
vn -0.984300 0.176300 -0.000100
vn -0.000000 0.171800 0.985100
vn 0.984300 0.176300 -0.000100
vn 0.000000 0.181300 -0.983400
vn -0.000000 -0.000000 1.000000
vn -0.985700 0.168500 -0.000000
vn 0.000000 0.168400 0.985700
vn 0.985700 0.168500 -0.000000
vn 0.000000 0.168600 -0.985700
vn -0.988700 0.150200 -0.000000
vn 0.000000 0.150100 0.988700
vn 0.988700 0.150200 -0.000000
vn 0.000000 0.150300 -0.988600
vn -0.000000 0.998400 -0.056600
vn -0.739700 0.667400 -0.086300
vn -0.739700 0.667400 0.086300
vn 0.000000 0.998400 0.056600
vn 0.739700 0.667400 -0.086300
vn 0.739700 0.667400 0.086300
vn -0.742500 0.669900 0.000000
vn 0.742500 0.669900 0.000000
vn 0.977400 0.211600 0.000000
vn 0.996900 0.078400 0.000000
vn 0.974400 -0.224700 -0.000000
# 151 normals

g polySurface532
usemtl lambert6
s 1
f 1/1/1 2/2/1 3/3/2
f 1/1/1 3/3/2 4/4/2
f 3/3/2 5/5/3 6/6/3
f 3/3/2 6/6/3 4/4/2
f 7/1/1 8/2/1 9/3/2
f 7/1/1 9/3/2 10/4/2
f 9/3/2 11/5/3 12/6/3
f 9/3/2 12/6/3 10/4/2
f 13/1/1 14/2/1 15/3/2
f 13/1/1 15/3/2 16/4/2
f 15/3/2 17/5/3 18/6/3
f 15/3/2 18/6/3 16/4/2
f 19/7/4 20/8/4 21/9/4
f 19/7/4 21/9/4 22/10/4
f 23/11/5 24/11/6 25/11/7
f 23/11/5 25/11/7 26/11/8
f 27/12/9 28/13/10 26/14/8
f 27/12/9 26/14/8 25/12/7
f 29/11/11 30/11/12 28/11/10
f 28/15/10 30/16/12 31/17/13
f 28/15/10 31/17/13 26/18/8
f 26/11/8 31/11/13 23/11/5
f 23/19/5 32/20/14 33/21/15
f 23/19/5 33/21/15 29/22/11
f 34/23/16 32/24/14 23/25/5
f 34/23/16 23/25/5 31/26/13
f 30/26/12 29/25/11 33/24/15
f 30/26/12 33/24/15 35/23/17
f 33/24/15 36/27/18 35/23/17
f 34/23/16 37/27/19 32/24/14
f 32/20/14 37/28/19 36/29/18
f 32/20/14 36/29/18 33/21/15
f 29/11/11 28/11/10 27/11/9
f 29/11/11 27/11/9 38/11/20
f 25/30/7 24/31/6 38/32/20
f 25/30/7 38/32/20 27/33/9
f 36/27/18 39/34/21 40/35/22
f 36/27/18 40/35/22 35/23/17
f 37/28/19 41/36/23 39/37/21
f 37/28/19 39/37/21 36/29/18
f 37/27/19 34/23/16 42/35/24
f 37/27/19 42/35/24 41/34/23
f 43/11/25 44/11/26 45/11/27
f 43/11/25 45/11/27 46/11/28
f 47/12/29 45/12/27 44/14/26
f 47/12/29 44/14/26 48/13/30
f 49/11/31 48/11/30 50/11/32
f 48/15/30 44/18/26 51/17/33
f 48/15/30 51/17/33 50/16/32
f 44/11/26 43/11/25 51/11/33
f 43/19/25 49/22/31 52/21/34
f 43/19/25 52/21/34 53/20/35
f 54/23/36 51/26/33 43/25/25
f 54/23/36 43/25/25 53/24/35
f 50/26/32 55/23/37 52/24/34
f 50/26/32 52/24/34 49/25/31
f 52/24/34 55/23/37 56/27/38
f 54/23/36 53/24/35 57/27/39
f 53/20/35 52/21/34 56/29/38
f 53/20/35 56/29/38 57/28/39
f 49/11/31 58/11/40 47/11/29
f 49/11/31 47/11/29 48/11/30
f 45/30/27 47/33/29 58/32/40
f 45/30/27 58/32/40 46/31/28
f 56/27/38 55/23/37 59/35/41
f 56/27/38 59/35/41 60/34/42
f 57/28/39 56/29/38 60/37/42
f 57/28/39 60/37/42 61/36/43
f 62/35/44 54/23/36 57/27/39
f 62/35/44 57/27/39 61/34/43
f 63/38/45 64/39/46 65/40/47
f 66/41/48 64/39/46 67/42/49
f 68/39/50 69/43/51 70/44/52
f 71/45/53 72/46/54 68/39/50
f 71/45/53 68/39/50 73/47/55
f 74/48/56 68/39/50 70/44/52
f 74/48/56 70/44/52 75/49/57
f 64/39/46 63/38/45 76/50/58
f 64/39/46 76/50/58 72/46/54
f 67/42/49 64/39/46 72/46/54
f 67/42/49 72/46/54 71/45/53
f 69/43/51 68/39/50 72/46/54
f 69/43/51 72/46/54 76/50/58
f 77/51/59 65/40/47 64/39/46
f 77/51/59 64/39/46 66/41/48
f 73/47/55 68/39/50 74/48/56
f 78/52/60 77/53/59 66/54/48
f 78/52/60 66/54/48 79/55/61
f 67/54/49 80/55/62 79/55/61
f 67/54/49 79/55/61 66/54/48
f 81/56/63 80/55/62 67/54/49
f 81/56/63 67/54/49 71/57/53
f 82/58/64 81/56/63 71/57/53
f 82/58/64 71/57/53 73/31/55
f 83/58/65 82/58/64 73/31/55
f 83/58/65 73/31/55 74/31/56
f 84/59/66 85/60/67 86/61/68
f 86/62/68 87/63/69 88/64/70
f 86/62/68 88/64/70 89/65/71
f 87/66/69 90/67/72 91/68/73
f 87/66/69 91/68/73 88/69/70
f 90/67/72 92/70/74 93/71/75
f 90/67/72 93/71/75 91/68/73
f 94/65/76 93/64/75 92/63/74
f 94/65/76 92/63/74 95/62/77
f 83/58/65 74/31/56 75/72/57
f 83/58/65 75/72/57 96/73/78
f 95/74/77 97/75/79 94/76/76
f 96/77/78 84/77/66 89/78/71
f 96/77/78 89/78/71 83/78/65
f 83/78/65 89/78/71 88/78/70
f 83/78/65 88/78/70 82/78/64
f 82/78/64 88/78/70 91/79/73
f 82/78/64 91/79/73 81/79/63
f 81/79/63 91/79/73 93/80/75
f 81/79/63 93/80/75 80/80/62
f 80/80/62 93/80/75 94/80/76
f 80/80/62 94/80/76 79/80/61
f 79/80/61 94/80/76 97/81/79
f 79/80/61 97/81/79 78/81/60
f 63/38/45 65/40/47 98/82/80
f 63/38/45 98/82/80 99/83/81
f 100/84/82 98/82/80 65/40/47
f 100/84/82 65/40/47 77/51/59
f 101/85/83 100/30/82 77/53/59
f 101/85/83 77/53/59 78/52/60
f 97/81/79 102/86/84 101/86/83
f 97/81/79 101/86/83 78/81/60
f 95/74/77 102/70/84 97/75/79
f 103/87/85 85/87/67 84/77/66
f 103/87/85 84/77/66 96/77/78
f 75/72/57 104/72/86 103/73/85
f 75/72/57 103/73/85 96/73/78
f 70/44/52 105/88/87 104/89/86
f 70/44/52 104/89/86 75/49/57
f 69/43/51 106/90/88 105/88/87
f 69/43/51 105/88/87 70/44/52
f 89/91/71 84/59/66 86/61/68
f 107/38/89 108/40/90 109/39/91
f 110/41/92 111/42/93 109/39/91
f 112/39/94 113/44/95 114/43/96
f 115/45/97 116/47/98 112/39/94
f 115/45/97 112/39/94 117/46/99
f 118/48/100 119/49/101 113/44/95
f 118/48/100 113/44/95 112/39/94
f 109/39/91 117/46/99 120/50/102
f 109/39/91 120/50/102 107/38/89
f 111/42/93 115/45/97 117/46/99
f 111/42/93 117/46/99 109/39/91
f 114/43/96 120/50/102 117/46/99
f 114/43/96 117/46/99 112/39/94
f 121/51/103 110/41/92 109/39/91
f 121/51/103 109/39/91 108/40/90
f 116/47/98 118/48/100 112/39/94
f 122/52/104 123/55/105 110/54/92
f 122/52/104 110/54/92 121/53/103
f 111/54/93 110/54/92 123/55/105
f 111/54/93 123/55/105 124/55/106
f 125/56/107 115/57/97 111/54/93
f 125/56/107 111/54/93 124/55/106
f 126/58/108 116/31/98 115/57/97
f 126/58/108 115/57/97 125/56/107
f 127/58/109 118/31/100 116/31/98
f 127/58/109 116/31/98 126/58/108
f 128/59/110 86/61/68 85/60/67
f 86/62/68 129/65/111 130/64/112
f 86/62/68 130/64/112 87/63/69
f 87/66/69 130/69/112 131/68/113
f 87/66/69 131/68/113 90/67/72
f 90/67/72 131/68/113 132/71/114
f 90/67/72 132/71/114 92/70/74
f 133/65/115 95/62/77 92/63/74
f 133/65/115 92/63/74 132/64/114
f 127/58/109 134/73/116 119/72/101
f 127/58/109 119/72/101 118/31/100
f 95/74/77 133/76/115 135/75/117
f 134/77/116 127/78/109 129/78/111
f 134/77/116 129/78/111 128/77/110
f 127/78/109 126/78/108 130/78/112
f 127/78/109 130/78/112 129/78/111
f 126/78/108 125/79/107 131/79/113
f 126/78/108 131/79/113 130/78/112
f 125/79/107 124/80/106 132/80/114
f 125/79/107 132/80/114 131/79/113
f 124/80/106 123/80/105 133/80/115
f 124/80/106 133/80/115 132/80/114
f 123/80/105 122/81/104 135/81/117
f 123/80/105 135/81/117 133/80/115
f 107/38/89 136/83/118 137/82/119
f 107/38/89 137/82/119 108/40/90
f 138/84/120 121/51/103 108/40/90
f 138/84/120 108/40/90 137/82/119
f 101/85/83 122/52/104 121/53/103
f 101/85/83 121/53/103 138/30/120
f 135/81/117 122/81/104 101/86/83
f 135/81/117 101/86/83 102/86/84
f 95/74/77 135/75/117 102/70/84
f 103/87/85 134/77/116 128/77/110
f 103/87/85 128/77/110 85/87/67
f 119/72/101 134/73/116 103/73/85
f 119/72/101 103/73/85 139/72/121
f 113/44/95 119/49/101 139/89/121
f 113/44/95 139/89/121 140/88/122
f 114/43/96 113/44/95 140/88/122
f 114/43/96 140/88/122 141/90/123
f 129/91/111 86/61/68 128/59/110
f 142/92/124 143/93/125 144/94/125
f 142/92/124 144/94/125 145/95/124
f 143/93/125 146/96/126 147/97/126
f 143/93/125 147/97/126 144/94/125
f 146/96/126 148/98/127 149/99/127
f 146/96/126 149/99/127 147/97/126
f 148/98/127 142/100/124 145/101/124
f 148/98/127 145/101/124 149/99/127
f 150/8/128 151/9/129 152/10/130
f 150/8/128 152/10/130 153/7/131
f 154/102/132 155/103/132 156/104/132
f 157/102/4 158/104/4 159/103/4
f 160/92/124 161/93/125 162/94/125
f 160/92/124 162/94/125 163/95/124
f 161/93/125 164/96/126 165/97/126
f 161/93/125 165/97/126 162/94/125
f 164/96/126 166/98/127 167/99/127
f 164/96/126 167/99/127 165/97/126
f 166/98/127 160/100/124 163/101/124
f 166/98/127 163/101/124 167/99/127
f 168/8/133 169/9/134 170/10/135
f 168/8/133 170/10/135 171/7/136
f 172/102/132 173/103/132 174/104/132
f 175/102/4 176/104/4 177/103/4
f 178/92/124 179/93/125 180/94/125
f 178/92/124 180/94/125 181/95/124
f 179/93/125 182/96/126 183/97/126
f 179/93/125 183/97/126 180/94/125
f 182/96/126 184/98/127 185/99/127
f 182/96/126 185/99/127 183/97/126
f 184/98/127 178/100/124 181/101/124
f 184/98/127 181/101/124 185/99/127
f 186/8/137 187/9/138 188/10/139
f 186/8/137 188/10/139 189/7/140
f 190/102/132 191/103/132 192/104/132
f 193/102/4 194/104/4 195/103/4
f 165/105/126 167/106/127 170/107/135
f 165/105/126 170/107/135 169/108/134
f 162/109/125 165/105/126 169/108/134
f 162/109/125 169/108/134 168/110/133
f 163/111/124 162/109/125 168/110/133
f 163/111/124 168/110/133 171/112/136
f 167/106/127 163/113/124 171/114/136
f 167/106/127 171/114/136 170/107/135
f 183/105/126 185/106/127 188/107/139
f 183/105/126 188/107/139 187/108/138
f 180/109/125 183/105/126 187/108/138
f 180/109/125 187/108/138 186/110/137
f 181/111/124 180/109/125 186/110/137
f 181/111/124 186/110/137 189/112/140
f 185/106/127 181/113/124 189/114/140
f 185/106/127 189/114/140 188/107/139
f 147/105/126 149/106/127 152/107/130
f 147/105/126 152/107/130 151/108/129
f 144/109/125 147/105/126 151/108/129
f 144/109/125 151/108/129 150/110/128
f 145/111/124 144/109/125 150/110/128
f 145/111/124 150/110/128 153/112/131
f 149/106/127 145/113/124 153/114/131
f 149/106/127 153/114/131 152/107/130
f 196/115/141 197/116/142 198/117/143
f 196/115/141 198/117/143 199/118/144
f 200/116/145 196/115/141 199/118/144
f 200/116/145 199/118/144 201/117/146
f 202/7/4 197/8/142 196/9/141
f 202/7/4 196/9/141 200/10/145
f 201/10/146 199/7/144 198/8/143
f 201/10/146 198/8/143 203/9/132
f 21/115/72 20/116/147 204/117/143
f 21/115/72 204/117/143 205/118/144
f 22/116/148 21/115/72 205/118/144
f 22/116/148 205/118/144 206/117/146
f 206/10/146 205/7/144 204/8/143
f 206/10/146 204/8/143 207/9/132
f 208/115/141 209/116/142 210/117/143
f 208/115/141 210/117/143 211/118/144
f 212/116/145 208/115/141 211/118/144
f 212/116/145 211/118/144 213/117/146
f 214/7/4 209/8/142 208/9/141
f 214/7/4 208/9/141 212/10/145
f 213/10/146 211/7/144 210/8/143
f 213/10/146 210/8/143 215/9/132
f 216/1/149 217/4/150 218/3/150
f 216/1/149 218/3/150 219/2/149
f 218/3/150 217/4/150 220/6/151
f 218/3/150 220/6/151 221/5/151
f 222/1/149 223/4/150 224/3/150
f 222/1/149 224/3/150 225/2/149
f 224/3/150 223/4/150 226/6/151
f 224/3/150 226/6/151 227/5/151
f 228/1/149 229/4/150 230/3/150
f 228/1/149 230/3/150 231/2/149
f 230/3/150 229/4/150 232/6/151
f 230/3/150 232/6/151 233/5/151
# 300 triangles in group

# 300 triangles total

