# Wavefront OBJ exported by MilkShape 3D

mtllib water.mtl

v 17.054100 8.039400 -40.195099
v 19.481400 10.947900 -51.216202
v 15.410600 10.947900 -51.473000
v 12.894700 8.039400 -40.527000
v 13.695500 7.809600 -36.082298
v 17.171499 7.809600 -35.515999
v 10.316000 7.862400 -26.637899
v 12.692200 7.862400 -24.541401
v 15.435300 7.944500 -29.405300
v 12.216800 7.944500 -32.100399
v 10.125400 7.580800 -26.184799
v 12.372300 7.585600 -24.196301
v 10.059800 5.522200 -25.912201
v 12.185300 5.527000 -24.013201
v 9.902400 3.463400 -25.571501
v 11.843700 3.571800 -23.389400
v 9.584500 3.306100 -25.122000
v 11.345900 3.234100 -22.997299
v 6.606900 2.913900 -24.777399
v 2.039100 2.643100 -24.839199
v 2.581600 2.751400 -21.148399
v 7.729100 2.720100 -21.490200
v 0.181300 2.742300 -21.306400
v -2.181700 2.621200 -23.571400
v -2.093400 2.680100 -29.018000
v -4.793600 2.680500 -27.079599
v -5.853800 2.680500 -28.300200
v -4.447000 2.680100 -31.060301
v -8.497300 2.680800 -31.999399
v -8.776500 2.680400 -29.306499
v -11.989400 2.683900 -32.015499
v -11.415100 2.683400 -29.627300
v -15.467700 2.681800 -32.204300
v -15.448100 2.700100 -30.769501
v -16.368500 2.681800 -31.953699
v -17.040100 2.681800 -31.097401
v -15.645300 2.700100 -30.656099
v -18.165300 2.683000 -27.914400
v -16.819300 2.698900 -27.400700
# 39 vertices

vt 1.005500 2.918700
vt 1.005500 4.283000
vt 0.005500 4.283000
vt 0.005500 2.918700
vt 0.005500 2.214600
vt 1.005500 2.228400
vt 0.005500 1.346900
vt 1.005500 1.358500
vt 1.005500 1.696400
vt 0.005500 1.842700
vt 0.005500 1.267200
vt 1.005500 1.279200
vt 0.005500 1.097300
vt 1.005500 1.162800
vt 0.005500 0.971600
vt 1.005500 0.963600
vt 0.005500 0.921800
vt 1.005500 0.909600
vt 0.005500 0.572200
vt 0.005500 -0.308400
vt 1.005500 -0.084800
vt 1.005500 0.495800
vt 1.005500 -0.376200
vt 1.008000 -0.897300
vt 0.000700 -1.386100
vt 1.000700 -1.750300
vt 1.000700 -1.955500
vt 0.000700 -2.050600
vt 0.000700 -2.699000
vt 1.000700 -2.699000
vt 0.000700 -3.417800
vt 1.000700 -3.214700
vt 0.000700 -4.481400
vt 1.000700 -4.481400
vt 0.012500 -4.783700
vt 0.005600 -5.044300
vt 0.986300 -4.705700
vt -0.002500 -6.385700
vt 0.980400 -6.357400
# 39 texture coordinates

vn -0.015900 0.981200 0.192400
vn -0.019800 0.949100 0.314300
vn -0.020900 0.949000 0.314500
vn -0.015800 0.980100 0.197700
vn 0.001800 0.999800 0.019600
vn -0.002700 0.999900 0.016800
vn -0.177700 0.963200 0.201600
vn -0.229500 0.938400 0.258300
vn -0.000900 1.000000 -0.003100
vn 0.012100 0.999800 -0.014400
vn -0.566300 0.518900 0.640400
vn -0.578000 0.493900 0.649600
vn -0.661000 0.115600 0.741400
vn -0.683200 0.151800 0.714300
vn -0.583100 0.613900 0.532000
vn -0.608000 0.588800 0.532600
vn -0.218500 0.959100 0.179900
vn -0.287900 0.916300 0.278200
vn -0.075600 0.994600 0.071500
vn -0.032200 0.999300 -0.021000
vn -0.022900 0.999700 -0.009600
vn -0.066700 0.992400 0.103800
vn -0.012000 0.999000 -0.042000
vn -0.006100 1.000000 -0.007600
vn 0.002500 1.000000 0.007800
vn 0.005000 1.000000 0.006700
vn 0.000100 1.000000 -0.000000
vn 0.001600 1.000000 -0.001400
vn 0.001200 0.999900 -0.013200
vn -0.000300 0.999900 -0.015600
vn -0.008800 0.999900 -0.012800
vn -0.013800 0.999900 -0.007800
vn -0.012200 0.999800 -0.013400
vn -0.013700 0.999900 -0.004700
# 34 normals

g water
usemtl xxx
s 1
f 1/1/1 2/2/2 3/3/3
f 1/1/1 3/3/3 4/4/4
f 1/1/1 4/4/4 5/5/5
f 1/1/1 5/5/5 6/6/6
f 7/7/7 8/8/8 9/9/9
f 7/7/7 9/9/9 10/10/10
f 5/5/5 10/10/10 9/9/9
f 5/5/5 9/9/9 6/6/6
f 8/8/8 7/7/7 11/11/11
f 8/8/8 11/11/11 12/12/12
f 13/13/13 14/14/14 12/12/12
f 13/13/13 12/12/12 11/11/11
f 14/14/14 13/13/13 15/15/15
f 14/14/14 15/15/15 16/16/16
f 16/16/16 15/15/15 17/17/17
f 16/16/16 17/17/17 18/18/18
f 19/19/19 20/20/20 21/21/21
f 19/19/19 21/21/21 22/22/22
f 23/23/23 20/20/20 24/24/24
f 25/25/25 26/26/26 24/24/24
f 25/25/25 24/24/24 20/20/20
f 27/27/27 28/28/27 29/29/27
f 27/27/27 29/29/27 30/30/27
f 29/29/27 31/31/27 32/32/28
f 29/29/27 32/32/28 30/30/27
f 26/26/26 25/25/25 28/28/27
f 26/26/26 28/28/27 27/27/27
f 20/20/20 23/23/23 21/21/21
f 33/33/29 34/34/30 32/32/28
f 33/33/29 32/32/28 31/31/27
f 33/33/29 35/35/31 34/34/30
f 36/36/32 37/37/33 34/34/30
f 36/36/32 34/34/30 35/35/31
f 38/38/34 39/39/34 37/37/33
f 38/38/34 37/37/33 36/36/32
f 17/17/17 19/19/19 22/22/22
f 17/17/17 22/22/22 18/18/18
# 37 triangles in group

# 37 triangles total

