# Wavefront OBJ exported by MilkShape 3D

mtllib windmill.mtl

v -0.327100 -0.070200 -0.038700
v 0.069300 -0.070200 -0.036500
v 0.069300 1.511100 -0.031300
v -0.481300 1.230400 -0.034300
v 0.500200 -0.070200 -0.034300
v 0.654400 1.230400 -0.028200
v -0.479400 1.230400 -0.280300
v -0.325300 -0.070200 -0.271700
v 0.069500 1.450100 -0.269500
v 0.656300 1.230400 -0.274300
v 0.502000 -0.070200 -0.267300
v 1.256900 -0.079300 -1.177000
v 0.908500 -0.079300 -2.022700
v 0.908500 0.211400 -2.022700
v 1.082700 0.211400 -1.599900
v 1.256900 0.211400 -1.177000
v 0.066100 -0.079300 -2.374400
v 0.066100 0.211400 -2.374400
v 0.486300 0.211400 -2.198600
v -0.781600 -0.079300 -2.026100
v -0.781600 0.211400 -2.026100
v -0.358700 0.211400 -2.200200
v -1.133300 -0.079300 -1.181700
v -1.133300 0.211400 -1.181700
v -0.957400 0.211400 -1.603900
v -0.830600 -0.079300 -0.129100
v -0.830600 0.211400 -0.129100
v -0.981900 0.211400 -0.793200
v -0.635000 -0.079300 -0.209700
v 0.065500 -0.079300 -0.152000
v 0.065500 0.211400 -0.152000
v -0.635000 0.211400 -0.209700
v 0.755900 -0.079300 -0.206900
v 0.755900 0.211400 -0.206900
v 0.951200 -0.079300 -0.125600
v 1.104100 0.211400 -0.789100
v 0.951200 0.211400 -0.125600
v 0.902000 0.211400 -1.525400
v 0.758600 0.211400 -1.873400
v 0.759000 1.519800 -1.873800
v 1.045300 0.211400 -1.177400
v 1.045900 1.519800 -1.177400
v 0.411200 0.211400 -2.018100
v 0.066000 0.211400 -2.162800
v 0.066000 1.519800 -2.163400
v -0.284300 0.211400 -2.019500
v -0.632300 0.211400 -1.876100
v -0.632700 1.519800 -1.876600
v -0.777000 0.211400 -1.528700
v -0.921700 0.211400 -1.181300
v -0.922300 1.519800 -1.181300
v -0.778300 0.211400 -0.833300
v -0.635400 1.519800 -0.209200
v 0.065500 1.519800 -0.108600
v 0.756300 1.519800 -0.206500
v 0.900600 0.211400 -0.830000
v 0.881000 2.774300 -1.823800
v 1.218000 2.774300 -1.005600
v 0.066000 2.774300 -2.164000
v -0.754100 2.774300 -1.827000
v -1.094400 2.774300 -1.010100
v -0.757300 2.774300 -0.205100
v 0.065400 2.774300 -0.139900
v 0.877800 2.774300 -0.204500
v 1.112000 2.836900 -2.053900
v 1.544000 2.836900 -1.004900
v 0.066100 2.836900 -2.490100
v -0.984200 2.836900 -2.058000
v -1.420400 2.836900 -1.010700
v -0.988300 2.836900 -0.161000
v 0.065300 2.836900 -0.077400
v 1.107900 2.836900 -0.160200
v 0.947300 3.762400 -1.889800
v 1.311600 3.762400 -1.005400
v 0.066100 3.762400 -2.257600
v -0.820200 3.762400 -1.893300
v -1.188000 3.762400 -1.010300
v -0.823700 3.762400 -0.192500
v 0.065400 3.762400 -0.121900
v 0.943800 3.762400 -0.191800
v 0.065700 5.004500 -1.007800
v 1.045300 -0.079300 -1.177400
v 0.758600 -0.079300 -1.873400
v 0.066000 -0.079300 -2.162800
v -0.632300 -0.079300 -1.876100
v -0.921700 -0.079300 -1.181300
v 0.902000 0.435800 -1.525400
v 1.256900 0.435800 -1.177000
v 1.082700 0.435800 -1.599900
v 0.411200 0.435800 -2.018100
v 0.908500 0.435800 -2.022700
v 0.486300 0.435800 -2.198600
v 0.900600 0.435800 -0.830000
v 0.755900 0.435800 -0.206900
v 0.951200 0.435800 -0.125600
v 1.104100 0.435800 -0.789100
v 0.758600 0.435800 -1.873400
v -0.358700 0.435800 -2.200200
v -0.781600 0.435800 -2.026100
v -0.632300 0.435800 -1.876100
v -0.284300 0.435800 -2.019500
v -0.981900 0.435800 -0.793200
v -0.830600 0.435800 -0.129100
v -0.635000 0.435800 -0.209700
v -0.778300 0.435800 -0.833300
v 1.045300 0.435800 -1.177400
v -0.957400 0.435800 -1.603900
v -1.133300 0.435800 -1.181700
v -0.921700 0.435800 -1.181300
v -0.777000 0.435800 -1.528700
# 110 vertices

vt 0.758400 0.613300
vt 0.767000 0.613200
vt 0.767300 0.636000
vt 0.758300 0.633400
vt 0.774500 0.613200
vt 0.774100 0.632200
vt 0.781600 0.594100
vt 0.747200 0.594400
vt 0.747200 0.606900
vt 0.764700 0.606900
vt 0.781600 0.606900
vt 0.773200 0.594300
vt 0.773200 0.606400
vt 0.745800 0.594400
vt 0.745800 0.607400
vt 0.870600 0.625800
vt 0.870500 0.634400
vt 0.822300 0.631400
vt 0.870900 0.615200
vt 0.822600 0.615200
vt 0.870600 0.604500
vt 0.870500 0.593900
vt 0.822300 0.596900
vt 0.871100 0.637400
vt 0.785900 0.631700
vt 0.786200 0.615200
vt 0.785900 0.596600
vt 0.747300 0.702400
vt 0.763500 0.702400
vt 0.763500 0.706600
vt 0.747300 0.706600
vt 0.721200 0.606700
vt 0.736900 0.606700
vt 0.734800 0.631000
vt 0.721200 0.627900
vt 0.705500 0.606700
vt 0.707600 0.631000
vt 0.721500 0.659200
vt 0.777400 0.637800
vt 0.782300 0.623200
vt 0.779700 0.623200
vt 0.776100 0.635400
vt 0.767300 0.640500
vt 0.767300 0.638100
vt 0.756600 0.637900
vt 0.758200 0.635900
vt 0.750900 0.623200
vt 0.753400 0.623200
vt 0.751200 0.609200
vt 0.753500 0.610700
vt 0.781800 0.608800
vt 0.779500 0.610200
vt 0.780100 0.709500
vt 0.776100 0.699700
vt 0.776100 0.709500
vt 0.772200 0.709600
vt 0.777300 0.606400
vt 0.777300 0.594300
vt 0.780100 0.699700
vt 0.772400 0.704600
vt 0.780000 0.704600
vt 0.772200 0.699500
vt 0.740800 0.603700
vt 0.726000 0.603700
vt 0.726200 0.595300
vt 0.740700 0.595300
vt 0.752200 0.702900
vt 0.792100 0.709400
vt 0.788200 0.709400
vt 0.788200 0.699200
vt 0.792100 0.699200
vt 0.784000 0.709500
vt 0.784000 0.699400
# 73 texture coordinates

vn -0.681800 -0.082900 0.726800
vn -0.005600 -0.003600 1.000000
vn -0.038800 0.845000 0.533300
vn -0.701800 0.403300 0.587200
vn 0.672400 -0.083100 0.735500
vn 0.698900 0.385600 0.602400
vn -0.860400 0.509600 -0.006600
vn -0.993000 -0.117800 -0.007700
vn -0.049700 0.974400 -0.219400
vn 0.872000 0.488700 -0.027000
vn 0.993000 -0.117800 0.007700
vn 0.767500 -0.639700 -0.041400
vn 0.550200 -0.630300 -0.547800
vn 0.817000 0.255400 -0.517100
vn 0.721500 0.301500 -0.623300
vn 0.944200 0.276200 0.179200
vn 0.002300 -0.630300 -0.776300
vn 0.002500 0.630300 -0.776300
vn 0.070200 0.303000 -0.950400
vn -0.547700 -0.630200 -0.550300
vn -0.814900 0.255200 -0.520400
vn -0.065600 0.300100 -0.951600
vn -0.775100 -0.631300 -0.027700
vn -0.944600 0.259000 0.201800
vn -0.719100 0.301500 -0.626100
vn -0.356900 -0.571700 0.738700
vn -0.449400 0.013300 0.893200
vn -0.901500 0.425400 -0.079600
vn 0.134800 -0.480800 0.866400
vn -0.001400 0.000000 1.000000
vn -0.001400 -0.016600 0.999900
vn 0.148900 -0.006000 0.988800
vn -0.137600 -0.481100 0.865800
vn -0.152800 -0.013000 0.988200
vn 0.368400 -0.565600 0.737800
vn 0.867900 0.495900 -0.029600
vn 0.457200 0.000000 0.889400
vn 0.314000 0.577000 -0.753900
vn 0.784100 0.600400 0.157500
vn 0.700300 -0.019500 -0.713600
vn 0.443000 0.600600 0.665600
vn 0.995700 -0.066500 -0.065200
vn -0.310500 0.576500 -0.755800
vn 0.002400 0.804100 -0.594400
vn 0.003100 -0.000500 -1.000000
vn -0.784500 0.600600 0.154400
vn -0.696700 -0.019300 -0.717100
vn -0.463500 0.591800 0.659500
vn -0.996800 -0.053100 -0.059300
vn -0.754800 0.531500 -0.384500
vn -0.640400 -0.026900 0.767600
vn -0.006500 0.000800 1.000000
vn 0.633500 -0.044700 0.772500
vn 0.737800 0.536400 -0.409800
vn 0.486300 -0.738800 -0.466500
vn 0.650700 -0.759300 0.007500
vn 0.002100 -0.725300 -0.688400
vn -0.484000 -0.738900 -0.468800
vn -0.640700 -0.767400 0.022900
vn -0.361400 -0.606500 0.708300
vn -0.005400 -0.383600 0.923500
vn 0.359900 -0.587200 0.725100
vn 0.625500 -0.470100 -0.622700
vn 0.885800 -0.462900 0.032500
vn 0.002100 -0.470100 -0.882600
vn -0.622700 -0.470100 -0.625500
vn -0.882700 -0.469400 0.022200
vn -0.541600 -0.464800 0.700500
vn 0.000000 -0.353500 0.935400
vn 0.547000 -0.452800 0.704100
vn 0.626300 0.467900 -0.623600
vn 0.887300 0.460600 0.023000
vn 0.002300 0.468300 -0.883600
vn -0.623300 0.468700 -0.626000
vn -0.883700 0.468000 0.010700
vn -0.512400 0.399400 0.760200
vn 0.000100 0.323300 0.946300
vn 0.518300 0.392800 0.759600
vn 0.001600 0.998900 0.047400
vn 0.000000 -1.000000 -0.000000
vn -0.753700 0.577400 -0.313900
vn 0.688300 0.559500 0.461800
vn -0.755000 0.577400 0.311000
vn 0.813200 0.559500 -0.160100
vn -0.441500 0.578900 -0.685500
vn -0.720600 0.586600 0.369600
vn 0.376000 0.569000 0.731300
vn 0.686900 0.575900 -0.443300
vn 0.154400 0.600900 0.784300
vn -0.812600 0.559500 -0.163300
vn -0.157500 0.600900 0.783700
vn 0.753700 0.577300 0.313900
vn -0.685600 0.575800 -0.445500
vn -0.378300 0.569100 0.730100
vn 0.719500 0.586500 0.371900
vn 0.443600 0.579000 -0.684100
vn -0.445400 0.600900 0.663800
vn -0.690100 0.559500 0.459100
vn 0.755000 0.577400 -0.311000
# 99 normals

g windmill
usemtl Material34
s 1
f 1/1/1 2/2/2 3/3/3
f 3/3/3 4/4/4 1/1/1
f 2/2/2 5/5/5 6/6/6
f 6/6/6 3/3/3 2/2/2
f 1/1/1 4/4/4 7/4/7
f 7/4/7 8/1/8 1/1/1
f 4/4/4 3/3/3 9/3/9
f 9/3/9 7/4/7 4/4/4
f 3/3/3 6/6/6 10/6/10
f 10/6/10 9/3/9 3/3/3
f 6/6/6 5/5/5 11/5/11
f 11/5/11 10/6/10 6/6/6
f 12/7/12 13/8/13 14/9/14
f 12/7/12 14/9/14 15/10/15
f 12/7/12 15/10/15 16/11/16
f 13/7/13 17/8/17 18/9/18
f 13/7/13 18/9/18 19/10/19
f 13/7/13 19/10/19 14/11/14
f 17/8/17 20/7/20 21/11/21
f 17/8/17 21/11/21 22/10/22
f 17/8/17 22/10/22 18/9/18
f 20/8/20 23/7/23 24/11/24
f 20/8/20 24/11/24 25/10/25
f 20/8/20 25/10/25 21/9/21
f 23/8/23 26/7/26 27/11/27
f 23/8/23 27/11/27 28/10/28
f 23/8/23 28/10/28 24/9/24
f 29/12/29 30/8/30 31/9/31
f 31/9/31 32/13/32 29/12/29
f 30/14/30 33/12/33 34/13/34
f 34/13/34 31/15/31 30/14/30
f 35/7/35 12/8/12 16/9/16
f 35/7/35 16/9/16 36/10/36
f 35/7/35 36/10/36 37/11/37
f 38/16/38 39/17/39 40/18/40
f 41/19/41 38/16/38 40/18/40
f 41/19/41 40/18/40 42/20/42
f 43/21/43 44/19/44 45/20/45
f 39/22/39 43/21/43 45/20/45
f 39/22/39 45/20/45 40/23/40
f 46/16/38 47/17/46 48/18/47
f 44/19/44 46/16/38 48/18/47
f 44/19/44 48/18/47 45/20/45
f 49/21/43 50/19/48 51/20/49
f 47/22/46 49/21/43 51/20/49
f 47/22/46 51/20/49 48/23/47
f 52/16/50 32/24/32 53/18/51
f 50/19/48 52/16/50 53/18/51
f 50/19/48 53/18/51 51/20/49
f 32/22/32 31/19/31 54/20/52
f 54/20/52 53/23/51 32/22/32
f 34/17/34 55/18/53 54/20/52
f 54/20/52 31/19/31 34/17/34
f 56/21/54 41/19/41 42/20/42
f 34/22/34 56/21/54 42/20/42
f 34/22/34 42/20/42 55/23/53
f 42/20/42 40/18/40 57/25/55
f 57/25/55 58/26/56 42/20/42
f 40/23/40 45/20/45 59/26/57
f 59/26/57 57/27/55 40/23/40
f 45/20/45 48/18/47 60/25/58
f 60/25/58 59/26/57 45/20/45
f 48/23/47 51/20/49 61/26/59
f 61/26/59 60/27/58 48/23/47
f 51/20/49 53/18/51 62/25/60
f 62/25/60 61/26/59 51/20/49
f 53/23/51 54/20/52 63/26/61
f 63/26/61 62/27/60 53/23/51
f 54/20/52 55/18/53 64/25/62
f 64/25/62 63/26/61 54/20/52
f 55/23/53 42/20/42 58/26/56
f 58/26/56 64/27/62 55/23/53
f 58/28/56 57/29/55 65/30/63
f 65/30/63 66/31/64 58/28/56
f 57/28/55 59/29/57 67/30/65
f 67/30/65 65/31/63 57/28/55
f 59/28/57 60/29/58 68/30/66
f 68/30/66 67/31/65 59/28/57
f 60/28/58 61/29/59 69/30/67
f 69/30/67 68/31/66 60/28/58
f 61/28/59 62/29/60 70/30/68
f 70/30/68 69/31/67 61/28/59
f 62/28/60 63/29/61 71/30/69
f 71/30/69 70/31/68 62/28/60
f 63/28/61 64/29/62 72/30/70
f 72/30/70 71/31/69 63/28/61
f 64/28/62 58/29/56 66/30/64
f 66/30/64 72/31/70 64/28/62
f 66/32/64 65/33/63 73/34/71
f 73/34/71 74/35/72 66/32/64
f 65/36/63 67/32/65 75/35/73
f 75/35/73 73/37/71 65/36/63
f 67/32/65 68/33/66 76/34/74
f 76/34/74 75/35/73 67/32/65
f 68/36/66 69/32/67 77/35/75
f 77/35/75 76/37/74 68/36/66
f 69/32/67 70/33/68 78/34/76
f 78/34/76 77/35/75 69/32/67
f 70/36/68 71/32/69 79/35/77
f 79/35/77 78/37/76 70/36/68
f 71/32/69 72/33/70 80/34/78
f 80/34/78 79/35/77 71/32/69
f 72/36/70 66/32/64 74/35/72
f 74/35/72 80/37/78 72/36/70
f 81/38/79 74/35/72 73/34/71
f 81/38/79 73/37/71 75/35/73
f 81/38/79 75/35/73 76/34/74
f 81/38/79 76/37/74 77/35/75
f 81/38/79 77/35/75 78/34/76
f 81/38/79 78/37/76 79/35/77
f 81/38/79 79/35/77 80/34/78
f 81/38/79 80/37/78 74/35/72
f 13/39/13 12/40/12 82/41/80
f 82/41/80 83/42/80 13/39/13
f 17/43/17 13/39/13 83/42/80
f 83/42/80 84/44/80 17/43/17
f 20/45/20 17/43/17 84/44/80
f 84/44/80 85/46/80 20/45/20
f 23/47/23 20/45/20 85/46/80
f 85/46/80 86/48/80 23/47/23
f 26/49/26 23/47/23 86/48/80
f 86/48/80 29/50/29 26/49/26
f 12/40/12 35/51/35 33/52/33
f 33/52/33 82/41/80 12/40/12
f 87/53/81 88/54/82 89/55/38
f 90/53/83 91/54/84 92/55/43
f 46/56/38 18/54/18 22/55/22
f 49/56/43 21/54/21 25/55/25
f 52/56/50 24/54/24 28/55/28
f 27/57/27 26/58/26 29/12/29
f 29/12/29 32/13/32 27/57/27
f 35/7/35 37/57/37 34/13/34
f 34/13/34 33/12/33 35/7/35
f 93/59/85 94/53/86 95/55/87
f 95/55/87 96/54/88 93/59/85
f 19/60/19 18/61/18 44/53/44
f 44/53/44 43/56/43 19/60/19
f 90/53/83 97/59/89 91/54/84
f 98/55/38 99/54/90 100/59/91
f 100/59/91 101/53/92 98/55/38
f 46/56/38 44/62/44 18/54/18
f 102/54/93 103/55/94 104/53/95
f 104/53/95 105/59/96 102/54/93
f 52/56/50 50/62/48 24/54/24
f 36/60/36 16/61/16 41/53/41
f 41/53/41 56/56/54 36/60/36
f 15/60/15 14/61/14 39/53/39
f 39/53/39 38/56/38 15/60/15
f 87/53/81 106/59/97 88/54/82
f 107/55/43 108/54/98 109/59/41
f 109/59/41 110/53/99 107/55/43
f 49/56/43 47/62/46 21/54/21
f 99/63/90 98/64/38 22/65/22
f 22/65/22 21/66/21 99/63/90
f 108/63/98 107/64/43 25/65/25
f 25/65/25 24/66/24 108/63/98
f 103/63/94 102/64/93 28/65/28
f 28/65/28 27/66/27 103/63/94
f 106/67/97 87/67/81 38/67/38
f 38/67/38 41/67/41 106/67/97
f 97/67/89 90/67/83 43/67/43
f 43/67/43 39/67/39 97/67/89
f 94/67/86 93/67/85 56/67/54
f 56/67/54 34/67/34 94/67/86
f 87/68/81 89/69/38 15/70/15
f 15/70/15 38/71/38 87/68/81
f 90/68/83 92/69/43 19/70/19
f 19/70/19 43/71/43 90/68/83
f 98/69/38 101/72/92 46/73/38
f 46/73/38 22/70/22 98/69/38
f 107/69/43 110/72/99 49/73/43
f 49/73/43 25/70/25 107/69/43
f 102/69/93 105/72/96 52/73/50
f 52/73/50 28/70/28 102/69/93
f 104/68/95 103/69/94 27/70/27
f 27/70/27 32/71/32 104/68/95
f 93/68/85 96/69/88 36/70/36
f 36/70/36 56/71/54 93/68/85
f 92/64/43 91/63/84 14/66/14
f 14/66/14 19/65/19 92/64/43
f 96/64/88 95/63/87 37/66/37
f 37/66/37 36/65/36 96/64/88
f 101/67/92 100/67/91 47/67/46
f 47/67/46 46/67/38 101/67/92
f 105/67/96 104/67/95 32/67/32
f 32/67/32 52/67/50 105/67/96
f 91/69/84 97/72/89 39/73/39
f 39/73/39 14/70/14 91/69/84
f 109/68/41 108/69/98 24/70/24
f 24/70/24 50/71/48 109/68/41
f 95/69/87 94/72/86 34/73/34
f 34/73/34 37/70/37 95/69/87
f 89/64/38 88/63/82 16/66/16
f 16/66/16 15/65/15 89/64/38
f 110/67/99 109/67/41 50/67/48
f 50/67/48 49/67/43 110/67/99
f 88/69/82 106/72/97 41/73/41
f 41/73/41 16/70/16 88/69/82
f 100/68/91 99/69/90 21/70/21
f 21/70/21 47/71/46 100/68/91
# 200 triangles in group

# 200 triangles total

